<svg xmlns="http://www.w3.org/2000/svg" width="47.097" height="47.097" viewBox="0 0 47.097 47.097">
  <g id="shortcut_logo" data-name="shortcut logo" transform="translate(0 -0.155)">
    <path id="Path_9" data-name="Path 9" d="M47.1,11.93A11.774,11.774,0,0,0,35.323.155H11.776A11.737,11.737,0,0,0,3.45,3.6h0a11.776,11.776,0,0,0,0,16.652l4.193,4.194a11.776,11.776,0,0,0,4.131,22.8H35.323A11.735,11.735,0,0,0,43.649,43.8h0a11.775,11.775,0,0,0,0-16.652l-4.193-4.194A11.779,11.779,0,0,0,47.1,11.93ZM6.68,40.574A7.206,7.206,0,0,1,11.473,28.28l14.4,14.406h-14.1A7.16,7.16,0,0,1,6.68,40.574ZM40.418,30.384a7.206,7.206,0,1,1-10.19,10.191L6.68,17.025A7.206,7.206,0,0,1,16.871,6.834Zm0-13.358a7.154,7.154,0,0,1-4.793,2.1l-14.4-14.4h14.1a7.207,7.207,0,0,1,5.094,12.3Z" transform="translate(0 0)" fill="#58b1e4"/>
  </g>
</svg>
