<svg xmlns="http://www.w3.org/2000/svg" viewBox="0 0 10240 10240"><path fill="#2F2F3C" d="M9924 5119a4806 4806 0 1 1-9613 0 4806 4806 0 0 1 9613 0ZM4880 9933" style="transform:none"/><path fill="#454B59" d="M9924 5119a4806 4806 0 1 1-9613 0 4806 4806 0 0 1 9613 0ZM2824 8597c-11-91 16-158 90-233 52-52 74-66 123-80 59-18 59-18 26-73-116-192-68-392 115-485 27-13 65-28 86-31 27-6 36-11 31-23-35-91-31-213 8-295 45-91 181-207 244-207 32 0 36-15 14-58-26-50-44-153-35-200 13-69 67-158 117-191 27-17 27-17-49-66a1231 1231 0 0 1-473-612c-16-49-33-74-73-113-71-69-83-65-117 36a747 747 0 0 1-411 465c-89 37-206 49-291 29a515 515 0 0 1-315-244c-29-56-29-56-105-56a423 423 0 0 1-428-330c-8-39-8-71-1-108 10-53 10-53-53-127a545 545 0 0 1-151-370c0-94 28-190 76-256 24-34 28-46 19-58-52-74-66-109-69-172-2-37 1-84 8-105 15-45 81-113 133-137 38-18 38-18-3-63-67-73-95-144-95-240 0-72 3-86 30-129 36-59 98-108 164-132 48-17 48-17 27-62-30-66-28-169 4-236 33-67 106-137 185-176 36-17 65-33 65-35s-11-20-25-40c-38-56-58-137-52-206 14-153 146-286 316-318 29-5 56-12 60-15 5-2 11-27 13-54 12-122 141-280 293-358 88-46 217-87 307-97 56-7 56-7 32-54-57-111-38-219 56-313 53-54 140-99 188-99 16 0 17-8 14-64a376 376 0 0 1 378-390c74 0 89 4 203 62 4 2 7-11 7-30 1-80 80-176 165-197 86-22 150-11 228 39l52 30c3 0 5-10 5-22 1-69 96-178 172-199a353 353 0 0 1 312 66c34 26 34 26 76-18 23-26 70-60 108-78 60-30 76-34 147-34 95 1 151 22 218 84 44 40 44 40 86-3 99-101 230-128 344-72 32 15 72 45 89 66 32 38 32 38 68 11 62-48 105-70 170-87 145-37 287 31 335 162l20 51c0 1 27-11 59-27 75-38 175-42 243-9 91 44 142 140 129 244-6 55-6 55 20 45 37-14 139-12 177 4 38 15 84 66 93 102 5 18 11 23 23 18 85-35 181-44 253-22 22 6 62 31 88 55 74 67 98 161 66 265-13 45-13 45 56 52 134 12 253 68 342 162 103 107 142 260 91 357-14 27-14 27 28 27 146 0 289 85 358 212 30 57 34 72 36 153 2 90 2 90 51 96a533 533 0 0 1 415 307c37 77 41 92 45 185 2 56 0 119-6 139-10 38-10 38 65 90 131 91 203 206 211 339 5 90-8 136-52 187-22 25-27 37-17 40a399 399 0 0 1 198 309c8 99-21 193-79 258-17 20-17 23 21 97 50 100 65 175 59 290-8 138-50 230-162 355-46 51-47 53-37 90 30 107 1 256-70 362a620 620 0 0 1-207 189 643 643 0 0 1-229 59c-84 6-84 6-121 82a523 523 0 0 1-205 220 566 566 0 0 1-497-16 749 749 0 0 1-289-291c-46-90-87-235-98-344-5-58-9-68-25-68-23 0-33 25-48 123a972 972 0 0 1-368 617c-67 51-67 51-7 113 73 76 131 185 145 277 16 105-12 228-70 310-20 28-20 28 12 35 65 14 178 76 237 131a374 374 0 0 1 97 435c-5 12 8 25 52 52a551 551 0 0 1 237 622c-8 27-12 51-10 53 6 6 104-77 178-150 57-56 57-57 57-116 0-152-80-332-201-454-77-77-77-77-72-140 6-81-17-190-58-274a692 692 0 0 0-213-234c-37-24-54-40-50-50 3-8 10-49 15-91 18-129-12-260-85-382-34-56-34-56-14-74 11-10 50-55 85-100 36-46 70-83 78-83 7 0 34 25 61 57a912 912 0 0 0 457 278c107 24 304 17 397-13a685 685 0 0 0 346-270c37-58 39-60 91-66a736 736 0 0 0 613-707c0-74 1-77 43-130 56-73 114-198 133-290 24-112 15-272-20-369-15-41-28-82-28-90s12-46 27-85c66-174 32-391-83-526-33-38-34-41-23-84 14-56 14-169 0-237a643 643 0 0 0-172-302c-80-81-80-81-84-161a730 730 0 0 0-459-652c-44-13-56-22-60-42a592 592 0 0 0-349-418c-48-18-48-18-65-88a653 653 0 0 0-414-461c-60-22-60-22-76-85a435 435 0 0 0-440-349c-44 0-82-5-85-10-11-19-105-61-158-71-51-11-53-12-77-67a522 522 0 0 0-215-217c-53-26-73-30-175-33-114-4-115-4-150-37a489 489 0 0 0-546-87c-41 21-41 21-87-4a489 489 0 0 0-435-4c-62 29-62 29-130 2-60-23-81-26-192-27-138 0-190 12-273 65-46 29-46 29-119 3-65-22-84-25-180-21-99 4-113 7-181 41-40 20-94 54-119 77-46 40-46 40-166 43-111 3-124 5-183 34-35 18-90 55-121 83-57 50-57 50-155 54-103 4-193 28-245 66-15 11-32 20-37 20-24 0-137 98-179 154-53 73-77 123-99 210-14 58-19 67-52 82a581 581 0 0 0-171 163c-38 61-70 153-70 205 0 23-4 46-8 52-4 5-36 21-72 33a838 838 0 0 0-485 414c-32 69-37 74-85 91-27 10-53 22-55 27-3 5-21 16-40 25a632 632 0 0 0-201 228c-43 92-61 200-47 287 10 64 10 64-53 132a541 541 0 0 0-154 359c0 43-4 50-63 110-34 35-74 88-89 118a488 488 0 0 0-14 382c26 62 26 63 7 88-10 15-31 51-47 80-40 78-46 211-14 309 22 69 22 69-4 140a708 708 0 0 0 107 666c40 54 45 67 51 133a621 621 0 0 0 508 560c88 17 88 17 137 78a670 670 0 0 0 630 240 823 823 0 0 0 464-254c53-56 84-82 100-82 17 1 34 21 77 93 41 69 84 121 171 207 115 115 115 115 95 160-15 35-21 72-24 163-2 64-8 117-12 117-18 0-120 104-156 157-50 76-73 140-87 247-12 87-13 90-47 109-141 77-241 278-227 457 3 42 11 89 17 104 10 27 7 32-52 90a417 417 0 0 0-126 204c-10 42-10 42 50 93 57 50 140 117 146 118l-4-52zm2516-1537c104-30 173-72 255-155 153-156 230-371 191-535-8-35-14-66-12-67 2-2 27 2 56 8 125 27 253-11 343-103 31-32 57-64 57-71s-24-21-52-31c-49-16-56-16-97-2-58 21-181 20-303-3-53-10-102-15-108-11-9 5 0 42 31 131 42 117 44 130 44 234 0 101-2 115-28 168a672 672 0 0 1-181 206 745 745 0 0 1-417 138c-322 15-550-125-574-351-8-76 9-271 35-390 11-49 20-96 20-103 0-18-24-16-127 8-72 17-105 20-183 15l-115-7c-25-1-115 31-115 40a320 320 0 0 0 189 171 495 495 0 0 0 257 2c1 2-2 49-8 105-7 75-7 119 2 171 37 220 212 389 465 448 86 20 278 12 375-16zm-211-923c1-227-2-288-11-285-16 6-23 257-12 468 11 229 23 137 23-183zm-419-621c0-2-25-36-55-75s-55-73-55-75 28 3 63 10c81 17 120 17 192-1 110-28 155-111 105-193-47-77-174-81-208-7-17 37-15 63 9 101 21 34 21 34-28 34-100-1-170-60-193-164-18-81 9-156 78-218 47-42 117-70 239-95 123-25 434-25 546 1 161 36 257 137 257 270 0 141-93 235-196 196-24-10-25-12-11-28 33-37 22-104-23-127-62-32-146-11-175 45-35 67-9 137 65 173 39 19 61 22 163 22 64 0 117 2 117 4 0 3-7 13-17 23-9 10-12 18-6 18 20 0 125-161 145-223 24-76 19-163-13-231a390 390 0 0 0-184-165c-194-73-647-67-848 10a296 296 0 0 0-201 284c1 101 28 160 136 298 85 108 98 124 98 113zm-1070-791c47-8 121-15 165-15 80 0 80 0 20-36-95-57-144-112-165-186-14-45 4-103 40-129 26-20 27-24 16-43-51-81-6-189 89-216 65-18 170-9 230 20 64 31 134 101 165 165 19 38 25 66 25 115 0 65 0 65 103 65 95 0 102-1 102-20 0-31-26-110-55-167-146-290-446-388-697-227a517 517 0 0 0-204 534c19 80 52 155 68 155 7 0 51-7 98-15zm3114-33c58-114 72-276 37-410a492 492 0 0 0-321-342c-53-18-82-21-165-18-87 3-108 7-165 34a600 600 0 0 0-339 497c2 1 51 1 109-1 105-4 105-4 105-85 1-69 5-90 27-132 40-76 90-128 159-165 52-28 77-34 141-38 72-4 83-2 141 26 69 34 94 66 103 134 5 34 1 54-15 85-20 40-20 41-1 46 30 8 60 66 60 118 0 53-38 121-93 165-36 28-36 28 26 55 34 15 82 38 107 53 25 14 48 26 52 26s19-22 32-48z" style="transform:none"/><g fill="#626B7B" style="transform:none"><path d="M9924 5119a4806 4806 0 1 1-9613 0 4806 4806 0 0 1 9613 0ZM2824 8597c-11-91 16-158 90-233 52-52 74-66 123-80 59-18 59-18 26-73-116-192-68-392 115-485 27-13 65-28 86-31 27-6 36-11 31-23-35-91-31-213 8-295 45-91 181-207 244-207 32 0 36-15 14-58-26-50-44-153-35-200 13-69 67-158 117-191 27-17 27-17-49-66a1231 1231 0 0 1-473-612c-16-49-33-74-73-113-71-69-83-65-117 36a747 747 0 0 1-411 465c-89 37-206 49-291 29a515 515 0 0 1-315-244c-29-56-29-56-105-56a423 423 0 0 1-428-330c-8-39-8-71-1-108 10-53 10-53-53-127a545 545 0 0 1-151-370c0-94 28-190 76-256 24-34 28-46 19-58-52-74-66-109-69-172-2-37 1-84 8-105 15-45 81-113 133-137 38-18 38-18-3-63-67-73-95-144-95-240 0-72 3-86 30-129 36-59 98-108 164-132 48-17 48-17 27-62-30-66-28-169 4-236 33-67 106-137 185-176 36-17 65-33 65-35s-11-20-25-40c-38-56-58-137-52-206 14-153 146-286 316-318 29-5 56-12 60-15 5-2 11-27 13-54 12-122 141-280 293-358 88-46 217-87 307-97 56-7 56-7 32-54-57-111-38-219 56-313 53-54 140-99 188-99 16 0 17-8 14-64a376 376 0 0 1 378-390c74 0 89 4 203 62 4 2 7-11 7-30 1-80 80-176 165-197 86-22 150-11 228 39l52 30c3 0 5-10 5-22 1-69 96-178 172-199a353 353 0 0 1 312 66c34 26 34 26 76-18 23-26 70-60 108-78 60-30 76-34 147-34 95 1 151 22 218 84 44 40 44 40 86-3 99-101 230-128 344-72 32 15 72 45 89 66 32 38 32 38 68 11 62-48 105-70 170-87 145-37 287 31 335 162l20 51c0 1 27-11 59-27 75-38 175-42 243-9 91 44 142 140 129 244-6 55-6 55 20 45 37-14 139-12 177 4 38 15 84 66 93 102 5 18 11 23 23 18 85-35 181-44 253-22 22 6 62 31 88 55 74 67 98 161 66 265-13 45-13 45 56 52 134 12 253 68 342 162 103 107 142 260 91 357-14 27-14 27 28 27 146 0 289 85 358 212 30 57 34 72 36 153 2 90 2 90 51 96a533 533 0 0 1 415 307c37 77 41 92 45 185 2 56 0 119-6 139-10 38-10 38 65 90 131 91 203 206 211 339 5 90-8 136-52 187-22 25-27 37-17 40a399 399 0 0 1 198 309c8 99-21 193-79 258-17 20-17 23 21 97 50 100 65 175 59 290-8 138-50 230-162 355-46 51-47 53-37 90 30 107 1 256-70 362a620 620 0 0 1-207 189 643 643 0 0 1-229 59c-84 6-84 6-121 82a523 523 0 0 1-205 220 566 566 0 0 1-497-16 749 749 0 0 1-289-291c-46-90-87-235-98-344-5-58-9-68-25-68-23 0-33 25-48 123a972 972 0 0 1-368 617c-67 51-67 51-7 113 73 76 131 185 145 277 16 105-12 228-70 310-20 28-20 28 12 35 65 14 178 76 237 131a374 374 0 0 1 97 435c-5 12 8 25 52 52a551 551 0 0 1 237 622c-8 27-12 51-10 53 6 6 104-77 178-150 57-56 57-57 57-116 0-152-80-332-201-454-77-77-77-77-72-140 6-81-17-190-58-274a692 692 0 0 0-213-234c-37-24-54-40-50-50 3-8 10-49 15-91 18-129-12-260-85-382-34-56-34-56-14-74 11-10 50-55 85-100 36-46 70-83 78-83 7 0 34 25 61 57a912 912 0 0 0 457 278c107 24 304 17 397-13a685 685 0 0 0 346-270c37-58 39-60 91-66a736 736 0 0 0 613-707c0-74 1-77 43-130 56-73 114-198 133-290 24-112 15-272-20-369-15-41-28-82-28-90s12-46 27-85c66-174 32-391-83-526-33-38-34-41-23-84 14-56 14-169 0-237a643 643 0 0 0-172-302c-80-81-80-81-84-161a730 730 0 0 0-459-652c-44-13-56-22-60-42a592 592 0 0 0-349-418c-48-18-48-18-65-88a653 653 0 0 0-414-461c-60-22-60-22-76-85a435 435 0 0 0-440-349c-44 0-82-5-85-10-11-19-105-61-158-71-51-11-53-12-77-67a522 522 0 0 0-215-217c-53-26-73-30-175-33-114-4-115-4-150-37a489 489 0 0 0-546-87c-41 21-41 21-87-4a489 489 0 0 0-435-4c-62 29-62 29-130 2-60-23-81-26-192-27-138 0-190 12-273 65-46 29-46 29-119 3-65-22-84-25-180-21-99 4-113 7-181 41-40 20-94 54-119 77-46 40-46 40-166 43-111 3-124 5-183 34-35 18-90 55-121 83-57 50-57 50-155 54-103 4-193 28-245 66-15 11-32 20-37 20-24 0-137 98-179 154-53 73-77 123-99 210-14 58-19 67-52 82a581 581 0 0 0-171 163c-38 61-70 153-70 205 0 23-4 46-8 52-4 5-36 21-72 33a838 838 0 0 0-485 414c-32 69-37 74-85 91-27 10-53 22-55 27-3 5-21 16-40 25a632 632 0 0 0-201 228c-43 92-61 200-47 287 10 64 10 64-53 132a541 541 0 0 0-154 359c0 43-4 50-63 110-34 35-74 88-89 118a488 488 0 0 0-14 382c26 62 26 63 7 88-10 15-31 51-47 80-40 78-46 211-14 309 22 69 22 69-4 140a708 708 0 0 0 107 666c40 54 45 67 51 133a621 621 0 0 0 508 560c88 17 88 17 137 78a670 670 0 0 0 630 240 823 823 0 0 0 464-254c53-56 84-82 100-82 17 1 34 21 77 93 41 69 84 121 171 207 115 115 115 115 95 160-15 35-21 72-24 163-2 64-8 117-12 117-18 0-120 104-156 157-50 76-73 140-87 247-12 87-13 90-47 109-141 77-241 278-227 457 3 42 11 89 17 104 10 27 7 32-52 90a417 417 0 0 0-126 204c-10 42-10 42 50 93 57 50 140 117 146 118l-4-52zm2516-1537c104-30 173-72 255-155 153-156 230-371 191-535-8-35-14-66-12-67 2-2 27 2 56 8 125 27 253-11 343-103 31-32 57-64 57-71s-24-21-52-31c-49-16-56-16-97-2-58 21-181 20-303-3-53-10-102-15-108-11-9 5 0 42 31 131 42 117 44 130 44 234 0 101-2 115-28 168a672 672 0 0 1-181 206 745 745 0 0 1-417 138c-322 15-550-125-574-351-8-76 9-271 35-390 11-49 20-96 20-103 0-18-24-16-127 8-72 17-105 20-183 15l-115-7c-25-1-115 31-115 40a320 320 0 0 0 189 171 495 495 0 0 0 257 2c1 2-2 49-8 105-7 75-7 119 2 171 37 220 212 389 465 448 86 20 278 12 375-16zm-211-923c1-227-2-288-11-285-16 6-23 257-12 468 11 229 23 137 23-183zm166-480c120-33 184-87 324-274 63-83 86-124 103-177 25-81 20-160-13-231a393 393 0 0 0-184-164c-194-73-647-67-848 10a296 296 0 0 0-201 284c1 104 27 159 149 315 141 181 185 215 320 246 72 17 275 11 350-9zm-1655-932c47-8 121-15 165-15 80 0 80 0 20-36-95-57-144-112-165-186-14-45 4-103 40-129 26-20 27-24 16-43-51-81-6-189 89-216 65-18 170-9 230 20 64 31 134 101 165 165 19 38 25 66 25 115 0 65 0 65 103 65 95 0 102-1 102-20 0-31-26-110-55-167-146-290-446-388-697-227a517 517 0 0 0-204 534c19 80 52 155 68 155 7 0 51-7 98-15zm3114-33c58-114 72-276 37-410a492 492 0 0 0-321-342c-53-18-82-21-165-18-87 3-108 7-165 34a600 600 0 0 0-339 497c2 1 51 1 109-1 105-4 105-4 105-85 1-69 5-90 27-132 40-76 90-128 159-165 52-28 77-34 141-38 72-4 83-2 141 26 69 34 94 66 103 134 5 34 1 54-15 85-20 40-20 41-1 46 30 8 60 66 60 118 0 53-38 121-93 165-36 28-36 28 26 55 34 15 82 38 107 53 25 14 48 26 52 26s19-22 32-48z"/><path d="M4627 5103c-4-3-7-18-7-31 0-40 76-106 151-131 141-46 408-66 441-33 9 9 6 19-19 44-17 18-38 47-47 65s-25 37-35 43c-28 14-125 12-196-5-118-29-196-17-261 37-11 10-24 15-27 11z"/></g><path fill="#B05E30" d="M9924 5119a4806 4806 0 1 1-9613 0 4806 4806 0 0 1 9613 0ZM2824 8597c-11-91 16-158 90-233 52-52 74-66 123-80 59-18 59-18 26-73-116-192-68-392 115-485 27-13 65-28 86-31 27-6 36-11 31-23-35-91-31-213 8-295 45-91 181-207 244-207 32 0 36-15 14-58-26-50-44-153-35-200 13-69 67-158 117-191 27-17 27-17-49-66a1231 1231 0 0 1-473-612c-16-49-33-74-73-113-71-69-83-65-117 36a747 747 0 0 1-411 465c-89 37-206 49-291 29a515 515 0 0 1-315-244c-29-56-29-56-105-56a423 423 0 0 1-428-330c-8-39-8-71-1-108 10-53 10-53-53-127a545 545 0 0 1-151-370c0-94 28-190 76-256 24-34 28-46 19-58-52-74-66-109-69-172-2-37 1-84 8-105 15-45 81-113 133-137 38-18 38-18-3-63-67-73-95-144-95-240 0-72 3-86 30-129 36-59 98-108 164-132 48-17 48-17 27-62-30-66-28-169 4-236 33-67 106-137 185-176 36-17 65-33 65-35s-11-20-25-40c-38-56-58-137-52-206 14-153 146-286 316-318 29-5 56-12 60-15 5-2 11-27 13-54 12-122 141-280 293-358 88-46 217-87 307-97 56-7 56-7 32-54-57-111-38-219 56-313 53-54 140-99 188-99 16 0 17-8 14-64a376 376 0 0 1 378-390c74 0 89 4 203 62 4 2 7-11 7-30 1-80 80-176 165-197 86-22 150-11 228 39l52 30c3 0 5-10 5-22 1-69 96-178 172-199a353 353 0 0 1 312 66c34 26 34 26 76-18 23-26 70-60 108-78 60-30 76-34 147-34 95 1 151 22 218 84 44 40 44 40 86-3 99-101 230-128 344-72 32 15 72 45 89 66 32 38 32 38 68 11 62-48 105-70 170-87 145-37 287 31 335 162l20 51c0 1 27-11 59-27 75-38 175-42 243-9 91 44 142 140 129 244-6 55-6 55 20 45 37-14 139-12 177 4 38 15 84 66 93 102 5 18 11 23 23 18 85-35 181-44 253-22 22 6 62 31 88 55 74 67 98 161 66 265-13 45-13 45 56 52 134 12 253 68 342 162 103 107 142 260 91 357-14 27-14 27 28 27 146 0 289 85 358 212 30 57 34 72 36 153 2 90 2 90 51 96a533 533 0 0 1 415 307c37 77 41 92 45 185 2 56 0 119-6 139-10 38-10 38 65 90 131 91 203 206 211 339 5 90-8 136-52 187-22 25-27 37-17 40a399 399 0 0 1 198 309c8 99-21 193-79 258-17 20-17 23 21 97 50 100 65 175 59 290-8 138-50 230-162 355-46 51-47 53-37 90 30 107 1 256-70 362a620 620 0 0 1-207 189 643 643 0 0 1-229 59c-84 6-84 6-121 82a523 523 0 0 1-205 220 566 566 0 0 1-497-16 749 749 0 0 1-289-291c-46-90-87-235-98-344-5-58-9-68-25-68-23 0-33 25-48 123a972 972 0 0 1-368 617c-67 51-67 51-7 113 73 76 131 185 145 277 16 105-12 228-70 310-20 28-20 28 12 35 65 14 178 76 237 131a374 374 0 0 1 97 435c-5 12 8 25 52 52a551 551 0 0 1 237 622c-8 27-12 51-10 53 6 6 104-77 178-150 57-56 57-57 57-116 0-152-80-332-201-454-77-77-77-77-72-140 6-81-17-190-58-274a692 692 0 0 0-213-234c-37-24-54-40-50-50 3-8 10-49 15-91 18-129-12-260-85-382-34-56-34-56-14-74 11-10 50-55 85-100 36-46 70-83 78-83 7 0 34 25 61 57a912 912 0 0 0 457 278c107 24 304 17 397-13a685 685 0 0 0 346-270c37-58 39-60 91-66a736 736 0 0 0 613-707c0-74 1-77 43-130 56-73 114-198 133-290 24-112 15-272-20-369-15-41-28-82-28-90s12-46 27-85c66-174 32-391-83-526-33-38-34-41-23-84 14-56 14-169 0-237a643 643 0 0 0-172-302c-80-81-80-81-84-161a730 730 0 0 0-459-652c-44-13-56-22-60-42a592 592 0 0 0-349-418c-48-18-48-18-65-88a653 653 0 0 0-414-461c-60-22-60-22-76-85a435 435 0 0 0-440-349c-44 0-82-5-85-10-11-19-105-61-158-71-51-11-53-12-77-67a522 522 0 0 0-215-217c-53-26-73-30-175-33-114-4-115-4-150-37a489 489 0 0 0-546-87c-41 21-41 21-87-4a489 489 0 0 0-435-4c-62 29-62 29-130 2-60-23-81-26-192-27-138 0-190 12-273 65-46 29-46 29-119 3-65-22-84-25-180-21-99 4-113 7-181 41-40 20-94 54-119 77-46 40-46 40-166 43-111 3-124 5-183 34-35 18-90 55-121 83-57 50-57 50-155 54-103 4-193 28-245 66-15 11-32 20-37 20-24 0-137 98-179 154-53 73-77 123-99 210-14 58-19 67-52 82a581 581 0 0 0-171 163c-38 61-70 153-70 205 0 23-4 46-8 52-4 5-36 21-72 33a838 838 0 0 0-485 414c-32 69-37 74-85 91-27 10-53 22-55 27-3 5-21 16-40 25a632 632 0 0 0-201 228c-43 92-61 200-47 287 10 64 10 64-53 132a541 541 0 0 0-154 359c0 43-4 50-63 110-34 35-74 88-89 118a488 488 0 0 0-14 382c26 62 26 63 7 88-10 15-31 51-47 80-40 78-46 211-14 309 22 69 22 69-4 140a708 708 0 0 0 107 666c40 54 45 67 51 133a621 621 0 0 0 508 560c88 17 88 17 137 78a670 670 0 0 0 630 240 823 823 0 0 0 464-254c53-56 84-82 100-82 17 1 34 21 77 93 41 69 84 121 171 207 115 115 115 115 95 160-15 35-21 72-24 163-2 64-8 117-12 117-18 0-120 104-156 157-50 76-73 140-87 247-12 87-13 90-47 109-141 77-241 278-227 457 3 42 11 89 17 104 10 27 7 32-52 90a417 417 0 0 0-126 204c-10 42-10 42 50 93 57 50 140 117 146 118l-4-52zm2516-1537c104-30 173-72 255-155 153-156 230-371 191-535-8-35-14-66-12-67 2-2 27 2 56 8 125 27 253-11 343-103 31-32 57-64 57-71s-24-21-52-31c-49-16-56-16-97-2-58 21-181 20-303-3-53-10-102-15-108-11-9 5 0 42 31 131 42 117 44 130 44 234 0 101-2 115-28 168a672 672 0 0 1-181 206 745 745 0 0 1-417 138c-322 15-550-125-574-351-8-76 9-271 35-390 11-49 20-96 20-103 0-18-24-16-127 8-72 17-105 20-183 15l-115-7c-25-1-115 31-115 40a320 320 0 0 0 189 171 495 495 0 0 0 257 2c1 2-2 49-8 105-7 75-7 119 2 171 37 220 212 389 465 448 86 20 278 12 375-16zm-211-923c1-227-2-288-11-285-16 6-23 257-12 468 11 229 23 137 23-183zm166-480c120-33 184-87 324-274 63-83 86-124 103-177 25-81 20-160-13-231a393 393 0 0 0-184-164c-194-73-647-67-848 10a296 296 0 0 0-201 284c1 104 27 159 149 315 141 181 185 215 320 246 72 17 275 11 350-9zm-1655-932c47-8 119-15 161-15 73 0 78-1 95-27 46-71 176-165 278-201 58-20 84-23 163-20 88 3 93 2 93-17 0-31-26-110-55-167-146-290-446-388-697-227a517 517 0 0 0-204 534c19 80 52 155 68 155 7 0 51-7 98-15zm3114-33c58-114 72-276 37-410a492 492 0 0 0-321-342c-53-18-82-21-165-18-87 3-108 7-165 34a600 600 0 0 0-325 409c-23 97-29 91 90 87 153-6 254 26 340 107 37 35 47 39 127 49 92 12 199 49 290 101 29 17 56 31 60 31s19-22 32-48z" style="transform:none"/><g fill="#C26B33" style="transform:none"><path d="M9924 5119a4806 4806 0 1 1-9613 0 4806 4806 0 0 1 9613 0ZM2824 8597c-11-91 16-158 90-233 52-52 74-66 123-80 59-18 59-18 26-73-116-192-68-392 115-485 27-13 65-28 86-31 27-6 36-11 31-23-35-91-31-213 8-295 45-91 181-207 244-207 32 0 36-15 14-58-37-73-48-208-21-252 6-10 14-7 31 9 41 38 200 110 292 133 84 20 89 24 122 68 130 177 327 282 610 325 118 18 392 20 485 4 36-6 171-12 300-13 254-2 290-7 452-66 160-58 306-156 423-282 64-70 64-70 127-63 114 12 207-24 332-130 65-55 65-55 91-10 79 134 77 319-4 447-30 47-30 47 2 53 64 14 177 76 236 131a374 374 0 0 1 97 435c-5 12 8 25 52 52a551 551 0 0 1 237 622c-8 27-12 51-10 53 6 6 104-77 178-150 57-56 57-57 57-116 0-152-80-332-201-454-77-77-77-77-72-140 6-81-17-190-58-274a692 692 0 0 0-213-234c-37-24-54-40-50-50 3-8 10-49 15-91 18-129-12-260-85-382-34-56-34-56-14-74 11-10 50-55 85-100 36-46 70-83 78-83 7 0 34 25 61 57a912 912 0 0 0 457 278c107 24 304 17 397-13a685 685 0 0 0 346-270c37-58 39-60 91-66a736 736 0 0 0 613-707c0-74 1-77 43-130 56-73 114-198 133-290 24-112 15-272-20-369-15-41-28-82-28-90s12-46 27-85c66-174 32-391-83-526-33-38-34-41-23-84 14-56 14-169 0-237a643 643 0 0 0-172-302c-80-81-80-81-84-161a730 730 0 0 0-459-652c-44-13-56-22-60-42a592 592 0 0 0-349-418c-48-18-48-18-65-88a653 653 0 0 0-414-461c-60-22-60-22-76-85a435 435 0 0 0-440-349c-44 0-82-5-85-10-11-19-105-61-158-71-51-11-53-12-77-67a522 522 0 0 0-215-217c-53-26-73-30-175-33-114-4-115-4-150-37a489 489 0 0 0-546-87c-41 21-41 21-87-4a489 489 0 0 0-435-4c-62 29-62 29-130 2-60-23-81-26-192-27-138 0-190 12-273 65-46 29-46 29-119 3-65-22-84-25-180-21-99 4-113 7-181 41-40 20-94 54-119 77-46 40-46 40-166 43-111 3-124 5-183 34-35 18-90 55-121 83-57 50-57 50-155 54-103 4-193 28-245 66-15 11-32 20-37 20-24 0-137 98-179 154-53 73-77 123-99 210-14 58-19 67-52 82a581 581 0 0 0-171 163c-38 61-70 153-70 205 0 23-4 46-8 52-4 5-36 21-72 33a838 838 0 0 0-485 414c-32 69-37 74-85 91-27 10-53 22-55 27-3 5-21 16-40 25a632 632 0 0 0-201 228c-43 92-61 200-47 287 10 64 10 64-53 132a541 541 0 0 0-154 359c0 43-4 50-63 110-34 35-74 88-89 118a488 488 0 0 0-14 382c26 62 26 63 7 88-10 15-31 51-47 80-40 78-46 211-14 309 22 69 22 69-4 140a708 708 0 0 0 107 666c40 54 45 67 51 133a621 621 0 0 0 508 560c88 17 88 17 137 78a670 670 0 0 0 630 240 823 823 0 0 0 464-254c53-56 84-82 100-82 17 1 34 21 77 93 41 69 84 121 171 207 115 115 115 115 95 160-15 35-21 72-24 163-2 64-8 117-12 117-18 0-120 104-156 157-50 76-73 140-87 247-12 87-13 90-47 109-141 77-241 278-227 457 3 42 11 89 17 104 10 27 7 32-52 90a417 417 0 0 0-126 204c-10 42-10 42 50 93 57 50 140 117 146 118l-4-52z"/><path d="M4625 7165c-188-34-359-111-454-204-32-31-64-67-72-80-14-21-26-26-93-32-43-4-110-17-149-29-87-26-199-86-195-105 2-7-32-36-75-64a1239 1239 0 0 1-466-608c-16-49-33-74-73-113-71-69-83-65-117 36a747 747 0 0 1-411 465c-89 37-206 49-291 29a515 515 0 0 1-315-244c-29-56-29-56-105-56a423 423 0 0 1-428-330c-8-39-8-71-1-108 10-53 10-53-53-127a545 545 0 0 1-151-370c0-94 28-190 76-256 24-34 28-46 19-58-52-74-66-109-69-172-2-37 1-84 8-105 15-45 81-113 133-137 38-18 38-18-3-63-67-73-95-144-95-240 0-72 3-86 30-129 36-59 98-108 164-132 48-17 48-17 27-62-30-66-28-169 4-236 33-67 106-137 185-176 36-17 65-33 65-35s-11-20-25-40c-38-56-58-137-52-206 14-153 146-286 316-318 29-5 56-12 60-15 5-2 11-27 13-54 12-122 141-280 293-358 88-46 217-87 307-97 56-7 56-7 32-54-57-111-38-219 56-313 53-54 140-99 188-99 16 0 17-8 14-64a376 376 0 0 1 378-390c74 0 89 4 203 62 4 2 7-11 7-30 1-80 80-176 165-197 86-22 150-11 228 39l52 30c3 0 5-10 5-22 1-69 96-178 172-199a353 353 0 0 1 312 66c34 26 34 26 76-18 23-26 70-60 108-78 60-30 76-34 147-34 95 1 151 22 218 84 44 40 44 40 86-3 99-101 230-128 344-72 32 15 72 45 89 66 32 38 32 38 68 11 62-48 105-70 170-87 145-37 287 31 335 162l20 51c0 1 27-11 59-27 75-38 175-42 243-9 91 44 142 140 129 244-6 55-6 55 20 45 37-14 139-12 177 4 38 15 84 66 93 102 5 18 11 23 23 18 85-35 181-44 253-22 22 6 62 31 88 55 74 67 98 161 66 265-13 45-13 45 56 52 134 12 253 68 342 162 103 107 142 260 91 357-14 27-14 27 28 27 146 0 289 85 358 212 30 57 34 72 36 153 2 90 2 90 51 96a533 533 0 0 1 415 307c37 77 41 92 45 185 2 56 0 119-6 139-10 38-10 38 65 90 131 91 203 206 211 339 5 90-8 136-52 187-22 25-27 37-17 40a399 399 0 0 1 198 309c8 99-21 193-79 258-17 20-17 23 21 97 50 100 65 175 59 290-8 138-50 230-162 355-46 51-47 53-37 90 30 107 1 256-70 362a620 620 0 0 1-207 189 643 643 0 0 1-229 59c-84 6-84 6-121 82a523 523 0 0 1-205 220 566 566 0 0 1-497-16 749 749 0 0 1-289-291c-46-90-87-235-98-344-5-58-9-68-25-68-23 0-33 25-48 123a963 963 0 0 1-358 609c-37 29-95 78-128 109-79 72-143 103-209 103-28-1-64-8-80-17-30-15-30-15-112 64a1240 1240 0 0 1-638 315c-99 18-317 15-387-6-29-8-56-7-119 5-99 18-334 19-434 0zm715-105c104-30 173-72 255-155 153-156 230-371 191-535-8-35-14-66-12-67 2-2 27 2 56 8 125 27 253-11 343-103 31-32 57-64 57-71s-24-21-52-31c-49-16-56-16-97-2-58 21-181 20-303-3-53-10-102-15-108-11-9 5 0 42 31 131 42 117 44 130 44 234 0 101-2 115-28 168a672 672 0 0 1-181 206 745 745 0 0 1-417 138c-322 15-550-125-574-351-8-76 9-271 35-390 11-49 20-96 20-103 0-18-24-16-127 8-72 17-105 20-183 15l-115-7c-25-1-115 31-115 40a320 320 0 0 0 189 171 495 495 0 0 0 257 2c1 2-2 49-8 105-7 75-7 119 2 171 37 220 212 389 465 448 86 20 278 12 375-16zm-211-923c1-227-2-288-11-285-16 6-23 257-12 468 11 229 23 137 23-183zm166-480c120-33 184-87 324-274 63-83 86-124 103-177 25-81 20-160-13-231a393 393 0 0 0-184-164c-194-73-647-67-848 10a296 296 0 0 0-201 284c1 104 27 159 149 315 141 181 185 215 320 246 72 17 275 11 350-9zm1900-524c16-60 32-113 37-119s26-14 47-18c45-7 74-32 38-32-12 0-24 3-27 7-3 3-15 9-27 13-18 6-22 4-17-8 3-9 11-16 17-16 7 0 7-3 2-9-16-14-84-1-89 18l-32 109c-26 89-27 94-11 127 9 19 21 35 26 35 4 0 21-48 36-107zm-3555-408c47-8 119-15 161-15 73 0 78-1 95-27 46-71 176-165 278-201 58-20 84-23 163-20 88 3 93 2 93-17 0-31-26-110-55-167-146-290-446-388-697-227a517 517 0 0 0-204 534c19 80 52 155 68 155 7 0 51-7 98-15zm3114-33c58-114 72-276 37-410a492 492 0 0 0-321-342c-53-18-82-21-165-18-87 3-108 7-165 34a600 600 0 0 0-325 409c-23 97-29 91 90 87 153-6 254 26 340 107 37 35 47 39 127 49 92 12 199 49 290 101 29 17 56 31 60 31s19-22 32-48z"/></g><g fill="#D27437" style="transform:none"><path d="M9924 5119a4806 4806 0 1 1-9613 0 4806 4806 0 0 1 9613 0ZM2824 8597c-11-91 16-158 90-233 52-52 74-66 123-80 59-18 59-18 26-73-116-192-68-392 115-485 27-13 65-28 86-31 27-6 36-11 31-23-35-91-31-213 8-295 45-91 181-207 244-207 32 0 36-15 14-58-37-73-48-208-21-252 6-10 14-7 31 9 41 38 200 110 292 133 84 20 89 24 122 68 130 177 327 282 610 325 118 18 392 20 485 4 36-6 171-12 300-13 254-2 290-7 452-66 160-58 306-156 423-282 64-70 64-70 127-63 114 12 207-24 332-130 65-55 65-55 91-10 79 134 77 319-4 447-30 47-30 47 2 53 64 14 177 76 236 131a374 374 0 0 1 97 435c-5 12 8 25 52 52a551 551 0 0 1 237 622c-8 27-12 51-10 53 6 6 104-77 178-150 57-56 57-57 57-116 0-152-80-332-201-454-77-77-77-77-72-140 6-81-17-190-58-274a692 692 0 0 0-213-234c-37-24-54-40-50-50 3-8 10-49 15-91 18-129-12-260-85-382-34-56-34-56-14-74 11-10 50-55 85-100 36-46 70-83 78-83 7 0 34 25 61 57a912 912 0 0 0 457 278c107 24 304 17 397-13a685 685 0 0 0 346-270c37-58 39-60 91-66a736 736 0 0 0 613-707c0-74 1-77 43-130 56-73 114-198 133-290 24-112 15-272-20-369-15-41-28-82-28-90s12-46 27-85c66-174 32-391-83-526-33-38-34-41-23-84 14-56 14-169 0-237a643 643 0 0 0-172-302c-80-81-80-81-84-161a730 730 0 0 0-459-652c-44-13-56-22-60-42a592 592 0 0 0-349-418c-48-18-48-18-65-88a653 653 0 0 0-414-461c-60-22-60-22-76-85a435 435 0 0 0-440-349c-44 0-82-5-85-10-11-19-105-61-158-71-51-11-53-12-77-67a522 522 0 0 0-215-217c-53-26-73-30-175-33-114-4-115-4-150-37a489 489 0 0 0-546-87c-41 21-41 21-87-4a489 489 0 0 0-435-4c-62 29-62 29-130 2-60-23-81-26-192-27-138 0-190 12-273 65-46 29-46 29-119 3-65-22-84-25-180-21-99 4-113 7-181 41-40 20-94 54-119 77-46 40-46 40-166 43-111 3-124 5-183 34-35 18-90 55-121 83-57 50-57 50-155 54-103 4-193 28-245 66-15 11-32 20-37 20-24 0-137 98-179 154-53 73-77 123-99 210-14 58-19 67-52 82a581 581 0 0 0-171 163c-38 61-70 153-70 205 0 23-4 46-8 52-4 5-36 21-72 33a838 838 0 0 0-485 414c-32 69-37 74-85 91-27 10-53 22-55 27-3 5-21 16-40 25a632 632 0 0 0-201 228c-43 92-61 200-47 287 10 64 10 64-53 132a541 541 0 0 0-154 359c0 43-4 50-63 110-34 35-74 88-89 118a488 488 0 0 0-14 382c26 62 26 63 7 88-10 15-31 51-47 80-40 78-46 211-14 309 22 69 22 69-4 140a708 708 0 0 0 107 666c40 54 45 67 51 133a621 621 0 0 0 508 560c88 17 88 17 137 78a670 670 0 0 0 630 240 823 823 0 0 0 464-254c53-56 84-82 100-82 17 1 34 21 77 93 41 69 84 121 171 207 115 115 115 115 95 160-15 35-21 72-24 163-2 64-8 117-12 117-18 0-120 104-156 157-50 76-73 140-87 247-12 87-13 90-47 109-141 77-241 278-227 457 3 42 11 89 17 104 10 27 7 32-52 90a417 417 0 0 0-126 204c-10 42-10 42 50 93 57 50 140 117 146 118l-4-52zm1953-748c51-24 154-133 183-193 20-42 28-144 14-180-12-32-31-15-43 38-14 65-45 103-181 221-95 82-118 116-87 128 27 12 73 6 114-14z"/><path d="M4625 7165c-188-34-359-111-454-204-32-31-64-67-72-80-14-21-26-26-93-32-43-4-110-17-149-29-87-26-199-86-195-105 2-7-32-36-75-64a1228 1228 0 0 1-483-668c1-1 21 3 44 9 30 7 54 7 84 0 42-11 42-11 109 53 43 40 96 77 145 102 76 37 81 38 189 38 86 0 117-4 143-18 36-20 41-46 14-70-24-22-72-23-72-1 0 14-12 16-78 13-65-3-89-10-146-38a476 476 0 0 1-260-391c-8-58-14-95-15-83-1 31-21 39-21 9 0-14-4-26-9-26-16 0-41 78-47 149-7 70-7 70-41 28-156-187-148-480 20-727a781 781 0 0 1 331-269c74-27 215-51 307-51 73 0 78-1 95-27 24-39 78-88 148-136a475 475 0 0 1 479-42c15 6 17-1 17-81-1-192-71-357-203-479a498 498 0 0 0-427-146 503 503 0 0 0-266 116c-53 41-86 58-130 68-56 13-59 15-71 53-16 53-16 118 0 157 17 39 11 189-8 227-7 14-29 41-49 59-31 31-36 41-36 83 0 39-6 54-29 80-27 31-34 33-93 33-35 0-73-4-85-8-20-7-28-1-64 57-23 36-45 66-49 66-5 0-21-25-36-56-27-55-27-55-6-107 23-55 28-87 13-87-5 0-11 11-15 23-3 13-20 41-37 63-36 46-35 72 5 161 14 30 26 70 26 88 0 33-79 207-100 220-22 14-99-45-147-113-42-59-71-137-82-220-8-67-8-67-26-27-30 63-27 176 7 240 29 56 112 140 175 176 23 13 44 31 46 39s0 60-4 115a855 855 0 0 0 72 449c49 98 32 204-55 361-142 253-410 398-637 345a515 515 0 0 1-315-244c-29-56-29-56-105-56a423 423 0 0 1-428-330c-8-39-8-71-1-108 10-53 10-53-53-127a545 545 0 0 1-151-370c0-94 28-190 76-256 24-34 28-46 19-58-52-74-66-109-69-172-2-37 1-84 8-105 15-45 81-113 133-137 38-18 38-18-3-63-67-73-95-144-95-240 0-72 3-86 30-129 36-59 98-108 164-132 48-17 48-17 27-62-30-66-28-169 4-236 33-67 106-137 185-176 36-17 65-33 65-35s-11-20-25-40c-38-56-58-137-52-206 14-153 146-286 316-318 29-5 56-12 60-15 5-2 11-27 13-54 12-122 141-280 293-358 88-46 217-87 307-97 56-7 56-7 32-54-57-111-38-219 56-313 53-54 140-99 188-99 16 0 17-8 14-64a376 376 0 0 1 378-390c74 0 89 4 203 62 4 2 7-11 7-30 1-80 80-176 165-197 86-22 150-11 228 39l52 30c3 0 5-10 5-22 1-69 96-178 172-199a353 353 0 0 1 312 66c34 26 34 26 76-18 23-26 70-60 108-78 60-30 76-34 147-34 95 1 151 22 218 84 44 40 44 40 86-3 99-101 230-128 344-72 32 15 72 45 89 66 32 38 32 38 68 11 62-48 105-70 170-87 145-37 287 31 335 162l20 51c0 1 27-11 59-27 75-38 175-42 243-9 91 44 142 140 129 244-6 55-6 55 20 45 37-14 139-12 177 4 38 15 84 66 93 102 5 18 11 23 23 18 85-35 181-44 253-22 22 6 62 31 88 55 74 67 98 161 66 265-13 45-13 45 56 52 134 12 253 68 342 162 103 107 142 260 91 357-14 27-14 27 28 27 146 0 289 85 358 212 30 57 34 72 36 153 2 90 2 90 51 96a533 533 0 0 1 415 307c37 77 41 92 45 185 2 56 0 119-6 139-10 38-10 38 65 90 131 91 203 206 211 339 5 90-8 136-52 187-22 25-27 37-17 40a399 399 0 0 1 198 309c8 99-21 193-79 258-17 20-17 23 21 97 50 100 65 175 59 290-8 138-50 230-162 355-46 51-47 53-37 90 30 107 1 256-70 362a620 620 0 0 1-207 189 643 643 0 0 1-229 59c-84 6-84 6-121 82-104 214-309 308-557 256a580 580 0 0 1-306-174 712 712 0 0 1-198-360c-25-106-41-247-29-259 5-5 11-28 14-51s10-54 15-69c18-46 20-94 8-169-8-48-16-73-25-73-7 0-19-18-25-41-12-38-14-40-26-23-13 18-14 18-19-4-4-12-9-22-13-22s-15-21-26-46c-15-37-20-43-26-28s-12 8-33-36c-14-30-34-66-45-80-20-25-20-25-6 35 42 173 44 343 7 460-47 149-157 293-263 343-44 22-155 49-164 41-2-3 8-29 22-59 23-47 27-68 28-146 0-96-15-147-42-137-8 3-12 12-9 19 3 8 2 14-2 14-8 0-48 91-44 103 1 4-5 10-14 14-13 5-13 7-2 14 7 5 8 9 2 9s-9 10-7 23c11 56-100 157-150 137-12-5-16-9-9-9 6-1 12-7 12-15s7-17 16-20c26-10 10-18-20-10-17 4-25 11-22 20 3 7 1 16-4 19-18 11-10 25 13 25 20 0 20 1-6 15-32 17-87 10-87-11 0-19-25-18-41 2-10 13-10 17 2 25 9 6 4 7-16 3-16-3-50 2-74 10-58 21-181 20-303-3-53-10-102-15-108-11-9 5 0 42 31 131 42 117 44 130 44 234 0 101-2 115-28 168a672 672 0 0 1-181 206 745 745 0 0 1-417 138c-322 15-550-125-574-351-8-76 9-271 35-390 11-49 20-96 20-103 0-18-24-16-127 8-72 17-105 20-183 15l-115-7c-25-1-115 31-115 40a320 320 0 0 0 189 171 495 495 0 0 0 257 2c1 2-2 49-8 105a526 526 0 0 0 122 425c58 67 176 142 273 175 73 24 97 27 222 27 227 1 348-45 480-179 153-156 230-371 191-535-8-35-14-66-12-67 2-2 27 2 56 8 69 15 151 7 225-21 45-17 75-39 120-84 62-64 79-73 177-100 57-16 57-16 103 16 45 32 50 33 143 33 88 0 103-3 162-31 74-35 161-111 217-187 47-66 47-66 90-53 35 11 35 11 29 66a984 984 0 0 1-364 641c-37 29-95 79-128 110-79 72-143 103-209 103-28-1-64-8-80-17-30-15-30-15-112 64a1240 1240 0 0 1-638 315c-99 18-317 15-387-6-29-8-56-7-119 5-99 18-334 19-434 0zm504-1028c1-227-2-288-11-285-16 6-23 257-12 468 11 229 23 137 23-183zm166-480c120-33 184-87 324-274 63-83 86-124 103-177 25-81 20-160-13-231a393 393 0 0 0-184-164c-194-73-647-67-848 10a296 296 0 0 0-201 284c1 104 27 159 149 315 141 181 185 215 320 246 72 17 275 11 350-9zm1900-524c30-116 39-133 64-133 166-1 294-244 247-470-21-99-21-97 18-110 19-6 51-29 71-52 44-48 42-60-16-156-23-40-40-80-41-101-3-76 5-137 23-173 21-41 24-93 9-132-7-19-6-26 3-26 6 0 4-5-6-11-26-15-36-3-30 36 13 79-50 165-120 165-22 0-27 4-23 18 34 122-2 219-98 258-47 20-56 37-56 113 0 67-53 155-125 208-30 22-30 22-4 23 15 0 49-15 75-32 66-45 106-123 106-211-1-62-1-62 49-85 27-13 62-40 77-60 25-32 27-43 27-123 0-86 1-88 25-92 14-3 26-4 27-3 2 2-2 29-8 61-13 74 0 131 47 202 18 29 34 59 34 67 0 22-57 64-96 72-36 7-36 7-28 83 16 148 1 261-49 354-39 74-80 105-157 120-38 7-62 17-64 27l-32 108c-26 89-27 94-11 127 9 19 21 35 26 35 4 0 21-48 36-107zm-217-290c13-52 22-126 23-181 2-93 2-93-36-132-36-37-37-41-33-94 5-55 5-55-31-63-35-9-36-10-35-55 0-45-1-47-42-64-53-22-71-58-83-170-19-179-143-306-356-365-72-19-86-20-169-10a528 528 0 0 0-396 263 812 812 0 0 0-126 461c7 53 9 57 34 57 15-1 45-9 67-20 58-28 213-28 296 0 72 25 100 41 154 90 36 34 48 38 127 48 98 12 203 51 309 112 80 48 214 152 236 186 26 41 39 28 61-63z"/></g><g fill="#E68440" style="transform:none"><path d="M9924 5119a4806 4806 0 1 1-9613 0 4806 4806 0 0 1 9613 0ZM4188 8849c39-15 24-24-70-42-220-41-365-162-399-329l-14-74c-3-12-14-24-25-27-27-7-40 25-40 97 0 181 156 351 355 386 53 9 155 3 193-11zm1302-80c25-5 56-18 70-27 24-17 23-17-75-22-124-7-162-26-222-111-24-32-47-59-52-59s-12 14-16 30c-14 64 58 147 157 181 61 21 77 22 138 8zm-755-95c15-16 14-20-23-58-92-96-114-152-116-296-1-124-10-133-77-73a252 252 0 0 0 71 426c48 21 124 21 145 1zm-1911-77c-11-91 16-158 90-233 52-52 74-66 123-80 59-18 59-18 26-73-116-192-68-392 115-485 27-13 65-28 86-31 27-6 36-11 31-23-35-91-31-213 8-295 45-90 181-207 243-207 11 0 25-5 31-11 24-24 85 22 140 106 29 43 77 104 108 135 30 31 55 62 55 68 0 7-28 12-72 14-41 2-73 7-72 13 1 19 63 53 109 60 25 3 77 6 115 6 108 0 137 31 199 221 25 76 40 104 66 127 30 26 89 51 120 51 46 0 135-53 135-80 0-5-35-9-77-8-80 2-123-6-123-23 0-5 19-9 43-9 23 0 74-12 112-26l87-31c10-3 38 15 77 51 49 45 67 56 95 56 19 0 75 13 125 30 88 28 91 29 138 13 26-9 54-20 60-26 7-5 29-15 50-22 31-11 42-10 77 6 23 10 59 19 81 19 34 0 47 7 79 39 55 57 144 93 237 99 69 4 83 1 135-24 59-28 59-28-24-35-189-18-326-98-367-216-7-21-10-39-5-41s26 8 47 22c53 35 162 75 227 82 135 16 317-61 456-192 85-81 85-81 167-87 98-8 190-30 252-62 25-13 101-76 168-142 117-114 123-122 173-228l61-127c5-10 9-30 10-45 0-28 0-28 11-3 16 39 13 169-5 230-9 30-30 76-46 102-30 47-30 47 2 53 64 14 177 76 236 131a374 374 0 0 1 97 435c-5 12 8 25 52 52a551 551 0 0 1 237 622c-8 27-12 51-10 53 6 6 104-77 178-150 57-56 57-57 57-116 0-152-80-332-201-454-77-77-77-77-72-140 6-81-17-190-58-274a692 692 0 0 0-213-234c-37-24-54-40-50-50 3-8 10-49 15-91 18-129-12-260-85-382-34-56-34-56-14-74 11-10 50-55 85-100 36-46 70-83 78-83 7 0 34 25 61 57a912 912 0 0 0 457 278c107 24 304 17 397-13a685 685 0 0 0 346-270c37-58 39-60 91-66a736 736 0 0 0 613-707c0-74 1-77 43-130 56-73 114-198 133-290 24-112 15-272-20-369-15-41-28-82-28-90s12-46 27-85c66-174 32-391-83-526-33-38-34-41-23-84 14-56 14-169 0-237a643 643 0 0 0-172-302c-80-81-80-81-84-161a730 730 0 0 0-459-652c-44-13-56-22-60-42a592 592 0 0 0-349-418c-48-18-48-18-65-88a653 653 0 0 0-414-461c-60-22-60-22-76-85a435 435 0 0 0-440-349c-44 0-82-5-85-10-11-19-105-61-158-71-51-11-53-12-77-67a522 522 0 0 0-215-217c-53-26-73-30-175-33-114-4-115-4-150-37a489 489 0 0 0-546-87c-41 21-41 21-87-4a489 489 0 0 0-435-4c-62 29-62 29-130 2-60-23-81-26-192-27-138 0-190 12-273 65-46 29-46 29-119 3-65-22-84-25-180-21-99 4-113 7-181 41-40 20-94 54-119 77-46 40-46 40-166 43-111 3-124 5-183 34-35 18-90 55-121 83-57 50-57 50-155 54-103 4-193 28-245 66-15 11-32 20-37 20-24 0-137 98-179 154-53 73-77 123-99 210-14 58-19 67-52 82a581 581 0 0 0-171 163c-38 61-70 153-70 205 0 23-4 46-8 52-4 5-36 21-72 33a838 838 0 0 0-485 414c-32 69-37 74-85 91-27 10-53 22-55 27-3 5-21 16-40 25a632 632 0 0 0-201 228c-43 92-61 200-47 287 10 64 10 64-53 132a541 541 0 0 0-154 359c0 43-4 50-63 110-34 35-74 88-89 118a488 488 0 0 0-14 382c26 62 26 63 7 88-10 15-31 51-47 80-40 78-46 211-14 309 22 69 22 69-4 140a708 708 0 0 0 107 666c40 54 45 67 51 133a621 621 0 0 0 508 560c88 17 88 17 137 78a670 670 0 0 0 630 240 823 823 0 0 0 464-254c53-56 84-82 100-82 17 1 34 21 77 93 41 69 84 121 171 207 115 115 115 115 95 160-15 35-21 72-24 163-2 64-8 117-12 117-18 0-120 104-156 157-50 76-73 140-87 247-12 87-13 90-47 109-141 77-241 278-227 457 3 42 11 89 17 104 10 27 7 32-52 90a417 417 0 0 0-126 204c-10 42-10 42 50 93 57 50 140 117 146 118l-4-52zm3196 22c0-28-28-53-103-90-64-33-101-61-171-131-48-49-93-87-100-85-6 2-17 15-25 29-12 21-12 33-2 69 27 95 114 177 220 205 58 16 181 18 181 3zm780-270c67-30 150-117 150-157 0-5-30 7-67 27-61 32-76 36-143 36-60 0-82-4-111-22-20-13-48-23-63-23-23 0-26 4-26 32 0 39 41 95 84 114 46 20 124 17 176-7zm-444-339a485 485 0 0 0 244-405c0-50 0-50-34 11a817 817 0 0 1-307 323c-157 107-161 117-41 108 55-4 91-14 138-37zm-2647-49c22-6 20-9-35-56-33-27-84-75-114-107-31-32-63-58-72-58-25 0-41 37-35 83 9 67 76 122 166 137 57 10 60 10 90 1z"/><path d="M4625 7165c-188-34-359-111-454-204-32-31-64-67-72-80-14-21-26-26-93-32-43-4-110-17-149-29-87-26-199-86-195-105 2-7-32-36-75-64a1228 1228 0 0 1-483-668c1-1 21 3 44 9 30 7 54 7 84 0 42-11 42-11 109 53 43 40 96 77 145 102 76 37 81 38 189 38 94 0 116-3 154-23 49-24 69-27 103-13 13 6 44 13 70 16 44 6 50 10 83 60 39 58 107 109 164 125a495 495 0 0 0 257 2c1 2-2 49-8 105a526 526 0 0 0 122 425c58 67 176 142 273 175 73 24 97 27 222 27 227 1 348-45 480-179 153-156 230-371 191-535-8-35-14-66-12-67 2-2 27 2 56 8 69 15 151 7 225-21 45-17 75-39 120-84 62-64 79-73 177-100 57-16 57-16 103 16 45 32 50 33 143 33 88 0 103-3 162-31 74-35 161-111 217-187 47-66 47-66 90-53 35 11 35 11 29 66a984 984 0 0 1-364 641c-37 29-95 79-128 110-79 72-143 103-209 103-28-1-64-8-80-17-30-15-30-15-112 64a1240 1240 0 0 1-638 315c-99 18-317 15-387-6-29-8-56-7-119 5-99 18-334 19-434 0z"/><path d="M7693 6615c-76-17-162-53-147-63 8-5 4-38-12-107-34-144-56-483-38-574 7-32 7-32 29-11 23 22 23 22 29-7 15-77 17-212 5-320-10-97-10-137 0-214 17-121 51-229 97-304 36-60 36-60 13-125-18-49-23-85-23-145 1-94 18-162 86-345 46-125 50-140 45-203-5-77-13-77 79 4 72 64 107 61 143-14 32-67 41-132 29-220-10-77-10-79 18-118 85-122 32-290-174-554-95-121-125-199-153-390-13-96-37-162-82-232-34-52-34-52-59-25-26 27-58 83-58 100 0 5 20 22 45 38 66 41 99 96 99 165 1 32 4 55 7 53 12-7 19 57 9 76-18 34-101 98-138 107s-37 9 8 40c102 71 155 154 154 243-2 102-60 176-159 201l-53 15c-2 1 6 20 18 42 31 59 35 105 15 158-19 51-62 84-108 84-22 0-27 4-23 18 34 122-2 219-98 258-47 20-56 37-56 113 0 67-53 155-125 208-30 22-30 22-4 23 15 0 49-15 75-32 66-45 106-123 106-211-1-62-1-62 49-85 27-13 62-40 77-60 25-32 27-43 27-123 0-86 1-88 25-92 14-3 26-4 27-3 2 2-2 29-8 61-13 74 0 131 47 202 18 29 34 59 34 67 0 22-57 64-96 72-36 7-36 7-28 83 16 148 1 261-49 354-39 75-80 105-157 120-59 11-61 12-71 52-5 22-20 69-31 105-21 64-21 64-37 40l-82-113c-66-88-66-88-43-177 15-58 24-122 25-185 2-97 2-97-36-135-36-37-37-41-33-94 5-55 5-55-31-63-35-9-36-10-35-55 0-45-1-47-42-64-53-22-71-58-83-170-19-179-143-306-356-365-72-19-86-20-169-10a492 492 0 0 0-263 109c-29 23-53 37-53 32 0-6-3-9-7-7-5 3-16 2-25-2-16-6-15-11 11-66 15-33 40-75 55-92 28-33 28-33 1-33-14 0-40 7-57 16-31 16-31 16-24-27 16-98 91-211 167-249 20-11 38-17 41-15 2 2 4-5 4-15 0-16-7-20-31-20-41 1-102 15-150 37-22 9-47 18-55 18s-46 11-84 23c-75 24-154 28-207 11-19-7-53-30-76-52-48-46-55-40-18 15 55 82 174 106 309 64l90-26c4 0-7 26-22 58-58 114-66 220-21 268 22 23 22 27 9 72-18 64-24 132-12 144 7 7-3 37-29 92a711 711 0 0 0-73 329c-1 103-2 109-26 127-25 20-25 20 10 12 19-4 98-7 175-7 122 1 147 4 198 24 64 25 117 65 117 87 0 8-7 29-16 46-16 31-16 31 27 22 54-11 224-12 262-1 35 10 34 18-3 41-37 21-30 36 17 36 108 0 244 61 333 150 76 77 127 168 166 295 24 79 27 107 28 235a595 595 0 0 1-285 558c-44 22-155 49-164 41-2-3 7-29 21-58 34-71 43-176 20-253-9-30-22-61-30-67-12-10-16-3-25 39-27 127-145 267-240 286-33 7-33 7-7-44 33-64 41-120 26-166-12-38-55-96-71-96-5 0-9 33-9 73 0 89-22 140-79 189-59 50-129 70-249 69-54 0-111-5-128-11-16-7-46-14-67-16-140-17-514-210-552-284-8-16-15-31-15-34 0-2 24-7 53-11 202-24 268-68 436-292 63-83 86-124 103-177 38-126 9-237-88-325-96-87-237-121-511-121-273 0-459 42-552 126a308 308 0 0 0-73 344c27 68 213 310 280 363 55 44 145 74 252 85 75 7 75 7 35 51-154 170-437 311-626 311-62 0-71-3-104-31-37-33-63-74-75-119-7-25-7-25-19-2-9 16-9 32-1 60 5 20 10 52 10 70 0 30-2 32-35 32-19 0-51-8-71-17-35-17-36-17-50 2-8 10-14 24-14 31 0 16-43 26-77 18-79-19-179-92-224-163-41-63-49-102-39-169 5-30 7-58 5-61-3-2-19 8-35 24-68 65-67 158 4 297 47 93 47 93-11 96-198 11-393-174-424-401-7-56-7-93 1-129 12-59 8-68-20-43-36 33-69 116-76 192-7 72-7 72-41 30-156-187-148-480 20-727a781 781 0 0 1 331-269c74-27 215-51 307-51 73 0 78-1 95-27 24-39 78-88 148-136a475 475 0 0 1 479-42c15 6 17-1 17-79 0-47-9-126-19-174s-24-152-30-232c-7-80-16-172-22-205-13-77-60-235-70-235-5 0-17-10-29-22-11-12-20-19-20-16l35 99c34 95 33 95-30 9-16-23-31-36-33-30s-18 0-38-15a531 531 0 0 0-704 96c0 21 30 6 84-41 111-97 176-116 353-102 95 8 129 15 168 35 54 27 119 90 154 148 21 36 101 267 101 293 0 7-37-24-83-69-140-138-277-189-447-166a503 503 0 0 0-266 116c-53 41-86 58-130 68-56 13-59 15-71 53-16 53-16 118 0 157 17 39 11 189-8 227-7 14-29 41-49 59-31 31-36 41-36 83 0 39-6 54-29 80-28 31-33 33-100 33-64 0-72-3-101-30-18-16-47-54-66-82-19-29-39-53-45-53s-35 7-65 16c-66 19-111 8-148-37-25-29-25-29 4-60 15-17 40-54 55-81 26-48 27-53 17-115-6-36-18-76-27-90-17-25-17-25-38-5-59 53-152 71-203 38-39-26-83-94-105-165a839 839 0 0 1 66-591c51-102 51-110 0-147-50-37-85-103-85-159 1-88 78-181 169-205 48-12 48-12 15-66-38-63-57-140-48-192 15-89 88-164 187-197 70-22 73-27 32-47-23-11-35-13-35-5 0 7-19 9-63 5-34-4-67-3-73 1-7 4-56 95-111 202-54 107-115 219-135 248-40 57-38 40-42 272-1 30 3 72 7 93 8 38 8 38-86 135-95 98-117 136-117 203 0 35 19 87 48 131 24 37 24 37 5 90-22 61-21 74 17 143 40 70 46 127 24 219-18 75-18 75 21 150 38 74 38 74 32 302-5 235-18 330-66 521-12 45-26 116-31 160-21 155-65 257-243 567-92 159-92 160-96 238-3 78-3 78-81 78a422 422 0 0 1-429-330c-8-39-8-71-1-108 10-53 10-53-53-127a545 545 0 0 1-151-370c0-94 28-190 76-256 24-34 28-46 19-58-52-74-66-109-69-172-2-37 1-84 8-105 15-45 81-113 133-137 38-18 38-18-3-63-67-73-95-144-95-240 0-72 3-86 30-129 36-59 98-108 164-132 48-17 48-17 27-62-30-66-28-169 4-236 33-67 106-137 185-176 36-17 65-33 65-35s-11-20-25-40c-38-56-58-137-52-206 14-153 146-286 316-318 29-5 56-12 60-15 5-2 11-27 13-54 12-122 141-280 293-358 88-46 217-87 307-97 56-7 56-7 32-54-57-111-38-219 56-313 53-54 140-99 188-99 16 0 17-8 14-64a376 376 0 0 1 378-390c74 0 89 4 203 62 4 2 7-11 7-30 1-80 80-176 165-197 86-22 150-11 228 39l52 30c3 0 5-10 5-22 1-69 96-178 172-199a353 353 0 0 1 312 66c34 26 34 26 76-18 23-26 70-60 108-78 60-30 76-34 147-34 95 1 151 22 218 84 44 40 44 40 86-3 99-101 230-128 344-72 32 15 72 45 89 66 32 38 32 38 68 11 62-48 105-70 170-87 145-37 287 31 335 162l20 51c0 1 27-11 59-27 75-38 175-42 243-9 91 44 142 140 129 244-6 55-6 55 20 45 37-14 139-12 177 4 38 15 84 66 93 102 5 18 11 23 23 18 85-35 181-44 253-22 22 6 62 31 88 55 74 67 98 161 66 265-13 45-13 45 56 52 134 12 253 68 342 162 103 107 142 260 91 357-14 27-14 27 28 27 146 0 289 85 358 212 30 57 34 72 36 153 2 90 2 90 51 96a533 533 0 0 1 415 307c37 77 41 92 45 185 2 56 0 119-6 139-10 38-10 38 65 90 131 91 203 206 211 339 5 90-8 136-52 187-22 25-27 37-17 40a399 399 0 0 1 198 309c8 99-21 193-79 258-17 20-17 23 21 97 50 100 65 175 59 290-8 138-50 230-162 355-46 51-47 53-37 90 30 107 1 256-70 362a620 620 0 0 1-207 189 643 643 0 0 1-229 59c-84 6-84 6-121 82a523 523 0 0 1-205 220 545 545 0 0 1-354 36zm-5843-630c17-20 5-33-40-45-49-13-123-93-161-175-37-78-69-201-70-267-1-42-3-48-9-28-13 41-11 152 5 203a707 707 0 0 0 198 304c36 27 59 29 77 8zm6361-75c32-17 23-47-24-79-37-25-48-41-68-98-33-94-31-200 5-355 28-121 30-158 9-165-22-8-82 70-134 172-107 213-101 382 18 472 35 27 123 62 156 63 10 0 27-5 38-10zm-6686-960c-51-76-69-141-68-245 1-111 35-225 93-313 45-67 47-74 23-65-53 18-115 114-148 227-13 44-16 86-13 165 3 97 6 113 36 174 32 64 71 107 98 107 8 0 0-19-21-50zm6839-652c11-16 16-46 16-100 0-92-30-194-91-313-65-127-65-125-21-118 37 6 37 6-3-37-22-23-57-50-77-61-37-19-73-25-66-11 84 164 161 389 185 537l19 113c5 19 21 14 38-10zm-6402-393c8-82 50-207 113-335 56-117 51-144-15-73-117 128-204 402-149 469 27 32 44 11 51-61zm2809-336c31-34 32-54 1-25-26 23-105 25-130 3-38-35-45-9-7 28 37 38 98 35 136-6z"/></g><g fill="#EA9859" style="transform:none"><path d="M5518 9201c-53-8-74-22-65-45 14-36 103-47 178-21 77 26 89 36 78 56-8 16-21 19-77 18-37-1-88-5-114-8zm-883-41c-42-9-106-44-130-70-16-18-17-23-5-30 20-13 26-12 94 8 48 14 64 25 82 54 21 32 21 36 6 40-9 2-30 1-47-2zm-970-165c-107-54-285-168-327-209-39-39-78-126-78-177 0-42 36-167 54-184 25-25 70-19 94 14 37 50 126 202 164 282 21 42 64 106 99 145 63 71 109 136 109 154 0 20-46 10-115-25zm1330-61a91 91 0 1 1-181 0 91 91 0 0 1 181 0Zm1415-11c0-5 12-26 25-48 14-22 25-50 25-62s5-25 10-28c19-12 40 17 40 55 0 50-32 90-71 90-16 0-29-3-29-7zm-598-20c-37-31-33-73 6-73 34 0 109 60 98 78s-81 14-104-5zm1235-188c-10-9-17-29-17-44 0-27 44-106 83-148 42-47 107-17 107 50 0 86-126 189-173 142zm-3308-170c-12-26-23-79-26-122-6-81-1-93 45-93 22 0 22 2 22 124 0 74-4 127-10 131s-20-14-31-40zm2551-50c-17-20-6-66 34-145 36-71 58-83 95-53 47 38 19 133-53 188-38 29-58 31-76 10zm955-97c-14-39-9-63 12-66 17-3 24 3 29 22 9 38-29 78-41 44zm-2160-20c-11-6-41-28-67-49-57-45-117-60-223-57-80 3-80 3-78-26 6-88 183-161 308-127 115 31 190 122 166 202-18 59-62 82-106 57zm1809-483c-34-23-45-65-42-156 3-84 3-84 34-87 25-2 37 3 57 28 45 53 49 178 6 213-26 21-29 21-55 2zm-2269-730c-188-34-359-111-454-204-32-31-64-67-72-80-14-21-26-26-93-32-43-4-110-17-149-29-87-26-199-86-195-105 2-7-32-36-75-64a1228 1228 0 0 1-483-668c1-1 21 3 44 9 30 7 54 7 84 0 42-11 42-11 108 51 69 65 154 116 230 138 25 7 58 23 74 36 39 32 106 65 191 94 54 18 92 24 166 24 115 0 138-11 111-53-17-27-17-27 23 4 22 17 54 38 71 47 35 18 137 37 201 37 36 0 41 3 38 20-2 11 0 20 4 20 5 0 12 12 16 27 5 21 8 24 16 12 6-9 9 12 9 61 1 263 148 462 403 547 73 24 97 27 222 27 227 1 348-45 480-179 153-156 230-371 191-535-8-35-14-66-12-67 2-2 27 2 56 8 121 26 245-10 342-99 34-32 59-52 55-45s0 13 10 16c17 4 17 5 1 6-20 1-14 31 6 31 17 0 63-50 74-81 7-17 22-29 50-37 39-12 43-11 87 20 45 32 50 33 143 33 88 0 103-3 162-31 74-35 161-111 217-187 47-66 47-66 90-53 35 11 35 11 29 66a984 984 0 0 1-364 641c-37 29-95 79-128 110-79 72-143 103-209 103-28-1-64-8-80-17-30-15-30-15-112 64a1240 1240 0 0 1-638 315c-99 18-317 15-387-6-29-8-56-7-119 5-99 18-334 19-434 0zm3415-888c0-2 13-28 30-58 16-30 30-62 30-71 0-27 27-22 34 6 11 46-37 126-76 126-10 0-18-2-18-3zm-493-64c-23-45-8-99 31-114 40-15 52-5 52 44 0 39-4 48-35 71-34 26-34 26-48-1z"/><path d="M3580 6091a475 475 0 0 1-300-513c12-59 8-68-20-43-36 33-69 116-76 192-7 72-7 72-41 30-156-187-148-480 20-727a781 781 0 0 1 331-269c74-27 215-51 307-51 73 0 78-1 95-27 24-39 78-88 148-136a475 475 0 0 1 479-42c15 6 17-1 17-79 0-47-9-126-19-174s-24-152-30-232c-17-211-45-344-106-492-6-15-2-15 31 3 49 25 76 24 124-3 40-23 40-23 57 2 38 54 61 70 103 70 50 0 81-27 116-104 25-55 25-55 59-40 82 34 174 5 227-71 32-45 32-45 74-20 32 19 55 25 96 24 29-1 42-3 28-5-55-9-106-27-135-50-32-24-32-24-56 2-71 77-188 106-256 65-17-11-34-17-38-13s-22 39-40 79c-55 119-101 128-172 33-32-43-39-48-46-32-19 34-51 62-71 62-35-1-109-39-147-76-48-47-58-29-20 38 36 64 108 253 83 220a633 633 0 0 0-158-168c-29-19-61-34-71-34-14 1-13 4 7 15 33 19 14 18-85-2-74-15-94-16-177-4l-143 20c-61 8-109 36-163 95-71 77-108 178-83 225 18 32 30 26 42-23 20-79 124-182 234-231 122-55 288-60 380-13 54 28 119 91 154 149 21 36 101 267 101 293 0 7-37-24-83-69-140-138-277-189-447-166a503 503 0 0 0-266 116c-53 41-86 58-130 68-56 13-59 15-71 53-16 53-16 118 0 157 17 39 11 189-8 227-7 14-29 41-49 59-31 31-36 41-36 83 0 39-6 54-29 80-28 31-33 33-100 33-64 0-72-3-101-30-18-16-48-54-67-84-33-51-36-53-66-45-72 17-140 0-181-45-18-20-18-21 23-82 23-34 44-72 47-84 8-31-12-133-32-163-16-24-16-24-37-4-41 37-64 44-110 32-133-35-191-149-203-400-8-146 4-206 66-340 56-122 56-120 6-157-51-37-86-102-86-159 1-88 78-181 169-205 48-12 48-12 15-66-38-63-57-140-48-192 15-89 87-164 187-197 29-9 56-19 61-22 4-2-29-24-75-48-95-49-123-78-144-148-31-102-7-184 75-267 53-54 139-99 188-99 16 0 17-8 14-64a376 376 0 0 1 378-390c74 0 89 4 203 62 4 2 7-11 7-30 1-80 80-176 165-197 86-22 150-11 228 39l52 30c3 0 5-10 5-22 1-69 96-178 172-199a353 353 0 0 1 312 66c34 26 34 26 76-18 23-26 70-60 108-78 60-30 76-34 147-34 95 1 151 22 218 84 44 40 44 40 86-3 99-101 230-128 344-72 32 15 72 45 89 66 32 38 32 38 68 11 62-48 105-70 170-87 145-37 287 31 335 162l20 51c0 1 27-11 59-27 75-38 175-42 243-9 91 44 142 140 129 244-6 55-6 55 20 45 37-14 139-12 177 4 38 15 84 66 93 102 5 18 11 23 23 18 85-35 181-44 253-22 22 6 62 31 88 55 74 67 98 161 66 265-13 45-13 45 56 52 223 21 407 167 449 359 22 103-19 208-102 257-67 41-99 70-119 111-11 21-20 42-20 47s20 22 45 38c89 56 125 152 88 236-24 54-79 109-133 133-22 10-40 21-40 24s19 17 42 30c112 64 183 166 182 261-1 102-60 176-159 201l-53 15c-2 1 6 20 18 42 31 59 35 105 15 158-19 51-62 84-108 84-22 0-27 4-23 18 34 122-2 219-98 258-47 20-56 37-56 113 0 67-53 155-125 208-30 22-30 22-4 23 15 0 49-15 75-32 66-45 106-123 106-211-1-62-1-62 49-85 27-13 62-40 77-60 25-32 27-43 27-123 0-86 1-88 25-92 14-3 26-4 27-3 2 2-2 29-8 61-13 74 0 131 47 202 18 29 34 59 34 67 0 22-57 64-96 72-36 7-36 7-28 83 16 148 1 261-49 354-39 75-80 105-157 120-59 11-61 12-71 52-5 22-20 69-31 105-21 64-21 64-37 40l-82-113c-66-88-66-88-43-177 15-58 24-122 25-185 2-97 2-97-36-135-36-37-37-41-33-94 5-55 5-55-31-63-35-9-36-10-35-55 0-45-1-47-42-64-53-22-71-58-83-170-10-98-43-165-113-234a641 641 0 0 0-373-156 527 527 0 0 0-349 117c-20 17-40 29-46 27-13-4 39-114 74-155 28-33 28-33 1-33-14 0-40 7-57 16-31 16-31 16-24-27 16-109 111-236 192-258 49-14 144-14 181-1 28 10 28 10-2-15-48-40-117-58-200-53-62 4-84 11-157 50-136 74-243 95-329 67-40-14-87-55-100-86-11-29-30-29-55-2-19 22-19 22 3 10 20-10 25-7 52 33 62 90 174 116 315 72l90-26c4 0-7 26-22 58-57 113-66 220-22 267 24 26 24 26-5 134-9 35-15 78-12 95 4 22-5 55-28 111a819 819 0 0 0-61 336c7 65 6 67-21 88-28 21-28 21 7 13 19-4 98-7 175-7 122 1 147 4 198 24 64 25 117 65 117 87 0 8-7 29-16 46-16 31-16 31 27 22 54-11 224-12 262-1 35 10 34 18-3 41-37 21-30 36 17 36 108 0 244 61 333 150 76 77 127 168 166 295 24 79 27 107 28 235a595 595 0 0 1-285 558c-44 22-155 49-164 41-2-3 7-29 21-58 34-71 43-176 20-253-9-30-22-61-30-67-12-10-16-3-25 39-27 127-145 267-240 286-33 7-33 7-7-44 33-64 41-120 26-166-12-38-55-96-71-96-5 0-9 33-9 73 0 89-22 140-79 189-59 50-129 70-249 69-54 0-111-5-128-11-16-7-46-14-67-16-140-17-514-210-552-284-8-16-15-31-15-34 0-2 24-7 53-11 202-24 268-68 436-292 63-83 86-124 103-177 38-126 9-237-88-325-96-87-237-121-511-121-273 0-459 42-552 126a308 308 0 0 0-73 344c27 68 213 310 280 363 55 44 145 74 252 85 75 7 75 7 35 51-154 170-437 311-626 311-62 0-71-3-104-31-37-33-63-74-75-119-7-25-7-25-19-2-9 16-9 32-1 60 5 20 10 52 10 70 0 30-2 32-35 32-19 0-51-8-71-17-35-17-36-17-50 2-8 10-14 24-14 31 0 16-43 26-77 18-79-19-179-92-224-163-41-63-49-102-39-169 5-30 7-58 5-61-3-2-19 8-35 24-64 62-66 162-6 278 66 124 66 117-12 117-39-1-85-8-112-19zm4918-102c-27-15-21-56 21-139 45-89 69-101 101-48 11 18 20 46 20 61 0 41-36 104-70 122-34 17-48 18-72 4zm-6779-116a581 581 0 0 1-129-341c0-111 46-242 85-242 7 0 23 9 36 19 23 18 24 23 21 152-4 134-4 134 23 109 15-14 48-52 73-85 55-73 69-85 99-85 35 0 49 37 29 83-26 64-75 114-147 152-61 32-69 40-69 65 0 28 24 166 35 202 11 31-12 20-56-29zm7002-105c21-39 15-157-9-205-30-58-29-83 3-83s71 40 97 97c21 47 17 80-15 128-45 66-104 115-76 63zm-6603-215c-34-37-40-103-36-355 4-189 9-254 22-294 21-67 39-83 66-59 31 28 50 102 60 234 14 183-12 335-78 459-17 31-19 32-34 15zm5522-127c0-113 2-136 15-136 43 0 60 141 26 216-35 77-41 65-41-80zm774-40c-12-32 7-98 59-197 52-101 52-101 52-208-1-100-3-110-38-189-60-134-45-167 45-97a492 492 0 0 1 168 448c-21 148-104 239-230 254-41 5-51 3-56-11zm-549-194a503 503 0 0 1-129-146c-17-36-21-76-8-76 4 0 40 23 81 50 58 39 82 50 113 50 57 0 78 14 78 54 0 64-78 104-135 68zm-6118-168c-23-12-28-21-25-46 2-25 18-44 76-92 44-36 93-90 121-131 26-38 55-71 64-73 26-5 51 45 51 102-1 161-171 303-287 240zm-264-179c-52-66-31-273 42-415 31-60 116-141 180-171 59-28 109-37 119-21 8 13-19 58-65 110-69 79-122 187-203 413-15 43-33 84-39 93-11 15-14 15-34-9zm7432-86c-55-41-170-154-217-213-50-63-86-133-94-185-6-39-5-41 19-41 30 0 114 66 182 142 50 57 140 230 151 291 3 20 5 37 3 37s-22-14-44-31zm-950-49a246 246 0 0 1-143-242c4-79 20-83 65-13 52 80 72 104 140 158 71 57 83 90 37 107-36 14-53 12-99-10zm-5935-288c0-18 18-55 48-98 136-195 166-306 111-416-24-47-24-58 1-58s86 109 95 172c13 84-26 189-122 336-42 62-77 92-109 92-20 0-24-5-24-28zm6470-243c-19-11-52-22-72-25-40-7-40-7-77-124-12-36-44-110-71-164-27-55-49-101-47-102 9-9 126 41 150 64 37 35 89 129 121 217 23 64 44 156 35 154-2 0-20-9-39-20zm-6734-241c-37-52-9-206 62-341 46-89 105-154 204-223 71-50 82-55 104-45 38 17 31 50-22 101a793 793 0 0 0-210 388c-27 116-44 142-95 142-17 0-34-8-43-22z"/><path d="M7552 3758c-21-21-13-34 25-46 46-14 52-9 27 25-24 32-36 37-52 21zm972-180c-16-12-49-45-74-75-25-29-94-97-154-150-110-97-142-143-125-175 41-76 270 115 357 297 52 108 51 142-4 103zm-6622-389c-16-26-8-36 58-79 51-33 150-71 162-64 26 16-63 104-149 148-42 21-56 20-71-5zm6060-211c-14-14-16-106-3-127 22-34 81 31 81 90 0 22-6 32-26 39-33 13-37 13-52-2zm-5806-114c-3-9-6-36-6-60 0-49 27-99 78-147 25-24 33-27 51-18 32 17 26 46-31 148-51 92-78 115-92 77z"/></g><g fill="#F7993B" style="transform:none"><path d="M9924 5119a4806 4806 0 1 1-9613 0 4806 4806 0 0 1 9613 0ZM5600 9335c283-34 639-117 895-210 421-153 835-394 1079-629 76-73 76-73 76-133 0-153-79-333-201-455-77-77-77-77-72-140 6-81-17-190-58-274a692 692 0 0 0-213-234c-37-24-54-40-50-50 3-8 10-49 15-91 18-129-12-260-85-382-34-56-34-56-14-74 11-10 50-55 85-100 36-46 70-83 78-83 7 0 34 25 61 57a912 912 0 0 0 457 278c107 24 304 17 397-13a685 685 0 0 0 346-270c37-58 39-60 91-66a736 736 0 0 0 613-707c0-74 1-77 43-130 56-73 114-198 133-290 24-112 15-272-20-369-15-41-28-82-28-90s12-46 27-85c66-174 32-391-83-526-33-38-34-41-23-84 14-56 14-169 0-237a643 643 0 0 0-172-302c-80-81-80-81-84-161a730 730 0 0 0-459-652c-44-13-56-22-60-42a592 592 0 0 0-349-418c-48-18-48-18-65-88a653 653 0 0 0-414-461c-60-22-60-22-76-85a435 435 0 0 0-440-349c-44 0-82-5-85-10-11-19-105-61-158-71-51-11-53-12-77-67a522 522 0 0 0-215-217c-53-26-73-30-175-33-114-4-115-4-150-37a489 489 0 0 0-546-87c-41 21-41 21-87-4a489 489 0 0 0-435-4c-62 29-62 29-130 2-60-23-81-26-192-27-138 0-190 12-273 65-46 29-46 29-119 3-65-22-84-25-180-21-99 4-113 7-181 41-40 20-94 54-119 77-46 40-46 40-166 43-111 3-124 5-183 34-35 18-90 55-121 83-57 50-57 50-155 54-103 4-193 28-245 66-15 11-32 20-37 20-24 0-137 98-179 154-53 73-77 123-99 210-14 58-19 67-52 82a581 581 0 0 0-171 163c-38 61-70 153-70 205 0 23-4 46-8 52-4 5-36 21-72 33a838 838 0 0 0-485 414c-32 69-37 74-85 91-27 10-53 22-55 27-3 5-21 16-40 25a632 632 0 0 0-201 228c-43 92-61 200-47 287 10 64 10 64-53 132a541 541 0 0 0-154 359c0 43-4 50-63 110-34 35-74 88-89 118a488 488 0 0 0-14 382c26 62 26 63 7 88-10 15-31 51-47 80-40 78-46 211-14 309 22 69 22 69-4 140a708 708 0 0 0 107 666c40 54 45 67 51 133a621 621 0 0 0 508 560c88 17 88 17 137 78a670 670 0 0 0 630 240 823 823 0 0 0 464-254c53-56 84-82 100-82 17 1 34 21 77 93 41 69 84 121 171 207 115 115 115 115 95 160-15 35-21 72-24 163-2 64-8 117-12 117-18 0-120 104-156 157-50 76-73 140-87 247-12 87-13 90-47 109-141 77-241 278-227 457 3 42 11 89 17 104 10 27 7 32-52 90a417 417 0 0 0-126 204c-10 42-10 42 47 90 275 238 637 450 991 581 316 117 684 199 1056 236 185 19 687 13 874-10z"/><path d="M3905 4265a100 100 0 1 1-200 0 100 100 0 0 1 200 0Zm2666-19a99 99 0 1 1-198 0 99 99 0 0 1 198 0Zm-172 65"/></g><g fill="#F9B35C" style="transform:none"><path d="M9612 5119a4494 4494 0 1 1-8988 0 4494 4494 0 0 1 8988 0ZM5600 9335c283-34 639-117 895-210 421-153 835-394 1079-629 76-73 76-73 76-133 0-153-79-333-201-455-77-77-77-77-72-140 6-81-17-190-58-274a692 692 0 0 0-213-234c-37-24-54-40-50-50 3-8 10-49 15-91 18-129-12-260-85-382-34-56-34-56-14-74 11-10 50-55 85-100 36-46 70-83 78-83 7 0 34 25 61 57a912 912 0 0 0 457 278c107 24 304 17 397-13a685 685 0 0 0 346-270c37-58 39-60 91-66a736 736 0 0 0 613-707c0-74 1-77 43-130 56-73 114-198 133-290 24-112 15-272-20-369-15-41-28-82-28-90s12-46 27-85c66-174 32-391-83-526-33-38-34-41-23-84 14-56 14-169 0-237a643 643 0 0 0-172-302c-80-81-80-81-84-161a730 730 0 0 0-459-652c-44-13-56-22-60-42a592 592 0 0 0-349-418c-48-18-48-18-65-88a653 653 0 0 0-414-461c-60-22-60-22-76-85a435 435 0 0 0-440-349c-44 0-82-5-85-10-11-19-105-61-158-71-51-11-53-12-77-67a522 522 0 0 0-215-217c-53-26-73-30-175-33-114-4-115-4-150-37a489 489 0 0 0-546-87c-41 21-41 21-87-4a489 489 0 0 0-435-4c-62 29-62 29-130 2-60-23-81-26-192-27-138 0-190 12-273 65-46 29-46 29-119 3-65-22-84-25-180-21-99 4-113 7-181 41-40 20-94 54-119 77-46 40-46 40-166 43-111 3-124 5-183 34-35 18-90 55-121 83-57 50-57 50-155 54-103 4-193 28-245 66-15 11-32 20-37 20-24 0-137 98-179 154-53 73-77 123-99 210-14 58-19 67-52 82a581 581 0 0 0-171 163c-38 61-70 153-70 205 0 23-4 46-8 52-4 5-36 21-72 33a838 838 0 0 0-485 414c-32 69-37 74-85 91-27 10-53 22-55 27-3 5-21 16-40 25a632 632 0 0 0-201 228c-43 92-61 200-47 287 10 64 10 64-53 132a541 541 0 0 0-154 359c0 43-4 50-63 110-34 35-74 88-89 118a488 488 0 0 0-14 382c26 62 26 63 7 88-10 15-31 51-47 80-40 78-46 211-14 309 22 69 22 69-4 140a708 708 0 0 0 107 666c40 54 45 67 51 133a621 621 0 0 0 508 560c88 17 88 17 137 78a670 670 0 0 0 630 240 823 823 0 0 0 464-254c53-56 84-82 100-82 17 1 34 21 77 93 41 69 84 121 171 207 115 115 115 115 95 160-15 35-21 72-24 163-2 64-8 117-12 117-18 0-120 104-156 157-50 76-73 140-87 247-12 87-13 90-47 109-141 77-241 278-227 457 3 42 11 89 17 104 10 27 7 32-52 90a417 417 0 0 0-126 204c-10 42-10 42 47 90 275 238 637 450 991 581 316 117 684 199 1056 236 185 19 687 13 874-10z"/><path d="M3160 4673c-27-10-71-57-107-112-33-51-36-53-66-45-72 17-140 0-181-45-18-20-18-21 23-82 23-34 44-72 47-84 8-31-12-133-32-163-16-24-16-24-37-4-41 37-64 44-110 32-133-35-191-149-203-400-8-146 4-206 66-340 56-122 56-120 6-157-51-37-86-102-86-159 1-88 78-181 169-205 48-12 48-12 15-66-38-63-57-140-48-192 15-89 87-164 187-197 29-9 56-19 61-22 4-2-29-24-75-48-95-49-123-78-144-148-31-102-7-184 75-267 53-54 139-99 188-99 16 0 17-8 14-64a376 376 0 0 1 378-390c74 0 89 4 203 62 4 2 7-11 7-30 1-80 80-176 165-197 86-22 150-11 228 39l52 30c3 0 5-10 5-22 1-69 96-178 172-199a353 353 0 0 1 312 66c34 26 34 26 76-18 23-26 70-60 108-78 60-30 76-34 147-34 95 1 151 22 218 84 44 40 44 40 86-3 99-101 230-128 344-72 32 15 72 45 89 66 32 38 32 38 68 11 62-48 105-70 170-87 145-37 287 31 335 162l20 51c0 1 27-11 59-27 75-38 175-42 243-9 91 44 142 140 129 244-6 55-6 55 20 45 37-14 139-12 177 4 38 15 84 66 93 102 5 18 11 23 23 18 85-35 181-44 253-22 22 6 62 31 88 55 74 67 98 161 66 265-13 45-13 45 56 52 223 21 407 167 449 359 22 103-19 208-102 257-67 41-99 70-119 111-11 21-20 42-20 47s20 22 45 38c89 56 125 152 88 236-24 54-79 109-133 133-22 10-40 21-40 24s19 17 42 30c112 64 183 166 182 261-1 102-60 176-159 201l-53 15c-2 1 6 20 18 42 31 59 35 105 15 158-19 51-62 84-108 84-22 0-27 4-23 18 34 122-2 219-98 258-47 20-56 37-56 113-1 99-109 231-190 230-29 0-42-8-79-50-42-48-43-52-39-104 5-54 5-54-31-62-35-9-36-10-35-55 0-45-1-47-42-64-53-22-71-58-83-170-10-98-43-165-113-234a641 641 0 0 0-373-156 527 527 0 0 0-349 117c-20 17-40 29-46 27-13-4 39-114 74-155 28-33 28-33 1-33-14 0-40 7-57 16-31 16-31 16-24-27 16-109 111-236 192-258 49-14 144-14 181-1 28 10 28 10-2-15-48-40-117-58-200-53-62 4-84 11-157 50-136 74-243 95-329 67-37-13-99-66-99-85 0-27-23-25-85 7-61 32-66 33-110 21-26-7-61-24-79-37-33-25-33-25-57 1-71 77-188 106-256 65-17-11-34-17-38-13s-22 39-40 79c-55 119-101 128-172 33-32-43-39-48-46-32-19 34-51 62-71 62-35-1-109-39-147-76-48-47-58-29-20 38 36 64 108 253 83 220-101-137-159-184-270-221-235-80-573 91-608 306-6 40 7 83 26 83 5 0 15-20 21-44 20-79 124-182 234-231 122-55 288-60 380-13 54 28 119 91 154 149 21 36 101 267 101 293 0 7-37-24-83-69-140-138-277-189-447-166a503 503 0 0 0-266 116c-53 41-86 58-130 68-56 13-59 15-71 53-16 53-16 118 0 157 17 39 11 189-8 227-7 14-29 41-49 59-31 31-36 41-36 83 0 38-6 54-29 80-25 28-35 32-87 34-32 2-66 1-74-3zm-60-1306c-19-34-30-68-30-93 0-29-3-35-10-24-20 30-11 101 16 137 42 55 59 42 24-20zm2175-741c68-31 140-112 162-182 9-29 14-57 10-60-3-4-23 8-44 26-20 18-62 45-93 59-47 22-69 26-150 26-52 0-101 4-107 8-27 17-15 68 26 108 35 36 43 39 92 39 35 0 71-8 104-24zm-1610-21c81-22 150-61 196-114 63-71 48-76-43-15-90 61-158 68-274 29-84-28-105-30-122-13-36 36 9 100 82 117 61 13 96 13 161-4z"/><path d="M3905 4265a100 100 0 1 1-200 0 100 100 0 0 1 200 0Zm2666-19a99 99 0 1 1-198 0 99 99 0 0 1 198 0Zm-172 65"/></g><g fill="#FBBD7A" style="transform:none"><path d="M3580 6091a475 475 0 0 1-300-513c12-59 8-68-20-43-36 33-69 116-76 192-7 72-7 72-41 30-156-187-148-480 20-727a781 781 0 0 1 331-269c74-27 215-51 307-51 73 0 78-1 95-27 46-72 176-165 278-201 60-21 84-24 167-20 83 3 104 8 159 35 62 31 63 31 104 15 60-24 323-23 386 0 24 10 46 16 48 14 8-8-92-65-135-77-48-13-48-13-13-17 45-5 130 14 199 44 53 24 53 24 110-11 82-51 189-71 292-57 84 12 209 58 209 78 0 7-12 22-27 33-28 21-28 21 7 13 19-4 98-7 175-7 122 1 147 4 198 24 64 25 117 65 117 87 0 8-7 29-16 46-16 31-16 31 27 22 54-11 224-12 262-1 35 10 34 18-3 41-37 21-30 36 17 36 108 0 244 61 333 150 76 77 127 168 166 295 24 79 27 107 28 235a595 595 0 0 1-285 558c-44 22-155 49-164 41-2-3 7-29 21-58 34-71 43-176 20-253-9-30-22-61-30-67-12-10-16-3-25 39-27 127-145 267-240 286-33 7-33 7-7-44 33-64 41-120 26-166-12-38-55-96-71-96-5 0-9 33-9 73 0 89-22 140-79 189-58 49-129 70-245 69-133 0-165-12-234-86a476 476 0 0 1-140-364c2-76 2-76 73-167 92-117 110-147 130-218 21-72 15-155-16-221a393 393 0 0 0-184-164c-194-73-647-67-848 10a296 296 0 0 0-201 284c1 100 28 160 133 295 50 62 89 121 88 130-1 8 4 48 12 89 11 59 11 82 1 115-32 110-109 164-254 175-125 10-187 3-193-20-5-19-7-19-24-3-17 15-22 14-75-16-67-37-94-32-120 23-15 31-14 37 6 92l26 76c4 12-2 18-20 23-72 18-216-67-277-163-41-63-49-102-39-169 5-30 7-58 5-61-3-2-19 8-35 24-64 62-66 162-6 278 66 124 66 117-12 117-39-1-85-8-112-19z"/><path d="M3160 4673c-27-10-71-57-107-112-33-51-36-53-66-45-72 17-140 0-181-45-18-20-18-21 23-82 23-34 44-72 47-84 8-31-12-133-32-163-16-24-16-24-37-4-41 37-64 44-110 32-133-35-191-149-203-400-8-146 4-206 66-340 56-122 56-120 6-157-51-37-86-102-86-159 1-88 78-181 169-205 48-12 48-12 15-66-38-63-57-140-48-192 15-89 87-164 187-197 29-9 56-19 61-22 4-2-29-24-75-48-95-49-123-78-144-148-31-102-7-184 75-267 53-54 139-99 188-99 16 0 17-8 14-64a376 376 0 0 1 378-390c74 0 89 4 203 62 4 2 7-11 7-30 1-80 80-176 165-197 86-22 150-11 228 39l52 30c3 0 5-10 5-22 1-69 96-178 172-199a353 353 0 0 1 312 66c34 26 34 26 76-18 23-26 70-60 108-78 60-30 76-34 147-34 95 1 151 22 218 84 44 40 44 40 86-3 99-101 230-128 344-72 32 15 72 45 89 66 32 38 32 38 68 11 62-48 105-70 170-87 145-37 287 31 335 162l20 51c0 1 27-11 59-27 75-38 175-42 243-9 91 44 142 140 129 244-6 55-6 55 20 45 37-14 139-12 177 4 38 15 84 66 93 102 5 18 11 23 23 18 85-35 181-44 253-22 22 6 62 31 88 55 74 67 98 161 66 265-13 45-13 45 56 52 223 21 407 167 449 359 22 103-19 208-102 257-67 41-99 70-119 111-11 21-20 42-20 47s20 22 45 38c89 56 125 152 88 236-24 54-79 109-133 133-22 10-40 21-40 24s19 17 42 30c112 64 183 166 182 261-1 102-60 176-159 201l-53 15c-2 1 6 20 18 42 31 59 35 105 15 158-19 51-62 84-108 84-22 0-27 4-23 18 34 122-2 219-98 258-47 20-56 37-56 113-1 99-109 231-190 230-29 0-42-8-79-50-42-48-43-52-39-104 5-54 5-54-31-62-35-9-36-10-35-55 0-45-1-47-42-64-53-22-71-58-83-170-10-98-43-165-113-234a641 641 0 0 0-373-156 527 527 0 0 0-349 117c-20 17-40 29-46 27-13-4 39-114 74-155 28-33 28-33 1-33-14 0-40 7-57 16-31 16-31 16-24-27 16-109 111-236 192-258 49-14 144-14 181-1 28 10 28 10-2-15-48-40-117-58-200-53-62 4-84 11-157 50-136 74-243 95-329 67-37-13-99-66-99-85 0-27-23-25-85 7-61 32-66 33-110 21-26-7-61-24-79-37-33-25-33-25-57 1-71 77-188 106-256 65-17-11-34-17-38-13s-22 39-40 79c-55 119-101 128-172 33-32-43-39-48-46-32-19 34-51 62-71 62-35-1-109-39-147-76-48-47-58-29-20 38 36 64 108 253 83 220-101-137-159-184-270-221-235-80-573 91-608 306-6 40 7 83 26 83 5 0 15-20 21-44 20-79 124-182 234-231 122-55 288-60 380-13 54 28 119 91 154 149 21 36 101 267 101 293 0 7-37-24-83-69-140-138-277-189-447-166a503 503 0 0 0-266 116c-53 41-86 58-130 68-56 13-59 15-71 53-16 53-16 118 0 157 17 39 11 189-8 227-7 14-29 41-49 59-31 31-36 41-36 83 0 38-6 54-29 80-25 28-35 32-87 34-32 2-66 1-74-3zm-60-1306c-19-34-30-68-30-93 0-29-3-35-10-24-20 30-11 101 16 137 42 55 59 42 24-20zm3182-420c32-14 33-15 8-20l-105-17c-44-6-104-22-134-36-62-28-89-30-98-8-9 23 44 72 97 89 54 18 181 13 232-8zm-1007-321c68-31 140-112 162-182 9-29 14-57 10-60-3-4-23 8-44 26-20 18-62 45-93 59-47 22-69 26-150 26-52 0-101 4-107 8-27 17-15 68 26 108 35 36 43 39 92 39 35 0 71-8 104-24zm-1610-21c81-22 150-61 196-114 63-71 48-76-43-15-90 61-158 68-274 29-84-28-105-30-122-13-36 36 9 100 82 117 61 13 96 13 161-4z"/><path d="M3905 4265a100 100 0 1 1-200 0 100 100 0 0 1 200 0Zm2666-19a99 99 0 1 1-198 0 99 99 0 0 1 198 0Zm-172 65"/></g><path fill="#FDC587" d="M3905 4265a100 100 0 1 1-200 0 100 100 0 0 1 200 0Zm2666-19a99 99 0 1 1-198 0 99 99 0 0 1 198 0Zm-3481-898c-23-37-25-85-7-109 16-21 82-59 102-59 8 0 15-4 15-10 0-12 37-14 43-2 2 4 7 23 11 43 6 33 2 41-32 78-21 23-43 41-49 41-7 0-15 9-18 20-4 11-11 18-16 15-5-4-9-1-9 4 0 22-21 10-40-21zm948-7c-28-25-32-35-35-92-5-78 18-123 69-137 68-18 113 27 112 113-1 69-19 112-55 130-40 21-54 19-91-14zm2500-232c-19-14-25-25-21-42 13-49 48-63 71-27 7 12 16 19 21 16 4-3 17 3 28 14 12 10 23 17 25 14 3-2 19 1 37 7 37 13 34 21-12 27-94 12-122 10-149-9zm-2827-28c-35-35-54-84-53-134 1-56 20-90 65-117 61-38 108-22 139 47 35 79 6 148-87 205-37 22-41 22-64-1zm815-88c-8-8 31-79 56-103 23-21 85-43 100-34 12 8-15 54-54 92-33 31-90 56-102 45zm716-49c5-26 51-55 99-64 40-7 42-7 24 6-11 8-18 18-16 22 5 9-69 52-92 52-12 0-17-6-15-16zm1512-313c-46-28-86-85-130-184-21-48-10-90 25-95 23-4 92 25 99 41 2 4 9 7 16 7 15 0 95 90 117 132 15 29 13 77-4 105-11 18-91 14-123-6zm-2460-322c-7-12 27-63 38-58 4 2 14-5 22-16 9-11 16-16 16-11 0 6 6 2 13-9 9-11 16-14 20-8s0 16-8 23-15 17-15 22c0 6 7 4 17-3 15-13 15-12 5 8-7 12-21 25-32 28-11 4-18 10-15 15s-4 7-15 5-20 0-20 6c0 13-17 11-26-2zm1640-278a103 103 0 1 1-206 0 103 103 0 0 1 206 0Zm-1823 73c-14-18-21-41-21-71 0-37 6-50 43-90 23-25 87-84 142-129 112-95 144-105 169-56 24 47 27 131 5 174-24 47-98 111-185 159-84 46-124 50-153 13zm969 6c-30-10-56-23-58-29s-8-9-13-5c-5 3-9 0-9-7s-3-10-6-6c-4 3-33-8-65-24-32-17-70-32-83-33-44-5-56-23-56-87 0-52 3-61 25-75 28-18 96-15 150 7 17 7 33 12 38 11 4-1 7 3 7 8s3 9 8 8c11-2 65 25 86 44 11 10 23 18 27 18 15 0 66 56 80 88 7 17 16 32 19 32 10 0 10 59 0 65-5 3-10 1-10-5s-5-8-11-4c-24 14-77 12-129-6zm1803-123a78 78 0 1 1-157 0 78 78 0 0 1 157 0Zm-3684-34c-2-34 3-58 22-95 23-46 88-108 113-108 16 0 17 5 11 38-6 36-50 114-89 160-23 26-56 29-57 5zm481 7c0-47 115-206 157-216 16-4 30-1 41 10 15 15 15 19-3 54-32 60-138 162-169 162-14 0-26-5-26-10zm2528-317c-26-7-59-67-61-113-1-43 26-82 70-94 79-24 114 167 37 203l-27 10-19-6zm-716-25c-7-7-12-27-12-45 0-28 5-35 36-48 46-19 47-19 33 7-11 21-11 21 61 14 56-5 71-3 67 6-2 7-11 12-20 12-9-1-19 6-22 15-5 17-84 51-115 51-9 0-21-5-28-12zm-1809-65c-37-14 3-58 72-78 39-12 47-12 51 0 16 40-75 98-123 78zm1557-37c0-12 63-76 75-76 14 0 1 22-31 54-40 40-44 42-44 22zm-382-97a104 104 0 1 1-208 0 104 104 0 0 1 208 0Zm160-1116c57-2 147-2 200 0 53 1 7 3-103 3s-154-2-97-3z" style="transform:none"/><path fill="#FCFBFB" d="M3905 4265a100 100 0 1 1-200 0 100 100 0 0 1 200 0Zm2666-19a99 99 0 1 1-198 0 99 99 0 0 1 198 0Zm-172 65" style="transform:none"/><path fill="#E98B8F" d="M4905 6954c-209-46-343-171-360-338-11-99 22-371 61-507 2-9 45-31 104-53 113-43 225-105 301-165 28-22 61-41 73-41 21 0 21 3 18 162-4 199 7 461 19 433 4-11 8-153 8-315 0-194 3-296 10-298 6-2 57 25 113 59 105 63 242 131 333 164 28 10 55 23 61 29 7 6 31 67 55 136 41 118 44 131 44 235 0 101-2 115-28 168a672 672 0 0 1-181 206c-66 45-156 89-231 112-94 29-299 35-400 13z" style="transform:none"/><path fill="#E37577" d="M4565 6352c-5-23 19-168 41-243 2-9 45-31 104-53 113-43 225-105 301-165 28-22 61-41 73-41 21 0 21 1 15 207l-7 211c-8 9-31-3-55-28-36-38-63-38-107 0-29 25-40 29-65 23-56-15-112-9-144 15-17 12-37 22-46 22-8 0-35 18-59 40-44 41-44 41-51 12zm1070-57c-79-53-215-99-276-93-27 3-68 2-89-2-26-5-46-3-57 5-10 6-32 17-50 23-32 11-32 11-35-190-2-149 0-202 9-205 7-3 58 23 115 58 105 63 242 131 333 164 28 10 55 23 61 29 17 17 81 209 76 229-5 25-30 20-87-18z" style="transform:none"/></svg>
