<svg xmlns="http://www.w3.org/2000/svg" id="Layer_1" viewBox="0 0 961 964"><defs><style>.cls-5{fill:#fab45c}.cls-17{fill:#f09757}.cls-19{fill:#f09856}.cls-27{fill:#e99a5c}.cls-35{fill:#ea8e93}.cls-36{fill:#ea8d92}.cls-49{fill:#fff}.cls-57{fill:#fcc586}.cls-63{fill:#fcc688}.cls-64{fill:#fcc687}.cls-66{fill:#fcc78b}.cls-81{fill:#f19756}.cls-82{fill:#f19757}.cls-83{fill:#f19959}.cls-87{fill:#fbbd7b}.cls-108{fill:#c46b33}.cls-120{fill:#d37435}.cls-123{fill:#d37335}.cls-127{fill:#d57636}.cls-130{fill:#d57536}.cls-137{fill:#b15f31}.cls-147{fill:#464c5b}.cls-148{fill:#464b5a}.cls-149{fill:#555e70}.cls-151{fill:#2c2d3a}</style></defs><path d="M960 448A481 481 0 0 0 0 469l1 10c0 7 1 14-1 20a486 486 0 0 0 454 463h49a487 487 0 0 0 457-514Zm-75 228-18 34c-3 5-5 10-9 13-3 7-10 16-12 17-7 14-16 23-25 34a446 446 0 0 1-351 158h-9c-81-3-163-30-229-77l8 6a449 449 0 1 1 645-185Z" style="fill:#f79a3d"/><path d="M463 483h3-6 3Zm-24 39 2 3c5 5 11 9 18 11-8-3-15-8-20-14Zm61-11-3-1a20 20 0 0 0 3 1Zm-30-5 6 4-6-4Zm-1-17Zm4 5-2-1v1h2Zm12-12Zm-19 2Zm14 9Zm-3 39h1-1Zm17-23-4-6c0 2 2 4 4 6Zm12-37c-7 1-13 2-18 7 5-5 11-6 18-7Zm-81 21 1 1 1 1-2-2Zm1 1v3-3Zm2 6-2 5c2-2 2-3 2-5Zm77 13 1 3-1-3Zm28-42c-1-3-2-6-5-8l5 8Zm-7 28 5-5c-1 3-3 4-5 5Zm-17-16c5 2 9 7 6 13 3-6-1-11-6-13Zm24 7 1-4-1 4Zm-73-7-10-1-4 2c-3 4-3 7-3 9 0-2 0-5 3-9l4-2 10 1Zm-20 0-6 3 6-3Zm-8-13Zm95 20Zm-98-7Zm67 41-9 5 9-5Zm12-6 4 1-4-1Zm-67-39-6 3 6-3Zm25 22c-11 10-24 8-36 5 12 3 25 5 36-5Zm-36 5v1-1Zm4-7c3 2 8 3 12 1-5 1-9 1-12-1Zm12-22c1 0 3 2 4 5-1-3-3-5-4-5Zm40 5v-1 1Zm-51 0h-1 1Zm-3-1Zm82-6 4 7-4-7Zm-58 0c6 1 11 2 17 1-6 1-11 0-17-1Zm-15 1Zm46-8c1-2 3-3 3-5l-3 5Zm-40-4Zm-17-1c-5 5-8 11-8 18 1-6 3-13 8-18Zm50 88Zm2 46a71 71 0 0 1-1-4l1 7a1055 1055 0 0 1 0-3Zm0 14Zm-40-35-2 1a73 73 0 0 1-11 4l13-5Zm36-12v-11 11Zm-48 41Zm10-7 5-3-5 3Zm-13-7 2-10a121 121 0 0 0-2 8v2Zm51-13a120 120 0 0 1 1 9v9-14l-1-4Zm-26 18h7-7Zm-4 66a124 124 0 0 0 4 1l-4-1Zm82-16-9 8c7-5 13-11 17-18l2-7c-2 7-5 12-10 17Zm-57 21Zm70-41v-1Zm-120-23c-1 2-2 3-5 3h2c2 0 3-1 3-3Zm119 5 1-2v8l1-3-3-12 2 7-1 2Zm-124 6v4l2-12-2 8Zm5 7c-1 8 0 16 4 24l1 2-5-5 8 9c-6-8-9-19-8-30Zm46-72 11-11-11 11Zm-44 57v-4 4Zm32 58 5 2 3-1c-3 1-6 0-8-1Zm57-99Zm17 7-2-1 7 5-5-4Zm0 5Zm-48-8v2-2Zm-1-29c2 4 6 8 10 10-5-3-8-7-10-10Zm16-5Zm-17 3Zm-12 53Zm20 0 4-3-4 3Zm0-39Zm-46 89Zm12-4-4 3 4-3c4-6 8-2 11 0-3-2-7-6-11 0Zm45-10Zm-56 23Zm38-96v-3l9 7c-4-2-7-5-9-8v9-5Zm36 71Zm-35-36Zm39 5c-8-4-16-7-25-5 9-2 17 1 25 5Zm-38 15Zm9-116c-1 3 0 5 1 7-2-3-2-7 1-12l-3 7 1-2Zm46-26Zm-14 81v1-1Zm-108-74v-1 1Zm124-3v1-1Zm-120-7Zm119 5 1 1-1-1Zm-122 1v-1 1Zm2-4Zm-3 6v-1 1Zm2-4v-1 1Zm122 5Zm50 67v11-11Zm-57 38Zm63-33Zm-16 34Zm-56-29 1 1-1-1Zm3 5 1 2-1-2Zm21 18Zm-23-22Zm4 7Zm-114-73Zm-7-161Zm37 4h-1 1Zm-16-2Zm-10-1Zm19 6Zm67-25h1-1Zm6 3Zm25 9 13-2-13 2Zm13-2v1-1Zm21 266h-2 2ZM416 476v-1 1Zm0 6Zm0-2Zm-4-143 1 3-1-3Zm4 141v-1 1Zm1 12Zm-121 38Zm42 54Zm5-43v1-1Zm256 19 1 3-1-6-1 7 1-4Zm-138 8Zm0-10-1 1 1-1Zm-3 2Zm-40 16Zm-5 0-9-2 9 2Zm-33-1c1-1 3 0 5 1-2-1-4-2-5-1Zm10 7Zm3-15v3l1 4-1-7Zm-2 10h-4 1l2 4-2-4h3Zm0 7-1 3 1-3Zm49-15 7-3 8-8c-5 4-9 8-15 11Zm55-66v1-1Zm-1 0Zm-60 55c4-3 6-9 6-17 0 7-2 13-6 17Zm81-47h3c-9 0-18-2-23-7 4 5 13 6 20 7Zm4-8Zm1 0Zm-81 24h1-1Zm0 1Zm87-26h-1 1Zm-32 169-5 2 5-2Zm65-87Zm-18-3h-1 1Zm20 4h-1 1Zm-24 4 3 10-3-10Zm-41-278Zm70 274h-1 1Zm1 0h-1 1Zm2-1Zm-5 1h-1 1Zm-192 4 3 1 10 13-10-13 2-1h-5Zm44 21-12-1 12 1Zm-34-23-4 2 4-2Zm19-1Zm-10-2Zm30 59Zm93 27 8-4-8 4Zm-24 5 4-1-4 1Zm17-5Zm-9-2 1-1-1 1Zm64-83ZM122 325Zm15-21c2 3 4 7 3 9 1-2-1-6-3-9Zm26 64-2-2 2 2Zm-67 8-3 8c-1 6 0 12 2 17-3-9-3-17 1-25Zm52-113Zm100-53 5 1a76 76 0 0 1-3-1h-2Zm-15 195Zm-13 36 1-1c-2 1-4 3-7 3 2 0 4 0 6-2Zm14-190-1-2 1 2Zm-3-18v-6l-1 8c2-7 7-13 14-17-6 3-10 8-13 15ZM110 562l-1-1 1 1Zm72-245Zm-8-11Zm-30 53c1 4 2 6 4 7l-4-8v1Zm21 5Zm-9 88 8-11-8 11Zm15 4c-2 5-6 10-11 14 5-4 9-8 11-14Zm1-11-2-5-1-2 3 7Zm33 170h-16l-6-2 9 4 7 1c-4 0-7-1-10-3h16Zm-63-144c1 2 4 3 7 3-3 0-5-1-7-3Zm-52 39Zm242-178 5-4c-5 3-10 8-12 12l7-8Zm-74 92-6-2 6 2Zm140-87 2 3-2-3Zm-19-19Zm-17 7c5-1 10 0 15 1l4 1c-6-2-12-3-19-2Zm-27 15Zm69-17-2-2 1 1 2 7-2-7 1 1Zm-7 4Zm-56 4-11 9 11-9Zm-7 1c-1 2-5 4-5 7 0-3 4-5 5-7Zm-91 56Zm-25-100v-11 11Zm12 99c4 2 8 3 12 1-5 1-9 1-12-1Zm-12-44a103 103 0 0 0 1 8v4l-1-12Zm10-36 1-6-1 6Zm-11 30v4a63 63 0 0 0 0-4Zm31 79v3-3Zm6 5Zm-5-5-1-1 1 1Zm-1-1 4-6-2 2-2 4Zm-112-16Zm25 111Zm-7 59v-3l-1 3h1Zm-3 1-6-4c2 2 4 4 6 4Zm-9-39Zm-3 31v-1 1Zm-16-92h-1 1l1 2-1-2Zm14 89Zm-19-101v-1 1Zm6 59Zm17-14Zm20 7-3 1-11 13 11-13 3-1Zm-36 22 1 3v1l-1-4Zm17-8v-19 19Zm-13-11c-1-7 8-19 12-10-4-8-11 0-12 7l-1-6v14l1-5Zm29 74c1 4 3 7 6 11-4-5-6-10-6-16v5Zm-4-21v-3 3Zm-33-103Zm23 84 2 15-2-15v-9 9Zm-12-3Zm33-28Zm-5-227 3 1-3-1Zm-10 77 5-2-5 2Zm10-1Zm20-51 4-5a161 161 0 0 0-4 5Zm-21-25-2-1 2 1Zm15 17a67 67 0 0 0-27 34l7-14c1-4 12-15 20-20Zm-15 58Zm-36 85Zm35-86Zm0-2Zm7-3 2-7-2 7Zm-39 85Zm24-48Zm-24 48Zm300-128ZM110 430Zm61-144Zm13-37Zm-62 221-1-1 1 1Zm-12-36v-1 1Zm607-145 9 5-5-4-4-1ZM525 664l-1-1 1 1Zm22-40c2-7 1-15-1-24l2 15-1 9Zm38-31c3 2 5 2 7 1-2 1-4 1-7-1Zm-154 65 2 3c14 13 31 19 48 18-19 0-37-7-50-21Zm135-56c7-2 13-4 19-9l1-2c-5 6-12 9-20 11Zm-177 18Zm8-14a59 59 0 0 1-6-2l6 2Zm204-20 3-5 2-1-7 2 5-1-3 5ZM442 323v1-1Zm-57 278Zm20 38Zm248-170c4 5 6 10 8 16l-3-10c4 3 6 4 8 3-5 1-9-4-13-9Zm70-73c-2-4-5-8-6-14 1 5 3 9 6 14Zm-13-5c3-3 6-9 3-21 2 10 1 17-3 21Zm15 12-4 4c3-1 4-3 4-4ZM343 539l-2-3 2 3Zm254 32Zm30-23Zm-5 27c10 3 26-7 31-15-5 8-21 18-31 15Zm-34 6-2-1h-2l4 1Zm-57-73h-1l3-2 5-9-7 11Zm-111-10-1-1 2 2-1-1Z" class="cls-5"/><path d="M430 510v-1l-4-4-1-1 2 3 3 3Zm-3-3-1 2 1 1v-3Zm-3 46c-5 4-11 7-18 8 7 0 13-3 18-8Zm7-31-2-5a48 48 0 0 1 2 5Zm68 13c8-3 15-7 23-15-1 4-2 8-1 12-1-5 0-10 3-15-7 9-15 15-25 18Zm43-54ZM344 598Zm369-188ZM544 572l-4-2-9-2 13 4Zm-190 13-2 1 5-3-3 2Zm-19-35c-1 6 1 11 4 17-3-6-5-12-4-17Zm77 12-7-1-3 1h10Zm-72-21-1 1-2 2 3-3Zm-1 49Zm14-20c-8-8-14-16-10-28-4 12 2 20 10 28Zm31-14c-2-1-4-2-6-1 2-1 4 0 6 1Zm12 5Zm-19 16c-2-6-8-14-3-20-5 6 1 14 3 20-4 3-8 2-12 0 4 2 8 3 12 0Zm52 85h-1 1l3 1-4-1Zm143-90 6-3c-8 5-19 6-28 4 7 2 14 1 22-1Zm167-298-1-6 1 6Zm-1 36c2 7 2 15-3 20 5-5 5-13 3-20Zm-17 50-5 6c2-1 4-3 5-6Zm-1-17 2 7v-4l-2-3Zm35 48c4 4 9 6 12 1-3 5-8 3-12-1Zm-167-51h-4 4Zm184 28Zm-51-125 7-10-7 10 5 7-5-7Zm10 40-10 7 10-7Zm43 45c-8-19-26-33-31-53 5 20 23 34 31 53Zm-251-15-11-9 11 9Zm-30-5h1v-1 1h-1Zm14-4-9 3h1l8-3Zm-26-2-7 6 7-6Zm86 3Zm10 0-10 7c3-2 7-4 11-4h-5l4-3Zm-15 34Zm-6-31-9 3 4-2a107 107 0 0 1-11 4l14-4 2-1Zm27-6c-6-2-12-1-17 0 6-1 12-2 17 0Zm140 43Zm-37 148Zm36-81Zm-31 62c0-2 2-3 4-4-3 0-4 1-4 4Zm-2 16 2-4 1-1-1 1-2 4Zm17-14c2-2 4-2 6-1-2-1-4-1-6 1Zm10-22c-3 6-8 12-15 14 5-1 10-4 15-14Zm-27 27-2 10 2-10Zm1-16 7-2-7 2-4 2 4-2Zm6 5h-1 1Zm-15 15-2-2c5 7 8 15 11 24l-4-14v2l-5-10Zm45-131-1 11c1-4 2-7 1-11Zm1-13-4 2 4-2Zm-4 4 3 6-1-4-2-2Zm6 51c2 4 2 8 0 11 2-3 2-7 0-11Zm-8 40v1-4l-1 6 1-3Zm-3 34c-2 0-4-1-4-3 0 2 2 3 4 3Zm0 5v-5 5Zm7-85-3-12c-1 4 0 8 3 12Zm-15 60-4 7 4-7Zm-565 12-4 4 4-5Zm91-290v-1 1Zm39-52Zm301-55v1-1Zm-256 47v-1 1Zm-18 0ZM116 595l-3-3 3 3Zm54-341Zm-57 93Zm22-33 5-1-5 1ZM339 95Zm-106 85v-1 1ZM575 62Zm0 0v1-1Zm1 2Zm0 0v1-1ZM472 86l10-9-10 9Zm64-24ZM368 92Zm188-35Zm19 4ZM233 178ZM127 580Zm-21-32 1-13-1 13ZM89 435Zm1 75-1-1 1 1Zm-1-2v-1 1Zm112 111c6 1 15 1 21-3-7 3-14 4-21 3Zm-47-28c2 0 3 1 4 3-1-2-2-3-4-3Zm-37-7 10 2 17 4-17-4-10-2Zm82 34ZM88 505Zm32 70-1-1 1 1ZM88 439v-1 1Zm1-1v-1 1Zm-1 3v-1 1Zm1-5Zm3 34v-1 1Zm3-5Zm-2 3Zm150-80 9-6-9 6ZM96 463Zm90-239ZM513 75l-5-2-14-1c6 0 13 0 19 3Zm65 17Zm-9-14c-4-4-11-5-19-5 8 0 15 1 19 5Zm-97 8Zm-84-7Zm52-5Zm95 2Zm10-3Zm32 17Zm-30-17ZM225 315l-5 12 5-12ZM339 95ZM239 259Zm-20 31Zm12 93 1 1-1-1ZM521 82ZM238 203Zm37-83Zm-38 136 2 3-2-3Zm1-53 3 1-3-1ZM520 81Zm59-11Zm4 2Zm-1-1Zm0 0Zm-2-1Zm-3-3Zm0 0v1-1Zm0 1Zm-1-2Zm2 3h1-1Zm-22-12-2 3-1 1 1-1 2-3Zm32 20Zm-67-14c-3-2-6-4-10-4 4 0 7 2 10 4Zm57 6Zm-30-5-6-1 6 1Zm34 7-1-1 1 1Zm7 6h1-1Zm2 1Zm-3-1-5-5c2 2 3 4 5 4ZM88 442v-1 1Zm788-19v1-1Zm-22-73Zm13 106Zm-73 149v1-1Zm39-15Zm34-228c-2-2-3-6-4-9 1 3 2 7 4 9Zm19 92Zm-6-55Zm1 4Zm5 51ZM655 677Zm16 38h1-1Zm2 1v1-1Zm11 23v1-1Zm1 3v1-1Zm-15-28h1-1Zm35-102Zm175-227ZM635 634l9 12-9-12Zm11 68Zm39 42Zm28-595Zm0 1v1-1Zm0 4Zm-87-50c0-4-1-7-4-10 2 3 4 6 4 10Zm19 9Zm-25-35 6 4-6-4Zm6 38v-2 2Zm101 45 9 1-9-1Zm-87-45-10 1 10-1Zm240 265Zm-26-73Zm0 2 1 4-1-4Zm-1-4Zm2 8Zm-3-9Zm-7-12 4 6-4-6Zm-17-26 1 1-1-1Zm-34-26Zm55 71 1-3-1 3ZM298 711Zm-29 61Zm0-8Zm2-204-6-6 6 6Zm55 126-4-16 4 16Zm-16-39-3-8 3 8Zm-41 117v1-1Zm10-16Zm66-47ZM107 583Zm183 159-8 4 8-4Zm6-13 2 8-2-8ZM171 615c-4-1-7-4-10-6 3 3 6 5 10 6Zm-57-32Zm2 1h-1 1Zm-2-1Zm199 68Zm400 154ZM295 612l-6-13-7-15 7 15 6 13Zm-21-41c-3-3-5-3-7-1 2-2 4-2 7 1Zm-83 48Zm123 16-4-4 4 4Zm259 97 1-2-5 5 4-3Zm11-6Zm-49 48Zm-17-8Zm62-40v1-1Zm134 94 1-9-1 11v-2Zm2 6h-1 1Zm-3-21c0-6-2-11-4-16 3 7 4 14 4 22v-6Zm-19-30-3-7 2 1-11-8 9 7 3 7Zm-352-56v-1 1Zm67 33c-4 2-8 2-13 3 5-1 9-1 13-3Zm-27-12Zm100-435 7 3-7-3ZM343 720h-1 1Zm189 54Zm-31-7 4 3-6-5 2 2Zm19 8Zm-109-23Zm7-3Zm-34-4ZM179 462l1-1-1 1Zm-7-48v1h2l-2-1Zm17 48 3 13-3-13Zm-3-58-6 9 6-9Zm66-22Zm-91 183-1-2 1 2Zm0 0Zm17-166c5-7 10-15 12-22l-12 22Zm-13 159Zm-5 9v1-1Zm31-228h1-1Zm17-50Zm-16 61Zm23-101Zm-25 106 5 10-5-10Zm-14 185-7 12 7-12Zm11-215Zm44-107-9 17 8-15 1-2Zm-25 80Zm28-86 6-2-6 2Zm-35 190-1-4 1 4Zm32 128v10-10Zm8-43Zm0 0-3-5 3 5Zm4 43-6-1 6 1Zm-2-47 3 2-3-2Zm13 22v-2a50 50 0 0 1 0 2Zm8 43v1-1Zm1 2v1-1Zm-9-31Zm-9-34Zm-37-4Zm41 7 5 5v2-2l-5-5Zm4-1-5-3a67 67 0 0 0 5 3Zm-48 14Zm37-7-2 2 2-2Zm-10 22v-3l1 1-2-3 1 5Zm-37 5-1 1 1-1Zm48-17c3-1 4 0 4 2 0-2-1-3-4-2Zm15 34 4 9-4-9Zm-23-19c1 2 0 3-1 5 1-2 2-4 1-5Zm209-190Zm-3 1h1-1Zm1 0h1-1Zm1 0h1-1Zm-9-1Zm7 2Zm-263 83Zm258-84Zm1 1Zm1 0Zm2 0Zm4-2Zm6-7Zm1-3Zm-2 4Zm1-2 1-1-1 1Zm-3 6v-1 1Zm1-2 1-1-1 1Zm-2 3 1-1h-1Zm1-2 1-1-1 1Zm-12 4ZM182 529Zm48-82 4-8-4 8Zm-1 20 1-4 1 2-2-6v8Zm-50 55 3 7v-1l-3-6Zm17-2 8-17-8 17Zm2-141-4 12 1-2v3-3c2-3 3-7 3-10Zm4 35v2l-1 27c1-9 2-20 1-29Zm-9 69 4-12-4 11v1Zm-16 7v14-14Zm66-21c2 4 3 8 2 12v-8l4 2-6-6Zm31 28 1-14-2 18a71 71 0 0 1 1-4Zm152-176 1 1-1-1Zm2 3v-1Zm1 1ZM266 463l-1 1 1-1Zm166-135ZM235 455l-1-16c-1 6 0 11 1 16Zm3 20 2 3 6 4-1-1c-3-1-5-3-7-6Zm20 5-1 3 2-5-1 2Zm-86-70Zm566-163Zm48 19Zm-51-3-2-7 2 7Zm36 121-3 6 3-6Zm12-139v1-1Zm-51-63Zm13 22Zm-8 262-5 11c3-5 5-7 5-11Zm27-239h1-1Zm-22-4Zm-7 229 3 10-3-10Zm-13-8-4 11c2-4 4-8 4-11Zm14-16Zm-5-1Zm-17 40Zm-10 11Zm22 53v1l-1-5 1 15v-11Zm-8 48v2-2Zm6-62a139 139 0 0 1 0-3v3Zm11-87 9-24-8 22-1 2Zm-17 152ZM441 325Zm2-2Zm-1 1Zm-21-2Zm19 3Zm291-48-2 2 3-3-1 1Zm-323 42Zm-11 8 11 10-11-10Zm-1-18 12 10-12-10Zm3 8-2-5 2 5Zm158 8c-2 4-3 8-3 13l3-13Zm152 55v-13 13Zm0 1Zm8-92 7-5-7 5Zm-273 32Zm0 0Zm-1 1Zm8-14c3 3 6 4 10 4-4 0-7-2-10-4ZM258 537v1-1Zm216-233v4-4ZM296 540Zm0-13Zm-8 9Zm9 6v-1 1Zm-8-9Zm11 19-1-1 1 1Zm-1-2v-1 1Zm-20-10c-3-5-5-12-6-18 0 7 2 13 6 18Zm22 14h-1 1Zm-4-9v-2 2Zm1 2Zm-42-17v1-1Zm0 2v1-1Zm443-51-5 2 5-2Zm-442 54v1-1Zm-2-44-1 2 1-2Zm0 37v1-1Zm13-46-2 1 2-1Zm3-2-1 1 1-1Zm2-1-1 1 1-1Zm-17 55h1-1Zm286 108Zm-7 12h-1 1Zm-146-34 1-8-1 8Zm-77-38Zm231 59Zm125-122-2 15 2-15Zm9 40a20 20 0 0 1-1 0Zm-5-2c-13 18-35 39-58 25 23 14 45-7 58-25Zm-107 45Zm-256-35Zm-5-6v-1 1Zm-12 8h1l-5 1 4-1Zm11-10-1-1 1 1Zm4 6Zm-1-2-1-1 1 1Zm-11 6 5 2c-2-2-3-2-5-2Zm-12 0Zm19-12-1-1 1 1Zm21 30 9 4-3-2-6-2Zm239 133ZM397 198v4-4Zm17 70Zm-2 1Zm14-10Zm12-5Zm1 1Zm-37-52v1-1Zm13-19c-1 2-5 4-9 6 4-2 8-4 9-6Zm46-9Zm-58 28Zm30 68Zm-54-90Zm59 77v1-1Zm51-89c4 5 6 10 6 14 0-5-2-10-6-14Zm-27-16h-2l5 1-3-1Zm-41 115Zm-12 3 3 4-3-4Zm18-2Zm7-6 2-1 2-3-4 4Zm-2 3Zm-2 1 2-1-2 1Zm-22-97Zm46-62c-2-3-4-6-8-7h-1c4 1 7 4 9 7Zm-81 197v-1 1Zm65-203-4 4 4-4Zm-4 4 1 10-1-10Zm20 3Zm-76 63c-1 3 0 6 1 9-1-3-2-6-1-9Zm163-79-1 1 1-1Zm2 7-3-2 3 2Zm10-11Zm-2 9c2-1 5-4 6-8-1 3-3 6-6 8Zm-96 22-6 2 6-2Zm-39 30-2-4 1 3 1 1Zm-43 155 6 2-6-2Zm43-150 1-7-1 2v5Zm-7-13c-2 0-4 1-6 4l6-4Zm-14 10-11 9 1-1 10-8Zm-16 155Zm1 0Zm-8-3Zm1-21Zm336 33Zm-10 12ZM534 132l-12 3 12-3Zm-18-9Zm30-3 10 5c-3-2-6-5-10-5Zm343 349c-2-2-3-4-5-4 2 0 3 2 5 4ZM517 135h4-4Zm36-2c7 2 11 3 9-3 2 6-2 5-9 3Zm-45 90Zm-33-44h-1 1Zm6 55h12l7-4-7 4h-12Zm32-102v-7 7Zm144 205-2-2c2 2 5 4 9 5l-7-3Zm0-14c-1-1-3-2-4-1 1-1 2 0 4 1Zm20 8h1-1ZM474 226l1 1 6 7-6-7-1-1Zm69-49Zm108 148Zm58 2c2-3 2-7 0-11 2 4 1 8 0 11Zm-141-72c-3-1-4 1-3 3-1-2 0-4 3-3ZM551 88l1 1-1-1Zm6 76Zm12 99c10 6 21 4 32 1-11 3-22 5-32-1Zm-55-139 1-1-1 1Zm370 341ZM497 258h1-1Zm7 6-6 3 6-3Zm-6-7h1-1Zm12 2v-4 4Zm-29-40c-3 0-5 0-7 2 2-2 4-2 7-2Zm-11-41h2a88 88 0 0 1-2 0Zm-12-25h-2 2Zm21 11c4 4 9 10 5 14l-5 2 5-2c4-4-1-10-5-14Zm-2-4-10-5 10 5Zm-30-3v10-10Zm30 70Zm4 3Zm11-4Zm-16 0Zm14-6h-2 2Zm-9 10Zm27-18 5-4-5 4Zm319 356h1l-2 1v-1ZM496 267Zm-109 26Zm465 12Zm5 12-2-2 2 2Zm2 15Zm-11-22v-5 5Zm-35-53 15 10-15-10c-11-4-11-3-13-9 2 6 2 5 13 9Zm80 172-5-2 5 2Zm-15-64-1-3 1 3Zm-14-21c0-3 0-6-2-7v-1 1c2 1 2 4 2 7Zm-79-119-11-11 11 11Zm80 126ZM622 106v4-4Zm29 22c-3-5-6-7-10-8 4 2 8 4 10 8Zm229 321ZM622 114Zm7 5h-1 2c-2-1-4-1-5-3l4 3Zm-4-6-1-6 1 6Zm88 39v-1 1Zm-21-11Zm76 70Zm-63-44 4 2h-2l5 1-7-3Zm-6 1h-5 5Zm146 172 8 7-8-7Zm12 88Zm23-12 3 13-2 11 2-11-3-13Zm-20 30Zm-22-22 5 5-5-5Zm-6-9ZM547 90l4-2-4 2Zm272 479h4-4Zm28-155Zm-28 154-1-3 1 3Zm12-18Zm2 7Zm8-227 1-12-1 12ZM622 104zm231 241Zm20 60Zm-59-129-28-10 28 10Zm-4 25c-5-6-10-11-16-13 6 3 12 8 16 13Zm-16 0-7-7 7 7Zm-8-11 1-4-1 4Zm25 28Zm15 11Zm-5 225 5-9-5 9ZM357 214l2-1-2 1Zm-47 8Zm39-4 3-1-3 1Zm-2 1-7 4-11-1 11 1 7-4Zm-29 0c-2-1-4-2-6 0h-1 7Zm-8 4v-1 1Zm1 3 3 2 1 1-4-3Zm-56 9a15 15 0 0 1 0-8v8Zm19 1v-1 1Zm36-13Zm289-98Zm-5-12Zm-1 0Zm-9 5Zm12 15Zm-9-19ZM347 251l-8 3-1 1 1-1 8-3Zm-82-6Zm76-16-13 3c7 0 15-3 21-7l-8 4Zm11 46c2-3 4-6 4-10 0 4-2 7-4 10Zm247-151v1-1ZM274 301l1-7-1 7Zm30-154-2 9 2-9Zm35-20-3-2 3 2Zm-1-7-1 1-2 2 3-3Zm-43 45 1-1-5 3 4-2Zm-3-13Zm-3 14-2-4 2 4Zm69-17v1a52 52 0 0 1 0-1Zm-8-3Zm-4-30 1-1-1 1Zm3 5Zm-58 181 5-7-5 7Zm-15-2-1-6 1 6Zm-16-76 9 6-9-6Zm22 86-4-6 4 6Zm-27-85v1l1-1h-1Zm22 85-1-1 4 4-3-3Zm26-167Zm-20 166-1 1 1-1Zm3-3Zm51-137h-1 1Zm160 49Zm-13 571Zm201-669ZM480 786h1-1Zm-26 82Zm27-81Zm-25 85 6 1 5-3c-3 3-8 4-11 2Zm-3-16v7-7Zm2-3v1-1Zm-5 32a41 41 0 0 1 2 2l-2-2Zm18-19Zm-25-28zm226-716 12-2-12 2Zm0 0ZM479 809c2 0 5 0 6-2-1 2-4 2-6 2Zm41 38Zm-79-50h16-16Zm41 7-10-4 10 4Zm-4-19v1-1Zm-33 3c-3 2-5 5-4 9-1-4 1-7 4-9Zm198 8Zm-165-11c-7-3-14-5-21-3 7-2 14 0 21 3Zm-137 22-1 3 1-3Zm-5 24a43 43 0 0 0 25 23c-11-4-20-13-25-23Zm347-703h1c2 1 4-2 5-4-2 3-4 4-6 4ZM511 848Zm-122 5Zm43-14 11-1-8-12 8 12-11 1Zm-11-44 7-3c-3 0-5 1-7 3Zm302 19h-1 1Zm-347 36Zm3 1Zm-36-49h1-2v-1 2-1h1Zm385 6-2 3 2-3Zm-301 67 1 1-1-1Zm258-755c3 0 4 1 4 4 0-3-1-4-4-4ZM447 880Zm-1 0-4-1-13-3 13 3 4 1Zm-10 7Zm10-7Zm3 8Zm-25-2 3-1-3 1Zm-12-75c-1 4 0 7 1 11l5 8c-4-5-7-12-6-19Zm36 77Zm208-151-2 4 2-4Zm17 96 3-5-3 5Zm-54-91-5 4 3-1 2-2v-1Zm-8 70 2-6v-1l-2 7Zm-21-37Zm-89 70Zm120-103c2 0 4 0 5 2-1-3-3-2-5-2Zm2-6 3-6-3 6Zm-27 27 16-14-16 14Z" class="cls-5"/><path d="m626 745-1 3c3-7 5-15 3-22 2 7 0 13-2 19Zm-20 52-2 1 2-1Zm-8 14c-1 4-2 8 1 9-3-1-2-5-1-9Zm14 53c2 0 6-3 8-6-2 3-5 6-8 6Zm12-73c-1 4 0 8 2 10-2-2-3-6-2-10Zm40-3Zm-9 14Zm-45 58-1 1 1 1v-2Zm54-72Zm-74-13Zm12 46 4-2-4 2Zm19 31c-1-2-1-4-4-5l4 5Zm-7 0 2-5-2 5Zm72-32c-1 0-3 0-5 2l5-2Zm-169 69Zm361-348v-1 1ZM561 860c-2-3-5-4-6-5l6 5Zm-13-6v4-4Zm-1-40Zm-6 74-1 1 1-1Zm-51-63Zm37 17h-12 12Zm-24-3-8-8c2 4 5 6 8 8Zm170-711-7-2 7 2ZM373 849Zm284-90c-1-1-3-5-3-8 0 3 1 6 3 8Zm5 2c2-1 4-3 4-7l-2 5-2 2Zm4-7Zm6 84 2 4-2-4Zm20-11-3-4 3 4Zm-154-24c-2-2-4-2-5-1 1-1 3 0 5 1Zm-8 3 1 4c2 8 6 13 12 17-9-6-13-15-13-21Zm131-69Zm2 1 4 8c-1-4-2-7-4-8Zm-64-549 5-1 7-11-7 11-5 1Zm8-16-5 5 5-5Zm-11-84c6 0 11 1 16 3l-9-3h10-17Zm281 427v-1 1ZM614 73Zm-9 3Zm275 396ZM598 185Zm43-22v-1 1Zm-25-89Zm-4 100Zm-10 5v-1 1Zm103 572c-1-2-3-3-3-5-3-5-4-11-5-16 1 5 2 11 5 16 0 2 2 3 3 5ZM100 548c-2-4 1-10 0-15 1 5-2 11 0 15ZM84 405c-3 4-3 9-5 13l-3 4 3-4c2-4 2-9 5-13Zm14 163-4-9c1 4 2 7 4 9Zm-15-62 3 9-3-9Zm12 22c-2 0-4-2-5-4 1 2 3 4 5 4ZM336 76h17-17Zm367 681-1-3 1 3ZM75 446c-1 3-2 5-1 7-1-2 0-4 1-7Zm-2 27v-1 1Zm2-50Zm575-187Zm5-1c3 0 4-2 4-4 0 2-2 4-4 4Zm5-5v-3l-1-2 1 5Zm-6-13Zm6 13-1 1 1-1Zm-9-69c-3-1-6-2-8 0h8Zm4 16c2-2 4-5 5-10l-5 10Zm-14-6c1 3 3 5 6 6-3-1-5-4-6-6Zm-22 102 3-2-2 1-1 1Zm18-57 4 10 4 3-4-3-4-10Zm257 265 2 5-2-5ZM639 278Zm-13-6Zm13 12 3-2-6 2h3Zm-21-7 2 3c1 2 3 3 5 3-3-1-5-3-7-6Zm36-46 1-3v1l-1 2Zm-13-19 7 4-7-4Zm239 259ZM625 271h1-1Zm255 201ZM716 795l-2-13 2 13Zm-420 43c3 8 10 14 18 20-8-6-15-13-18-20Zm12-26Zm-7 0c-2 3-3 10-4 13 1-3 2-10 4-13Zm46 58-11-13 11 13Zm375-56-3-7 3 7Zm-405-55Zm72 94-8 3 8-3Zm-19-5Zm-28 24 4 1-7-2 3 1Zm5-1v-1l-1 2 1-1Zm9-31Zm6 5h2-2Zm-4-3Zm2 1 1 1-1-1Zm8 4 2 1-2-1Zm-24-45h1-1Zm21 44 2 1-2-1Zm-43-74 5 2-5-2Zm25 32Zm-1-1v1-1Zm1 18ZM75 455l1 1a161 161 0 0 0-1-1Zm227 226Zm382 40c2 2 3 5 3 9 0-4-1-7-3-9Zm-373-52Zm-5 4 1-1-1 1Zm1-2 1-1-1 1Zm-4 7h1-1Zm406 94c7 0 2-5-2-10 5 5 9 9 2 10ZM89 542c-2-4-4-6-8-6 3 0 6 2 7 6Zm29 56Zm569 157c1 6 4 9 8 12-4-3-7-6-8-12Zm-378-75 4-7-4 7Zm47 58v-1 1h-2 2Zm-66-19 2-10-2 10Zm389-4-7-2 7 2 3 4-3-4Zm-1-12-6-2c5 1 8 2 11 5-2-1-3-3-5-3Zm-387-11Zm-8 44Zm0 1Zm1-1v1-1Zm12-52-1 2 1-1v-1Zm186 114Zm288-169-7 3c6-1 12-4 17-8-9 6-19 7-30 8l20-3Zm-181 50Zm150-161v-4l-2 7 2-3ZM495 713Zm9-5h23-23Zm292-106 2-3-2 3ZM473 739Zm-7 10Zm28-41 3 1-1-1h-2Zm15 1h11-11Zm-35 10Zm46-7Zm42-14h-2 2Zm-184-40c0-2-2-3-4-3 2 0 4 1 4 3Z" class="cls-5"/><path d="M213 122a448 448 0 0 0 27 739l-8-6c66 47 148 74 229 77h9c133 3 266-55 351-158 9-11 18-20 25-34 2-1 9-10 12-17 4-3 6-8 9-13l18-34a449 449 0 0 0-672-554Zm668 414c-3 6 1 14-3 20v-6c0 8-1 15-4 22-8 20-25 35-45 42-6 2-14 1-18 6-32 51-95 40-129-3l-18 22c25 32 0 52 19 60 17 11 25 31 23 51 3 9 12 15 17 22 7 10 9 21 11 32 2 10-8 15-14 21l-9 7c-52 42-119 63-184 72a482 482 0 0 1-137-8c-50-10-99-30-139-62-4-4-21-13-20-18 3-9 6-18 14-23 5-4 5-7 4-13-5-21 5-41 22-52 3-2 4-3 4-7 0-16 8-30 20-40l2-2c3-2 4-5 3-10l3-20c3-3 2-6-1-9-12-12-25-24-32-39-30 34-74 53-113 19-2-1-5-3-6-6-4-9-12-8-20-10-5-1-9-4-13-6-18-9-29-24-32-42-1-7-1-14-5-20-14-15-17-36-15-56 7-14 4-29 1-44 2-8 11-18 9-26-9-20-3-45 14-57 3-5 1-13 3-18 3-11 9-21 18-29l2-5c-6-26 11-53 36-61 5-2 5-7 7-10 7-14 17-23 29-32l26-12c1-35 23-31 32-55 8-25 32-41 58-39 10 0 14-13 27-16 8-4 18-1 27-2 14-14 36-22 55-12 7 2 16-6 23-8a63397 63397 0 0 1 21 0l17 4c7 0 15-4 22-6l2-2c10 0 19 3 29 7l5 1c15-9 33-7 48 0l14 11c10 0 20-1 29 4l-3 2 3-2 1 1c5 5 12 9 16 14 3 5 4 11 10 13l21 8c12-1 24 3 34 10 7 8 14 17 14 29l3 3c12 3 21 10 30 17 7 8 12 16 15 26 1 4 0 10 4 12 19 5 31 21 37 39 0 11 15 9 20 15l21 19c6 14 13 28 12 44l3 6c19 15 27 37 22 60l2 6c10 13 15 26 12 42-1 10-9 20-3 29 9 25 2 50-13 70ZM564 700Zm-88-14Zm89 48Zm298-210-3-1 3 1Z" class="cls-5"/><path d="M872 511c3-6 5-13 5-20v1c-1 7-2 13-5 19ZM556 709Zm-39-21Zm35-9v1Zm306-131c0-6 0-11-2-17l7-7-7 7 2 17Zm-129 42 4-4v-3c1 3-1 5-4 7Zm33-113 4 1-4-1Zm4 1h1-1ZM553 681l2 4-2-4Zm208-203ZM558 690Zm211-210ZM552 680l1 1-1-1Zm-78 40Zm-5-5h-1v1l1-1Zm288-238h3-4l-7-5 7 5h1ZM595 650c-4 2-6 6-10 9 4-3 6-7 10-9Zm-105 59h-1 1Zm-50 49Zm179-91c-6 2-10 0-14 0h14Zm-151 53v3-3Zm4 17 1-3-1 3Zm3-5 4 1-4-1Zm84-41Zm-1-1 1 1-1-1Zm184-224 7 6-7-6ZM574 691Zm-136 67h-1 1Zm124-63v1-1Zm-87 46Zm160-107Zm-88 108Zm-10 1Zm-7-11Zm149-173ZM487 741Zm77-2 2-1h-1l-1 1Zm68-36Zm-149 35 2 3-2-3Zm51 2 2 3-2-4v1Zm-4-8Zm10 10Zm-7-5Zm225-301ZM560 718Zm-65-4h1-1Zm71 18Zm-6-15Zm-64-3h1-1Zm0 0Zm267-292Zm-69 111a47 47 0 0 1-12 24l2-1c6-8 9-16 10-23ZM550 712Zm172-87 16 7a18081 18081 0 0 1-16-7Zm36-188v-1 1ZM563 722Zm0 0Zm203-469ZM432 754l-1 1c-3-4-6-5-9-6 3 1 6 2 9 6l1-1Zm123-45Zm6 17Zm311-278ZM561 726Zm305-322-9-8 9 7ZM431 755l3 3-3-3Zm-59-29h6-11 5Zm149 49Zm-49-37h1-1Zm33 21Zm-11-16h2l11 5-8-4-5-1Zm277-476c2 0 2-2 2-4l-2 4ZM517 741Zm46-20v1-1Zm201-456c0 2 1 3 3 3l-3-3ZM463 760c-4 2-7 2-12 2h1c4 1 8 0 11-2Zm30-8-3-10 3 10Zm70-31Zm-29 32Zm317-220ZM393 732h-1l4 1-3-1Zm428-271v2l1 2-1-4Zm0 0Zm-607 24c4 3 7 1 11 0-4 1-7 3-11 0Zm589-83 4-6c-1 3-2 5-4 6Zm9 96-1 5 3-9-2 4Zm19-49ZM386 729l2 2-2-2Zm469-197v2-2Zm-40-88-2-5 2 5ZM399 736l3 5-3-5Zm416-304-1 4-1 3 1-3 1-4Zm2 55ZM293 600Zm504-253 5 3-4-4 2 2-3-1ZM410 741l6-3 3-1c-2 1-5 1-7 3l-2 1Zm383-392ZM474 719Zm-140-79-9 14 9-14Zm181 71 3-2-3 2ZM264 556Zm294 147-6 2 6-2Zm-101 23 1 1-1-1Zm92-23 4-2c-3 2-7 3-10 3l6-1Zm-58 7ZM224 481l1 2-1-2h-1 1Zm221 255h3-3Zm406-203-3-10 3 10Zm-626 78-5 3 7-3 10-7-12 7Zm113 32Zm504-124-3-1 3 1ZM445 741v-3 3Zm-8 8 4-2h-2l-2 2Zm28-14Zm-25 11 11-10-6 5-5 5Zm393-188h-1 1ZM490 710h1-1ZM255 583c3 2 5-1 6-3-1 2-3 5-6 3l7-20-7 20Zm583-93c-3 12-12 20-27 19 15 1 24-7 27-19Zm-17-27 1 5h1-1l-1-5Zm2 5v2-5 3Zm23 53 2 2-2-2Zm2 20Zm1-1Zm-8 8ZM563 720Zm-135 9Zm423-195Zm-573 34 2 5v-3l-2-2Zm185 168 2-1-2 2 2-2-2 1Zm31-24Zm0 1h1-1Zm-45 42 3-2 3-4-6 6Zm116-20Zm-130 23Zm322-271c-2-3-5-7-1-10-4 3-1 7 1 10ZM610 650h-5 5Zm-46 59c2 0 3 0 4-2-1 2-2 2-4 2Zm-72 1Zm265-222ZM444 711Zm17 0h2a600 600 0 0 0-2 0Zm-103-40 3 1-3-1Zm114 43Zm-35 44Zm36-44 1 1-1-1Zm285-224h5-5Zm97 71-1 4a55 55 0 0 0 1-4ZM460 725l3-10v-2l-3 12Zm-62-24Zm-75-45Zm458-321c3 0 7 1 9 3-2-2-5-3-9-3ZM561 675Zm239-280Zm-25 205 6-6-6 6Zm-147 41-9 7 1-1 8-6Zm166-274-1-3 1 3ZM601 649Zm-252 1Zm464-288 8 20-8-20Zm-21-1Zm-9 225c0-2 0-4-3-6l3 6Zm24-233 1 1-1-1Zm0 36v-5 5ZM438 687l2 1-2-1Zm331-180Zm15 54Zm-2-69Zm74 52Zm-78-10Zm-15-9h-1c-2 11-1 20 4 27-5-8-6-17-3-27Z" class="cls-5"/><path d="M304 426Zm-31-1 5 6-5-6Zm395 24 1-22-1 22Zm16-21-8 1h-2c3 1 7 1 10-1Zm-44-60c-1-5-4-9-8-13l-10-8c8 5 15 12 18 21Zm-6 6 9 11 1 1 1 3-1-5v2c-3-5-6-9-10-12Zm-304-34Zm-3 11 8-11-8 11Zm-2-11-3 6 3-6Zm136 107-6 1h1l5-1Zm123-107c-5 1-10 2-15 5 6-3 11-4 17-5h-2Zm80 0Zm-335 24h1-1Zm31-15h1-1Zm-56 77Zm254-80Zm142 49 1-1-1 1Zm-435 27-1 1 5-2-7 1h3Zm428-25Zm-397 40c-4 2-10 1-14-1 4 2 10 3 14 1Zm110-18h3-3Zm-138 15v-2 2Zm36-6Zm-36 6c-2 5-2 10 4 15-6-5-6-10-4-15Zm43-19-2 1 4-2-2 1Zm-42 15Zm-1 2 1-2-1 2Zm146-54-3-11 1 7c-13-17-32-27-51-25 21-2 41 10 53 29Zm292 79Zm-375-94v1-1Zm69-23a52 52 0 0 1 1 2l-1-2Zm-78 27-6 3 4-2 2-1Zm374 50c2-4 3-9 2-13l-2 13Zm-382-45-1 3 1-3Zm-2 14 2 17c0-6 0-12-2-17Zm386 18c0-3 1-5 3-7-3 2-3 4-3 7Zm-254 46 2-1-2 1Zm-85-58c-3-8-18-7-20 4l2 7c9 8 22 0 18-11Z" class="cls-49"/><path d="M344 382c-3 2-6 6-5 12 0-6 2-10 5-12Zm-3 21c-5 4-7 8-7 12 0-4 2-8 7-12Zm85 55Zm-42-68Zm16 26h-7 7Zm-43 24Zm65 23v-1 1Zm-8-45-2-1h-3l5 1Zm9 43Zm1-1v-1 1Zm-88-84 1-1c-8 5-14 13-19 23l-1 5c3-11 10-21 19-27Zm70 20Zm-14 11v6l1 3-1-9Zm-69 37-5 2 9-2h-4Zm17-16Zm113-15Zm85 5 1-10a497 497 0 0 0-1 10Zm-76-2Zm162 34h1-1Zm-177-31Zm131 8c4 2 6 3 7 5-1-2-3-3-7-5Zm59 28a47 47 0 0 0-1-1l1 1Zm-96-72-1 9 3-10-2 5v-4Zm-128-43Zm35 79Zm99-53 2-11-2 11Zm-123 57-1-2 1 2Zm122-47a74 74 0 0 1 2-4l-2 4Zm-45 35Zm-82 9-1-1h-3l4 1Zm85 27 1 1-1-1Zm-77 10h1-1Zm25-3h-4 4Zm2-4Zm74 13-5-4 5 4Zm6-4 1 1-1-1Zm2 2Zm-106 2Zm40-3 8-1-8 1Zm-23-6-3 1h1l2-1Zm25 6h-3a177 177 0 0 0 3 0Zm16 0-2-1h-4l6 1Zm2 3v-2 2Zm9-3c-2 1-4 0-6-1 2 1 4 2 6 1Zm33-2Zm-46 1Zm22-6Zm-71-1 1-1-1 1Zm5-2h1-1Zm-3 1 2-1-2 1Zm-4 2 1-1-1 1Zm-2 0h1-1Zm-4 3v-1 1Zm2-1v-1 1Zm54-9Zm-159-93Zm182 95Zm2 0Zm28-30-2 3 2-3Zm-91 31h1-1Zm16-2h1-1Zm83-29Zm80 10-6 6 6-6Zm-360 35c2-3 2-5 1-8l-1 8v-1Zm367-90Zm-86 45Zm-232 9h1l1 4a47 47 0 0 1-2-4Zm233-10h1-1Zm82-11v1-1Zm-30-44Zm-57 57Zm-224 19v-1 1Zm185 9h-1l-17-1 17 1h1Zm46-31zm45-42h1-1Zm-36 12v-1 1Zm11-38h1-1Zm23-7Zm-22 6Zm-256 54 3-3c-2 0-3 2-3 3Zm234-55Zm-5 73Zm5-73ZM295 462Zm246-43Zm4-40Zm-6 39 1 1-1-1Zm56-77h1-1Zm-46 5Zm24 69h-2 2Zm23 14 3 1-3-1Zm-10-9Zm-323 12 6-11-6 11Zm321-13Zm48-3Zm-6 21-6-3-6-1 12 4Zm-11-63c8 3 16 12 11 21 5-9-3-18-11-21Zm-33 7c-9 8-15 21-11 34l-21 1 21-1c-4-13 2-26 11-34Zm66 16Z" class="cls-49"/><path d="M606 391c-3 10 9 20 19 10l1-6c0-12-16-13-20-4Zm-293 23 2 13-2-13Zm332 23-4 7 2-3 2-4Zm-4 7Zm-223-76Zm246 95Zm3-9Zm-405-15c0 3 0 7 3 10-2-3-3-7-3-10Z" class="cls-49"/><path d="M477 962h-23l-4 1h41a893 893 0 0 1 12-1h-26Z" style="fill:#e4964a"/><path d="m471 963-3 1a310 310 0 0 0 23-1h-20Z" style="fill:#fcd5a1"/><path d="m1 479-1-10v-2 34-2c2-6 1-13 1-20Z" style="fill:#ecae71"/><path d="m486 0-26 1h33l-7-1Z" style="fill:#facb9a"/><path d="M716 826h-1l-1-4 1-11c0-3 0-6-2-6v6l-2 21 9-7-4 1Z" style="fill:#3e302c"/><path d="m330 77 6-1h17l3-2h-1c-9 1-19-2-27 2l2 1Z" style="fill:#332728"/><path d="M460 55c-9-3-18-2-27-1l6 1h21Z" style="fill:#352a28"/><path d="m431 755 1-1 5-5 2-2 1-1 5-5v-5h3l4-1 6-8-1-1c-2-2-5-1-8-2-5-1-11 1-16 3l-5 2-4 4-4 3-1 1-3 1-6 3c-4 2-6 2-8 0l-3-5-3-3-4-1-4-1-2-2c-2-2-5-3-8-3h-6l7 6a30 30 0 0 1 4 10 79 79 0 0 1 2 6c2 11 10 19 21 18l6-3a11 11 0 0 0 3-2l2-4c-7-1-14 3-21-2 5-1 9-1 13-3h2l7-3h4c3 1 6 2 9 6Z" style="fill:#d67537"/><path d="M322 836a124 124 0 0 0-16-25c-3-2-4-1-5 1-2 3-3 10-4 13-2 5-2 9-1 13 3 7 10 14 18 20l25 13 7 2v-1l1-2-11-13c-5-6-10-13-14-21Z" class="cls-81"/><path d="M418 830c4 4 9 7 14 9l11-1-8-12c-4-7-9-15-6-25l-1-7v-2l-7 3c-5 4-8 10-9 16-1 7 2 14 6 19Z" style="fill:#ca7238"/><path d="m382 852-3-1-3-1-3-1-3-1-2-1h-1l-2-1-1-1h-2l-1-1-1-1-2-1-2-2c-5-3-9-7-12-12l-4-18-6-3c-2 8-1 16 2 24 5 10 14 19 25 23 7 2 14 3 20 2l8-3-5-1h-2Z" style="fill:#cc7239"/><path d="m482 804 1-1-1-5-4-12v-1c-7-3-14-5-21-3l-4 1-9 5c-2 2-4 5-3 9h20c4 0 7 1 11 3l10 4Z" class="cls-83"/><path d="M566 826a66 66 0 0 1-19-12v-1c-4-3-7-6-9-10-2-1-4-2-5-1l-3 4c0 6 4 15 13 21 7 5 17 7 28 4l-5-5Z" style="fill:#cc7339"/><path d="m625 748 1-3-1-1c0-2-2-2-4-2l-2 1-2 2-5 4-16 14-13 11 7 1c13 0 29-12 35-27Z" style="fill:#ce7438"/><path d="m490 742 3 10c1 4 1 7 3 10l3 3a39 39 0 0 0 21 10h1a39 39 0 0 0 11-1h3l5-2 2-2-24-4-13-7c-4-4-8-9-9-16h-2l-4-1Z" style="fill:#cd7239"/><path d="m650 795-7 1c-5 0-9-1-14-4l-5-1c-1 4 0 8 2 10 2 4 7 6 13 6 5 0 11-2 16-5l1-2 6-6 2-6a64 64 0 0 1-14 7Z" style="fill:#cd7339"/><path d="m686 820-5 2-5 6-3 5-1 5 2 4 4 1c6-1 13-10 14-16l-3-4-3-3Z" style="fill:#f09957"/><path d="m451 886-1-1a13 13 0 0 0-3-5h-1l-4-1-13-3h-1l-1-1h-9v2l9 8 9 2c4 1 8 2 11 1a14 14 0 0 0 2 0l3-1-1-1Z" style="fill:#ee934f"/><path d="M654 741v10c0 3 2 7 3 8l5 2 2-2a12 12 0 0 0 2-5l1-8-4-8-2-1h-5l-2 4Z" style="fill:#f09859"/><path d="M490 836c2 4 6 7 11 9 3 2 6 2 10 3h5l4-1 7-5h-12c-6 0-9-1-12-3s-6-4-8-8l-5-6c-2 4-2 7 0 10Z" style="fill:#d07539"/><path d="m611 812 2-7-1-5-2-2-4-1-2 1-1 2-5 11c-1 4-2 8 1 9l3 1 4-2 5-7Z" class="cls-17"/><path d="m467 870 1-4a15 15 0 0 0-9-13h-4v1l-2 2v7l1 5 2 4c3 2 8 1 11-2Z" style="fill:#ef9757"/><path d="M485 808c2-2 3-4 3-8s-1-8-4-11a16 16 0 0 0-3-2v-1h-1l-2-1v1l4 12 1 5-1 1-10-4c-4-2-7-3-11-3v1h2c3 1 6 4 9 7l7 4c2 0 5 0 6-2Z" class="cls-82"/><path d="m513 888 4 1c6 2 13 1 20 2l3-2 1-1h1c-15-9-24-8-29 0Z" style="fill:#ee954f"/><path d="M344 828c2-2 3-5 3-7v-17h-1v-1l-1-1h-1a7 7 0 0 0-2 0v1l-1 4-1 3 4 18Z" style="fill:#f19451"/><path d="M620 858v-1l1-5-4-5h-1l-2 5a286 286 0 0 0-4 10l2 2c3 0 6-3 8-6Z" style="fill:#f09853"/><path d="M548 854v4c2 3 6 5 12 4l1-2-6-5c-4-2-6-2-7-1Z" style="fill:#ef9654"/><path d="M621 742c2 0 4-1 5 2v1c2-6 4-12 2-19l-2 4-3 6-1 2-3 4v1l2-1Z" style="fill:#d37537"/><path d="M722 613a219 219 0 0 1-4-32v-2l1-25 5 5h2v-17a397 397 0 0 0-2-25v-3l3-21 2-10 3-6 5-11 1-4-3-9-1-2a45 45 0 0 1 2-23h-2l-3-1a37 37 0 0 0-5 0l-5 1v9l1 7c0 3-2 7-4 11l-4 12c0 2 2 3 4 3v5h-6c-2-1-4-1-6 1l-2 2a9 9 0 0 1-5 3l-5 2a19 19 0 0 0-3 3l-2 4-1 2-2 1 4 14 1 4c3 7 4 15 3 22s-4 15-10 23l5 26c4 11 9 22 16 30a54 54 0 0 0 20 15l-3-14Z" class="cls-120"/><path d="M619 667a26 26 0 0 1-14 0c-2 0-5 1-8 4a136 136 0 0 1-14 14l-9 6-12 7h-2l-7 3-4 2 3 2 6-2 6-3 3 1 1 6c-1 2-2 2-4 2h-9l-5 3 9 5h1v1l2 2h1v2l-2 3v1l-7 9 14-6-2 3-1 2v4h1l3-3 5-5 6-3v-1h5c20 0 35-10 47-23 9-11 16-24 21-37l1-1-7-16a69 69 0 0 1-28 18Z" class="cls-127"/><path d="M686 553a46 46 0 0 0 6-42l-2-4c-3-9-6-17-11-24l-6-7-7 2c-2 1-4 0-8-3l3 10 6 22 1 12-2 15-10 19-3 7c-5 8-21 18-31 15l6-15-1-12c-1-4-3-8-6-11 0 7-3 14-7 20s-11 11-17 14c-5-1-7 4-10 6l-1 3 2 1 4 3 7-2 7-2a6 6 0 0 1 8 2c23 13 45-7 58-25l2 1 3 1h2l3-2 4-4Z" style="fill:#cb6f35"/><path d="m635 634-7 7a47 47 0 0 1-9 7l-9 2h-6l-3-1c-2-1-4 0-6 1-4 2-6 6-10 9a111 111 0 0 1-33 20v1l1 1 2 4c0 2 1 4 3 5l1 1h1c3 1 3 2 2 4v1l-1 2h1a78 78 0 0 0 21-13 101 101 0 0 0 14-14c3-3 6-4 8-4 4 0 8 2 14 0 6-1 15-6 28-18l-3-3-9-12Z" class="cls-137"/><path d="M750 632h-11a39 39 0 0 0 31-3l-20 3Z" style="fill:#db8c53"/><path d="M622 106v6a131 131 0 0 0 0 8 48 48 0 0 1 7-1l-4-3v-3l-1-6-2-3v2Z" style="fill:#312829"/><path d="m882 535 1-1-1 1Zm-1 1a10 10 0 0 0-3 5v15c4-6 0-14 3-20l1-1-1 1Z" style="fill:#e6ae6e"/><path d="m856 531-1 1v2a53 53 0 0 1 1 10l-1 17 1-2 2-11-2-17Z" style="fill:#dc8e51"/><path d="m614 73 2 1 1 1 3-2c-9-5-19-4-29-4l10 1c5 0 10 0 13 3Z" style="fill:#2f2728"/><path d="M263 551v-1l-1-1v-2l-4-9v-1l-1-1v-2h-1v-4l-1-1v-2l-1-8v-14l-1 3-2 8h-1l-3-10c0-2-1-3-4-2l-8 4c0 1-1 3 3 3h3c1 7 6 12 2 19l-6-1c-2-1-4-2-3-5 1-2 2-3 1-5l-2-5-1-1v3l-1 14v10l-3 1c1-16-1-32-9-47l3 2c3 1 4 3 9 13l1-3 3-8c1-2 3-2 5-2l2-2-1-4a18 18 0 0 0-2-3l-3-5-1-3 6 4 3 2h1l4 2v1l5 5 1-2-2-4-1-1a69 69 0 0 1-6-4l-6-4-2-2-7-11-1-2-1 4-1 3-6-9-2 3-4 8a48 48 0 0 0-11 13c1-4 0-9-5-13 0 6-3 11-1 17 1 4 1 8 5 10l1 1v1l-1 2-8 17-1 1-1 1c-3 4-7 6-12 7l-6 11-7 12a322 322 0 0 1-9 15v1c-2 4-2 9-2 14 0 6 2 11 6 16a43 43 0 0 0 25 17h21l15-4 12-7c7-6 13-13 18-21l7-20 2-7-1-5Zm-49-66c-1-5 6-4 9-4h1l1 2 1 1v1h-1c-4 1-7 3-11 0Z" style="fill:#d37436"/><path d="m338 663 20 8 3 1 5 3 6 8a102 102 0 0 0 43 24 205 205 0 0 0 73 2l6-1h2-1 32l16-4a110 110 0 0 0 17-6h1l1-2v-1c1-2 1-3-2-4h-1l-1-1c-2-1-3-3-3-5l-2-4-1-1v-1a318 318 0 0 1-35 9 468 468 0 0 1-31-1c0 4-2 6-7 3v-4a184 184 0 0 1-38 2h-1l-2-1a78 78 0 0 1-60-29c0-2-2-3-4-3h-1a59 59 0 0 1-24-5 82 82 0 0 1-6-3l-5-4-4-3-9 14-2 2 15 7Zm167 33-14 6c2-7 3-10 14-6Zm-16 13Z" style="fill:#b05f32"/><path d="M378 726c3 0 6 1 8 3l2 2 4 1h1l3 1 3 3 3 5c2 1 4 2 8 0l2-1c2-2 5-2 7-3l1-1 4-3 4-4 5-2c5-2 11-4 17-3 2 1 5 0 7 2l1 1 2-2 3-12v-2h-2a196 196 0 0 1-46-4c-6-1-12-3-17-6a78 78 0 0 1-32-26 53 53 0 0 0-8-4l-20-8c-5-1-10-4-15-7-2 5-2 9-1 14l4 16h3c4 1 6 3 9 6a53 53 0 0 0 7 9c5 6 9 11 12 17h-15a9 9 0 0 0 0 2h1c3 7 15 6 24 6h11Z" class="cls-130"/><path d="M283 569h1l1 1h3l5-1h2c2 0 3 0 5 2l6 7a53 53 0 0 0 23 11l10 1a44 44 0 0 0 15-5c-2-3-4-7-9-6l-1 1-5 2h-1c-12-2-22-7-29-15l-2-2-1-2-1-1-1-1v-1l-1-1-1-1v-1l-1-1v-2h-1v-2l-1-1v-2l-1-2-1-2v-4l-1-1v-13l1-5a29 29 0 0 0-9 14l-2 11c-3-1-5-4-7-7-4-5-6-11-6-18v-21l2-18a564 564 0 0 0-2-4l-1 1h-1l-1 1-2 1h-2l-2 1-7 2v-2l1-3-9-5-4-2v8l1 1 2 2 5 3 2 4-1 2a187 187 0 0 1 0 10v2a7991 7991 0 0 0 1 22v2l1 1v4h1v2l1 1v1l4 9v1l1 1v2l1 5 1-1v-1l6 6 7 8 2 2 3-1Z" style="fill:#c76d35"/><path d="m225 611-15 4h-21c3 2 6 3 10 3 7 1 14-2 21-4l5-3Z" style="fill:#c37847"/><path d="M565 735v-1l1-2 2-3-14 6 7-9 2-4v-2h-1l-2-2v-1h-1l-9-5 5-3h9c2 0 3 0 4-2l-1-6-3-1-6 3-6 2-3-2-6 1-16 4v1l-4 3h-3l-5-1 3-2h2-11a559 559 0 0 1-12 0l-3-1-6 1a11 11 0 0 1 1 0 7 7 0 0 1 1 1h2l2 2v1h1v1a5 5 0 0 0 1 0 5 5 0 0 0 2 1c-2 4-7 6-20 6l1 12 4 5 2 3h2l6-3 13 2c4 1 8 2 11 1l7-2c-1-3 1-5 3-6l3-1c2 1 3 2 3 4v1l1 2 2 4h1l3-1h7l4-1h1c1-2 2-2 3-2 2-1 5 0 7 2l2-2 1-1v-3Z" class="cls-130"/><path d="M487 709h1" style="fill:none;stroke:#d57536;stroke-linecap:round;stroke-linejoin:round;stroke-width:0"/><path d="m555 739-3 2h-1l-4 1h-7l-3 1h-1l-2-3-10-1-7 2c-3 1-7 0-11-1l-13-2-6 3h-2l-2-3-4-5-4-1-2 2-1 3v1h1v1l2 1a3 3 0 0 1 0 2c-3 1-6 4-9 7l-8 5-6-1-3 2-9 3h-6l17 4c5 0 8 0 12-2l1-1 11-8 13 10 8 1c-2-3-2-6-3-10l-3-10 4 1 5 1 8 4c9 5 18 6 27 5 10-1 19-5 28-12-2-2-5-3-7-2Z" style="fill:#d57637"/><path d="M342 766c-8-6-16-18-25-21-3 1-4 3-3 5 0 3 1 7 3 9 6 7 15 7 25 7Z" style="fill:#cd7238"/><path d="M435 758h5l9-3 6-6 8-12 2-2-2 1 2-1 1-5 2-7v-3l-1-3-4-2a27 27 0 0 1-5 12 47 47 0 0 1-6 8l-1 1-11 10-1 1h2l-4 2-5 5-1 1a424 424 0 0 1 4 3Z" style="fill:#c96f36"/><path d="M445 736v5l6-5 1-1-4 1h-3Z" class="cls-130"/><path d="M463 711a149 149 0 0 0 0 4l4 2 1-1v-1h1l3-1h1l1 1v5l-4 1h-2v2l-2 7-1 5-2 2-8 12-3 4 6 1 8-5c3-3 6-6 9-7a3 3 0 0 0 0-2l-2-1v-1l-1-1 1-3 2-2 4 1-1-12c13 0 18-2 19-6v-1h-2v-1h-1v-1l-2-2h-2v-1h-2l-11 1-14 1Z" class="cls-127"/><path d="m464 759-1 1c-3 2-7 3-11 2 9 9 25 5 36-1l-13-10-11 8Z" style="fill:#de7d3c"/><path d="M723 345v-2l4-2 4-1 1 1-7 6a27 27 0 0 1 1 7c1 4 0 7-1 11-2 4-3 8-3 13l3 12 4 6c2 4 2 8 0 11l-7 5h-5l4 16 5-1h5a66 66 0 0 0 5 1l8-22c2-8 3-15 1-23 3 1 7 5 10 8 4 4 9 6 12 1l1-2 3-6c2-5 3-10 1-15v-1c-1-5-1-8 1-11l4-12c1-4 0-10-3-17-8-19-26-33-31-53a167 167 0 0 1-1-10l-4-18c-2-5-5-10-9-14h-1l-7 10 5 7 4 2 3 4 2 7v1c2 1 3 2 3 4l1 6-4 6-4 3-10 7 5 4c5 4 10 10 12 16 2 7 2 15-3 20-3 4-9 7-17 9l2 4 2 3 1-1Z" class="cls-123"/><path d="M766 552c4 4 10 8 18 9a11 11 0 0 0 7-1l1-2c0-2-3-3-4-5-7-5-9-12-10-19v-10c1-11 5-22 6-32h-2l-5 3-8 12-6 18c-3 10-2 19 3 27Z" style="fill:#cb7238"/><path d="M838 490c3-13 0-30-7-41-5-6-10-11-17-13l-1 3 2 5 1 2 5 15 1 4-1-2 1 5h1v-3a77 77 0 0 1-3 15l-3 7-3 7-3 9v6c15 1 24-7 27-19Z" class="cls-83"/><path d="m830 409 2 6 6 9 5 5a248 248 0 0 0 21 20v-1l1-2a81 81 0 0 0-18-32c-5-6-11-10-18-14l1 9Z" class="cls-19"/><path d="M807 396v-12c-5-12-8-24-14-35l-2-3 6 1 3 1-2-2-8-8c-2-2-6-3-9-3l11 26 1 3a239 239 0 0 1 7 31l1 3v2l2 2c2-1 3-3 4-6Z" style="fill:#d57639"/><path d="M753 410c-2 6-2 12 0 18a24 24 0 0 0 5 9l10 6c4 0 7 1 9-3l1-2-1-2-1-1-3-2a417 417 0 0 1-20-23Z" style="fill:#f09855"/><path d="m831 550-5-5-5 9-3 11 1 3v1h7l2-1c2-3 4-6 4-10h1v-1a14 14 0 0 0-2-7Z" class="cls-17"/><path d="M838 522c6 8 5 17 3 26l7-7 1-1 2-6v-1l-3-10-3-2-3-2-3-1-1 4Z" style="fill:#ef9755"/><path d="M739 514v-10l-5-6-1 1v27l1 1 3-6 2-7Z" style="fill:#ee9450"/><path d="m781 594 1-3 1-5-3-6-11 21 6-1 6-6Z" style="fill:#ee924b"/><path d="m733 583-3-5c-7 4-9 9-5 16l4-4c3-2 5-4 4-7Z" style="fill:#ee934e"/><path d="m791 346 2 3c6 11 9 23 14 35l16 5-2-7-8-20-5-8-1-1-1-1-4-2a28 28 0 0 0-11-4Z" style="fill:#ef9656"/><path d="M810 301c-4-5-10-10-16-13l-7-2-1 4 1 4a145 145 0 0 0 8 9l16 15 13 12 2-1-3-10c-3-6-8-13-13-18Z" style="fill:#f19856"/><path d="M773 263a18 18 0 0 0-7-10l-3 7h1v5l3 3h3l1-1 2-4Z" style="fill:#f09453"/><path d="M585 593c3 2 5 2 7 1 4-1 7-4 9-8l3-5-5 1-7 2-6 7-1 2Z" style="fill:#e58e4f"/><path d="M684 428c4-2 9-6 12-11 2-4 2-9 2-13 0-3 0-5 3-7l9-6c4-4 5-11 3-21l6-2c-2 5-2 10-2 14 1 6 4 10 6 14v1c2 2 2 4 2 6 0 1-1 3-4 4l-8 3c1 9 2 22-1 33l-2 7-4 7c-2 3-5 5-9 6l-7 2-4 2v2l9 1h1l5-2c7-2 12-8 15-14a66 66 0 0 0 5-21v-5l-4-16h5l7-5c2-3 2-7 0-11 0-2-2-4-4-6-3-4-4-8-3-12 0-5 1-9 3-13l1-11v-3l-3-6-1 1v4c1 3 0 7-1 10s-3 5-5 6l-7 1v14c-1 5-3 10-8 13l-1 1-7 2c1 14-3 26-17 32l8-1Z" style="fill:#be6936"/><path d="m720 439-1 6-3 9c-5 10-10 13-15 14l-5 2h-1 1-1c-2 1-4 2-4 4l-2 7-2 10-1 2 2-1 1-2 2-4 1-1 2-2 5-2 4-2 1-1 2-2c2-2 4-2 6-1h6v-5c-2 0-4-1-4-3l4-12 4-11a13 13 0 0 0-1-8l-1 3Z" class="cls-123"/><path d="m687 491 2-10 2-7c0-3 1-4 4-4h1-1l-9-1-5 16 5 10v-2l1-2Z" style="fill:#b46333"/><path d="m637 228 5 5c2 2 5 3 8 3h1l4-1c2 0 4-2 4-4a7 7 0 0 0 1-1l-1-5-5-8a53 53 0 0 0-23-15l-3 7 9 19Zm2-16h2l7 4 7 12-1 3c-2 2-6 0-9-2l-4-3-4-10c0-2 0-3 2-4Z" style="fill:#fcc588"/><path d="m643 161-2 1v9c1 2 3 5 6 6h8l5-10-9-6h-8Z" class="cls-63"/><path d="m664 463-14-12-14-9-10-5-12-4-15-3-3-1a33 33 0 0 0-12-10 50 50 0 0 0-11-4h-2l-21 1-1 1h-1a16 16 0 0 1-2 1l-2 1h-3a12 12 0 0 1-3-1l-2 3-2 3c15-3 30-4 44 3 4 2 6 3 7 5s0 5-2 9c11-1 22-5 33 1l-7 5 5 2c3-1 7 0 10 1h1c4 1 8 2 12 5 7 3 12 8 16 14 4 5 8 10 13 9l7-2-9-13Z" style="fill:#d37438"/><path d="m595 571 3-9 1-7-2-10c-1-2-3-4-6-5v11c-2 9-6 15-13 18l-6 3 9 7 3 1h2l1-3c3-2 5-7 10-6h-2Z" style="fill:#d47337"/><path d="M243 388Zm5 27Zm-18-195-8 15-7 14c-5 6-9 15-8 23l1 17v2l-2 7-13 13c-3 4-6 9-6 14-1 4 1 9 4 14h1c1 2 2 4 1 6l-1 5-2 5a65 65 0 0 1 7 14l1 10c0 3-1 7-3 10v3l3 6 1 4c2 3 4 7 3 12 1 9 0 20-1 29a133 133 0 0 1-8 40 78 78 0 0 1-11 45v1c5-1 9-3 12-7l1-1 1-1 8-17 1-2v-1l-1-1c-4-2-4-6-5-10-2-6 1-11 1-17 5 4 6 9 5 13l3-4 8-9 4-8 2-3 6 9 1-3v-8l1-12 4-8 1 16 8 14a35 35 0 0 0 15 11l1-2 6-14 1-1 1-8-2-6c-2-3-3-7-3-10l1-7 6-11-5 2-6 1-6-2-4-3v-4l2-4 2-2c3-5 4-10 4-14 0-5-1-9-4-13l-9 6h-1c-4 2-8 1-12-1-8-3-12-14-13-26a63 63 0 0 1 1-27l1-4 1-3a223 223 0 0 1 8-20l1-6-1-1-2-2a18 18 0 0 1-8-21 18 18 0 0 1 5-10c4-4 10-6 16-8l-2-3-3-5-1-2-2-4-1-10 1-8-1-7Zm-4 186 3-4 4 3-3 19c-2 6-5 12-9 16l-1 1c-2 2-4 2-6 2l-3 1 2-6c9-9 13-20 13-32Z" class="cls-120"/><path d="M249 488v-1a35 35 0 0 0-5-2l-3-2-6-4 1 3 3 5 2 3 1 4-2 2c-2 0-3 0-5 2l-3 8-1 3v2l2 3 2 5c1 1 0 3-1 5-1 3 1 4 3 5l6 1c4-7-1-12-2-19l-3-1c-4 1-3-1-3-2l8-4c3-1 4-1 4 2l3 9 1 1a32 32 0 0 0 3-13v-10l-5-5Z" class="cls-120"/><path d="m243 469-8-14c-1-5-2-10-1-16l-4 8-1 12a31 31 0 0 0 9 16c2 3 4 5 7 6 1-4 0-8-2-12Z" class="cls-108"/><path d="M231 509c-5-10-6-12-9-13l-3-2c8 15 10 31 9 47l3-1v-10l1-14a45 45 0 0 0-1-7Z" style="fill:#c66f34"/><path d="M225 485h1v-1l-1-1-1-2h-1c-3 0-10-1-9 4 4 3 7 1 11 0Z" class="cls-120"/><path d="m423 645-2-4c-2-3-3-7-3-10v-23h-2l-12-1h-4a168 168 0 0 1-9-3l-1 8-1 8 8 5 8 14c4 6 7 12 14 17l9 6 4 1 1-1v-1l-2-3-8-13Z" style="fill:#e79151"/><path d="M375 588a297 297 0 0 1-18-5l-5 3-13 4-10-1a127 127 0 0 0 15 9c9 4 19 7 29 6l12-3-10-13Z" style="fill:#e68947"/><path d="m487 687-8-1v4c5 3 7 1 8-3Zm4 15 14-6c-11-4-12-1-14 6Zm4 6h1l1 1h30v-1h-32Z" class="cls-137"/><path d="m263 432-1 7c0 3 1 7 3 10l2 6c1 3 1 5-1 7v1l-1 1-6 14a32 32 0 0 0-2 7 28 28 0 0 0 9-2l2-1 2-1 1-1h1a67 67 0 0 1 3-2v5l-1 14c1-6 4-12 7-18a78 78 0 0 1 37-33l5-2-4-6v-1a45 45 0 0 1-4-10l-2-13-4 2-4 5-1 5v2c0 3-1 5-3 7l-5 2c-4 2-10 1-14-1l-10 13c-6-5-6-10-4-15v-2l1-2 3-7-3-2-6 11Z" class="cls-108"/><path d="m357 583 15 4h6l4-2h8l1-3v-1l-1-1a14 14 0 0 0 0-1l-2-4h-1l-1-1h-1c-2-1-4-2-6-1l-2 4c-4 3-8 2-12 0l-10-6-2-1c-8-8-14-16-10-28v-3l-3 2-3 3-2 6c-1 5 1 11 4 17l6 12c4-1 7 3 9 6l3-2Z" style="fill:#cf7238"/><path d="M158 361a67 67 0 0 1 18-43l8-9c1-8-4-7-10-3-8 5-19 16-20 20l-7 14-3 18 4 8h2a16 16 0 0 0 8-5Z" style="fill:#f09857"/><path d="M118 458v-1l5-8a79 79 0 0 0 3-6c4-11 7-24 15-33 3-5 7-8 9-13a11 11 0 0 0 0-3c-2-1-4 0-7 1l-7 4-9 6a55 55 0 0 0-9 53Z" class="cls-19"/><path d="m197 369-2-4-5-10h-4v1l1 3c4 6 4 12 2 18-1 7-6 15-11 22l-2 5-3 5-1 1v4l2 1c1 1 3 0 4-1l2-1 6-9 8-13 4-12-1-10Z" style="fill:#f09653"/><path d="M176 318a67 67 0 0 0-18 43v2l1 1a10 10 0 0 0 2 2l2 2 2-4v-6l2-7 7-17 7-14 1-2v-1l-2-3-4 4Z" style="fill:#dc7c3d"/><path d="m123 467-2-4-3-5c-6-18-3-38 9-53l-2-3a49 49 0 0 0-15 31v1c-2 13 1 27 11 35l1 1h1v-3Z" style="fill:#d97a3b"/><path d="M131 548a244 244 0 0 0 8 13v1l6 4 6 4 2-1 1-3v-1l-8-3c-7-6-11-12-14-18-3-8-5-17-4-26v-14c-3 4-4 9-4 13a56 56 0 0 0 2 19l5 12Z" style="fill:#d8783b"/><path d="M196 233c-4 2-7 5-10 9l-2 7c0 4 1 8 4 11l11-21-3-6Z" style="fill:#f09654"/><path d="m157 288 2 1h1l3 1h1l7-4 8-7 3-4c-6-1-14 3-26 12l1 1Z" style="fill:#ef9351"/><path d="M416 155v-5l-1-1-1-3c-2-3-3-4-5-4l-6 4-8 6-10 8-1 1c-3 3-5 7-6 11-1 3 0 6 1 9 2 2 5 3 8 2l7-3 14-10c4-4 7-9 8-15Z" style="fill:#fdc88b"/><path d="M522 135a58 58 0 0 1 31-2c7 2 11 3 9-3l-6-5-10-5h-1c-5-2-10-3-15-2-5 0-10 2-14 5h-1a23 23 0 0 0-2 2v7l4 3a25 25 0 0 0 5 0Z" style="fill:#fcc484"/><path d="m353 254-2-2-2-1h-2l-8 3-1 1c-5 5-3 11-3 17 0 3 4 6 6 7h4l7-4c2-3 4-6 4-10v-8l-3-3Z" style="fill:#fdcb92"/><path d="m282 310 1-1 1-1 2-2a17 17 0 0 1 4-4c3-2 5-4 5-7 1-3 1-6-1-9-6-1-11 0-15 4l-2 11 1 3 4 6Z" style="fill:#fdc587"/><path d="M594 113h-4l-3 1-3 4c-2 5-1 11 3 15l3 2c2 0 4 0 6-2s3-5 3-8v-1c0-4-1-9-5-11Z" class="cls-66"/><path d="m254 231 1 4 5 7 5 3c4-2 10-4 9-9v-1l-5-5-9-6-4 1-1 1v1l-1 4Z" style="fill:#f9b06a"/><path d="M358 150v-1c1-2 1-4-1-5-3-1-5 0-7 2l-7 8-6 8-1 7h1l9-6 12-13Z" class="cls-64"/><path d="m293 151-4 6-2 5 2 4 2 1 5-3 6-8 2-9-1-4-5 3-5 5Z" style="fill:#fcc686"/><path d="m240 210-6 2-3 6-1 2 1 7v6c3-7 7-12 13-15l12-5-3-2-5-1h-8Z" style="fill:#d27336"/><path d="M397 202v1l5 1v-1h1l8-8 7-6 1-5h-4c-1 2-5 4-9 6l-10 8 1 4Z" style="fill:#fcc585"/><path d="m340 223-11-1-6-1-3 7-9-5v3l4 3c4 2 8 3 13 3l13-3-1-6Z" style="fill:#f0a35f"/><path d="M602 178v1l-4 6v4h1l5-1 7-11 1-3c2-3 3-7 3-10h-2l-6 9-5 5Z" style="fill:#fab46e"/><path d="m218 334-1 3c-1 6-2 16 0 24 1 12 5 23 13 26 3 2 7 2 12 1h1l-11-4-1-1c-5-3-8-9-10-16s-3-16-3-24v-9Z" style="fill:#e68c48"/><path d="M540 94v4l3 2c3 1 5 0 8-2s5-5 6-8l-3-1h-2l-1-1-4 2-6 3-1 1Z" style="fill:#fcc387"/><path d="m335 123 1 2 3 2c2-1 7-3 10-6 3-2 3-4-2-6l-1 1-8 4-3 3Z" class="cls-64"/><path d="m341 229 8-4c4-3 8-7 10-12l-2 1-5 3-3 1-2 1-7 4 1 6Zm-21-1 3-7-5-2h-7l-1 3a5 5 0 0 0 0 1l1 2v-2l9 5Z" style="fill:#f1a35f"/><path d="m274 301 2 8 1 1 3 3 2-3a59 59 0 0 1-5-9v1l-1-2-1-6-1 7Z" style="fill:#f1a660"/><path d="m218 343 1 12v-25l-1 4v9Z" style="fill:#efa362"/><path d="m534 739-1-2v-1c0-2-1-3-3-4l-3 1c-2 1-4 3-3 6l10 1v-1Zm-14-30h-2l-3 2 5 1h3l4-3h-7Z" class="cls-127"/><path d="M468 721h2l4-1v-5l-1-1h-1l-3 1a4 4 0 0 0-2 2v3l1 1Z" class="cls-130"/><path d="m731 283 4-3c2-1 3-3 4-6l-1-6c0-2-1-3-3-4 0 4 0 9-3 12l-3 3-5 5-7 5 4 1 10-7Z" style="fill:#e18343"/><path d="m732 341-1-1-4 1-4 2v2l2 2 7-6Z" style="fill:#eb9a59"/><path d="M757 488v-1c-2-3-5-7-1-10l-7-5-7-6c-2 8 7 21 16 24l-1-2Z" class="cls-81"/><path d="M763 490c3-1 5-3 6-6l-4-3-4-3-4-1h-1c-4 3-1 7 1 10v1l1 2h5Z" class="cls-82"/><path d="m757 477 4 1 2 1 2 2 4 3v-4l-2-2h-1a10 10 0 0 0-4-1h-5Z" class="cls-81"/><path d="M482 611Zm-31 47c-2 0-3-2-5-4l-2-4c-1-3-2-7-1-9l3-1h5l4-3c4-6 8-2 11 0s5 4 7-1c4-10 16-11 25-9h2c6 2 11 1 16-1l2-1 6-3c10-5 9-6 14 4l-12 21 4-1c5-5 8-10 10-17l3-15v-8a142 142 0 0 1-2 3l-42-3h-7c-3 0-6 1-8 3l-2 2-1 1h-2v-25a312 312 0 0 1-2 11l-8-7h-2l-4 2c-1 2-2 3-4 3h-7l-7-1-5 3-1 1c-4 0-7 3-9 6l-3 4-2-5a85 85 0 0 0-2 17c-1 11 2 22 8 30 4 4 10 8 17 11l3-4Z" class="cls-36"/><path d="m530 646-4 1 12-21c-5-10-4-9-14-4l-6 3-2 1c-5 2-10 3-16 1h-2c-9-2-21-1-25 9-2 5-4 3-7 1s-7-6-11 0l-4 3h-5a4 4 0 0 0-3 1c-1 2 0 6 1 9l2 4 5 5a1715 1715 0 0 1-3 3l4 1c6-2 12-2 19 1l-6 1-3 1a68 68 0 0 0 31 0l6-1a72 72 0 0 0 31-19Z" class="cls-35"/><path d="m533 578-2-1-19-7a115 115 0 0 1-30-19v3a81 81 0 0 1 1 17v7a71 71 0 0 0 1 15l5-2 4-2a13 13 0 0 1 4 0c9-2 17 1 25 5l17 8 2-4-1-1-3-10-3-9h-1Z" style="fill:#e5767a"/><path d="m539 602-17-8c-8-4-16-7-25-5h-4l-4 2-5 2-1-4v-20l-1-15v57l2-2c2-2 5-3 8-3h7l42 3 1-1 1-2-2-7v-1l-2 4Z" style="fill:#e8888c"/><path d="m493 551-3 1h-1l2 1 7 5 16 7 15 6 2 1 5 4-3 2h1a97 97 0 0 1 6 1h1l18 3 1 1h8l1-1h2c3 0 7-1 10-3l-9-7c-8 2-15 3-22 1h-1l-5-1-13-4c-11-3-27-9-37-17Z" style="fill:#d7793d"/><path d="m540 629-2 7c3-3 4-7 5-11l1-10v-5 1a136 136 0 0 1-4 18Z" class="cls-35"/><path d="m641 226 4 3c3 2 7 4 9 2l1-2v-1c0-3-4-8-7-12l-7-4h-2c-2 1-2 2-2 4l4 10Z" class="cls-63"/><path d="m449 453-2 1-2 1 3-1a145 145 0 0 1 31-3c10 0 20 0 29 2a35 35 0 0 1 20 10c3 2 4 5 5 8 2 4 3 9 1 15l-1 4 6 5a40 40 0 0 0 3-21l-1-1v-3l-1-1a27 27 0 0 0-4-8l-1-1-1-1-1-1h-1v-1a41 41 0 0 0-24-9h-3c-5 4-10 2-16 1h-18c-5 1-10 3-15-1h-1l-1 2c-1 2-3 3-5 3Z" style="fill:#2a2d38"/><path d="m428 500-2-3v-3l-1-1-3-12c0-7 3-13 8-18 4-4 9-6 14-8l3-1 2-1c2 0 4-1 5-3l1-2-7 1h-2l-2 1h-3l-2 1h-1l-1 1h-1l-1 1h-2l-2 1v1h-2v1l-1 1h-1l-1 1-2 1v1l-1 1-1 1v1l-1 1h-1v2h-1v2l-1 1v1l-1 1v3l-1 1v5a32 32 0 0 0 0 5l1 5 3 8 1 1a36 36 0 0 1 5 6l2-5Zm43-51h18c6 1 11 3 16-1l-1-1h-1l-17-1h-1l-21 1h-1a52 52 0 0 0-7 1c5 4 10 2 15 1Z" style="fill:#2b2e38"/><path d="M595 341h-3c-7 0-14 3-21 6v1h-1a68 68 0 0 0-24 28l-1 3-2 3-3 10-1 16-1 10h1l1 1a11 11 0 0 0 3 0 11 11 0 0 0 3-1h1l1-1h1l1-1c-1-12 3-22 9-30v-1l1-1c9-13 24-21 40-22 11-1 23 3 33 11a54 54 0 0 1 11 13v-2l-4-16c-3-9-10-16-18-21a64 64 0 0 0-26-6h-1Z" style="fill:#c46c35"/><path d="M650 418a67 67 0 0 1-7 24l-2 2 9 7 14 12 3-8v-1l1-3v-2l1-22c-6-5-9-11-6-18-8-2-9-3-8-12l-9-4 2 4c2 7 2 14 2 21Z" style="fill:#c26a32"/><path d="M571 415h2a82 82 0 0 1 13 5c4 2 7 5 10 9l3 1a1399 1399 0 0 0 21 4l6-6c3-4 6-8 6-12 0-3 0-6-2-9v-1l-5-5c-10 10-22 0-19-10 4-9 20-8 20 4 5-9-3-18-11-21-6-2-12-2-18 0h-2l-13 7c-9 8-15 21-11 34Z" class="cls-149"/><path d="M185 523c5-13 9-26 8-40l-8-6-8 13v14l2 18 3 6 3-5Z" style="fill:#f09959"/><path d="M193 483v-1l-1-7-3-13-4-10h-2a34 34 0 0 0-4 10c-2 9-1 19-2 28l8-13 8 6Z" style="fill:#f19958"/><path d="M211 444a15 15 0 0 0 10-4c4-4 7-10 9-16l3-19-4-3-3 4c0 12-5 23-13 32l-2 6Z" style="fill:#c96e35"/><path d="m248 419 4 3 6 2a11 11 0 0 0 7-2h-3l-8-1a14 14 0 0 1-6-6v4Z" style="fill:#e48d4b"/><path d="m129 513-1 5a51 51 0 0 0 18 44l-2-15v-9c2-3 6-5 10-7 4-3 9-6 11-15v-1l-1-4-2-1h-1l-3 1-11 13-2 3-3 4v-26l-1-1v-1c-4-9-13 3-12 10Z" style="fill:#ef9552"/><path d="M171 456c1-3 2-7 1-11l-3-7c-2 0-3 1-5 3a65 65 0 0 1-19 21l-4 4 1 5c2 2 4 3 7 3h2c4-1 7-2 9-4 5-4 9-9 11-14Z" class="cls-81"/><path d="M713 811c0-8-1-15-4-22a46 46 0 0 0-18-21l3 7-3-7-9-7 3-17v-2l-1-2v-1c0-9-4-16-11-22v-1l-1-1h-1v-1h-1c-7-5-14-9-24-12a44 44 0 0 0 8-37l-1 1c-5 13-12 26-21 37a61 61 0 0 1-47 23h-5v1l-6 3-1 2-4 3-3 3a31 31 0 0 0-4 3c-9 7-18 11-28 12-9 1-18 0-27-5l-11-5c1 7 5 12 9 16l13 7 24 4-2 2-5 2a32 32 0 0 1-3 0l-1 1h-11a42 42 0 0 1-19-8l-2-2-3-3-8-1c-11 6-27 10-36 1h-1l-17-4-3-3c-3-4-6-6-9-6h-4a26 26 0 0 0-7 3h-2l-12 3c6 5 13 1 20 2a9 9 0 0 1-5 6l-6 3c-11 1-19-7-21-18l-1-3a79 79 0 0 0-3-7l-2-6-7-6h-5c-9-1-21 1-24-6h-1v-2h15c-3-6-7-11-12-17a97 97 0 0 1-7-9c-2-3-5-5-8-6h-4c-13 2-23 13-28 24v1l-3 6 1 12 2 8-8 5-8 4a60 60 0 0 0-3 2h-1c-5 5-7 10-9 16v8c1 8 4 17 8 24l-13 7c-11 7-14 18-13 31a323 323 0 0 0 130 60c48 12 97 13 146 10 66-9 132-30 184-72l2-21Zm-357-74v1h-2 2v-1Zm-34 35 5 2-5-2Zm-5-13c-2-2-3-6-3-9-1-2 0-4 3-5 9 2 17 15 25 21-10 0-19 0-25-7Zm30 112-1 1v1l-4-1-3-1-25-13c-8-6-15-12-18-20-1-4-1-8 1-13 1-3 2-10 4-13 1-2 2-3 5-1l2 1a274 274 0 0 1 14 24c4 8 9 15 14 21l11 13v1Zm34-15a52 52 0 0 1-25-4 40 40 0 0 1-22-45l6 3 1-3 1-4v-2 1h3l1 1v1h1v17c0 2-1 5-3 7 3 5 7 9 12 12l2 2 2 1 1 1 1 1h2l1 1 2 1h1l2 1 3 1 3 1a106 106 0 0 0 6 2h2l5 1-8 3Zm31-45c1-6 4-12 9-16 2-2 4-3 7-3v2l1 7c-3 10 2 18 6 25l8 12-11 1a29 29 0 0 1-19-17c-1-4-2-7-1-11Zm37 77a10 10 0 0 1-2 0c-3 1-7 0-11-1l-9-2-3 1 3-1-9-8v-2h9l1 1h1l13 3 4 1a5 5 0 0 1 1 0l3 5 2 2-3 1Zm-6-50Zm19 35-6-1-2-4-1-5v-7l2-2v-1h4c5 2 9 8 9 13l-1 4-5 3Zm17-64-7-4c-3-3-6-6-9-7h-2v-1h-20c-1-4 1-7 4-9a26 26 0 0 1 12-6c7-2 14 0 21 3a20 20 0 0 1 3 1v1a18 18 0 0 1 3 2c3 3 4 7 4 11s-1 6-3 8l-6 1Zm11 16a509 509 0 0 0 13 14c3 2 6 3 12 3h12a17 17 0 0 1-11 6h-5c-3 0-7-1-10-3-5-2-9-5-11-9s-2-7 0-11Zm51 63-1 1-3 2c-7-1-14 0-20-2l-4-1c5-8 14-9 29 0h-1Zm19-26c-6 1-10-1-12-4v-4c1-1 3-1 7 1 1 1 4 2 6 5l-1 2Zm-17-35c-6-4-10-9-12-17l-1-4 3-4c1-1 3-1 5 1a73 73 0 0 0 16 16l12 7 5 5c-11 3-21 1-28-4Zm113-90h5l2 1c2 1 3 4 4 8a25 25 0 0 1-1 8c0 4-2 6-4 7-1 0-3 0-5-2s-3-5-3-8v-10l2-4Zm-66 38-7-1 13-11 16-14 5-4-3 1 5-4 3-4 1-3 3-6 2-3c2 7 0 15-3 22-6 15-22 27-35 27Zm12 46-3-1c-3-1-2-5-1-9l5-11 1-2 2-1 4 1 2 2 1 5v1l-2 6-5 7-4 2Zm10 43-2-2-1-1 1-1 4-8 2-5h1c3 1 3 3 4 5a16 16 0 0 1-2 6c-1 3-5 6-7 6Zm50-70-6 6-1 2c-5 3-11 5-16 5-6 0-11-2-13-6-2-2-3-6-2-10l5 1a24 24 0 0 0 21 3l1-1c5-1 9-3 13-6l-2 6Zm16 49-4-1-2-4 1-5 3-5 5-6c2-2 4-2 5-2l3 3 3 4c-1 6-9 15-14 16Zm136-567-28-10a45 45 0 0 0-3-20v-1c-4-8-10-14-18-18h-1c-6-3-14-4-22-4l-13 10c4 4 7 9 9 14a94 94 0 0 1 4 22l1 6c5 20 23 34 31 53 3 7 4 13 3 17l-4 12c-2 3-2 6-1 11v1c2 5 1 10-1 15l-3 6-1 2c-3 5-8 3-12-1-3-3-7-7-10-8 2 8 1 15-1 23l-9 24c-2 7-2 14-1 21l1 2 3 9-1 4c0 4-2 6-5 11l-3 6-2 10-3 24a56 56 0 0 0 2 15v-1 28h-2l-5-5-1 25v3l4 31 3 14 13 5h12c11-1 21-2 30-8 5-3 10-9 14-18v-1h1l1-3 2-3 4-1h2c10 0 20-3 29-8a48 48 0 0 0 22-29 87 87 0 0 0 0-29l1-1 7-7-3-1 3 1c4-4 7-8 9-13 3-6 4-12 5-19v-1c0-7-1-14-3-20l-7-15 5-8c5-7 6-16 4-24v-1a43 43 0 0 0-19-27c5-6 7-13 7-19 0-10-4-19-10-27-5-5-11-10-18-14 1-9 1-19-1-27-3-13-9-25-21-33Zm-43-9-1 1h-3c-2 0-3-1-3-3v-5h-1l3-7 2 2 5 8c0 2 0 4-2 4Zm2 166 3 2 1 1 1 2-1 2c-2 4-5 3-9 3l-10-6v-1c-3-2-4-5-5-8-2-6-2-12 0-18a125 125 0 0 0 10 12l10 11Zm-40 153-4 4-4 4c-4-7-2-12 5-16l3 5v3Zm0-60v-27l1-1 5 6v14l-2 3-3 6-1-1Zm25-36c-9-3-18-16-16-24l7 6 7 5h6a8 8 0 0 1 5 1l2 2v4c-1 3-3 5-6 6h-5Zm5 35 6-18 8-12 5-3h2l-6 32v10c1 7 3 14 10 19 1 2 4 3 4 5l-1 2-1 1h-6c-8-1-14-5-18-9-5-7-6-16-3-27Zm12 75-6 1 11-21c3 2 3 4 3 6a19 19 0 0 1-2 8l-6 6Zm28-198-2-2v-5a147 147 0 0 0-7-28l-1-3a261 261 0 0 0-12-29c4 0 7 1 9 3l9 8 3 4 4 2 1 1 1 1 5 8 8 20 2 7-16-5v12l-4 6Zm8 107v-6a22 22 0 0 1 3-9l3-7 3-7a33 33 0 0 0 3-12h-1l-1-5v-2l-5-15-1-2-2-5 1-3c7 2 12 7 17 13 8 11 10 28 7 41-3 12-12 20-27 19Zm35 12 2 2 3 10v1l-2 6-1 1-7 7c2-9 3-18-3-26l1-4a18 18 0 0 1 7 3Zm-13 36v1a14 14 0 0 1-6 10l-1 1h-7v-1l-1-3 3-11 5-9a17 17 0 0 1 5 5v1l2 6Zm14-143a70 70 0 0 1 18 32l-1 2v1a78 78 0 0 1-14-12 248 248 0 0 1-12-13l-6-9-2-6-1-9c7 4 13 8 18 14Zm-23-84-13-12-16-15-1-2-7-7-1-4 1-4 7 2c6 2 11 7 16 13 5 5 10 12 13 18l3 10-2 1ZM160 568v-1l1-2-1-2 1 2a246 246 0 0 0 8-13l7-12 6-11-3-7-2-18v-14c1-9 0-19 2-28l1-1 3-9h2l4 10 3 13 1 7 4-11 4-28 1-27v-2c1-5-1-9-3-12l-1-4a27 27 0 0 1-3-9l-1 2-8 13-6 9-2 1c-1 1-3 2-4 1h-2v-5l1-1 3-5 2-5c4-7 9-15 11-22 2-6 2-12-2-18l-1-3v-1h4l2-5 1-5c1-2 0-4-1-6h-1c-3-5-5-10-4-14 0-5 3-10 6-14l13-13a20 20 0 0 0 2-9l-1-17c-1-8 3-17 8-23l7-14 9-17 3-6 6-2h10l-3-2-6-4-3-1a93 93 0 0 0-52 21 49 49 0 0 0-15 29l-1 1-3 2c-7 1-13 4-19 7l-11 11c-3 6-5 14-4 22l4 8c2 3 4 7 3 9-7 3-13 7-18 12a29 29 0 0 0-9 22c0 5 1 10 4 15-10 3-17 8-21 14-4 8-4 16-1 25 2 6 6 12 11 17-9 4-15 10-17 17v3h-1v4c0 7 3 14 8 21l-2 2v1l-1 2-1 1v1a44 44 0 0 0-4 35l1 2v2l1 1c3 9 9 18 17 25l-1 13c0 4 1 9 3 13l1 1 8 11 1 1 1 1 7 5c9 5 20 7 31 7v-5c0-5 0-10 2-14Zm-9-94h-2c-3 0-6-1-7-3l-1-5 4-5c4-2 8-5 11-9l8-11c2-2 3-3 5-3l1 2 2 5-1 11c-2 6-6 10-11 14-2 2-5 3-9 4Zm-3-108c-2-1-3-3-4-7v-1l3-18 7-14c1-4 12-15 20-20v-1c6-3 11-4 10 4l-4 5 2 3v1l-1 2-7 14-7 17-2 7v6l-2 4-2-2a14 14 0 0 1-2-2l-1-1v-2l-3 3-5 2h-2Zm34-91-3 4-8 7-7 4h-1l-3-1h-1a62 62 0 0 0-3-2c12-9 20-13 26-12Zm2-26 2-7c3-4 6-7 10-9l3 6-11 21c-3-3-4-7-4-11Zm-62 221-1-1c-10-8-13-22-11-35v-1a55 55 0 0 1 15-31l2 3 9-6 7-4 7-2a11 11 0 0 1 0 4c-2 5-6 8-9 13-8 9-11 22-15 33a120 120 0 0 1-3 6l-5 8v1l3 5 2 4v3l1 2-1-2h-1Zm3 62c-1-5-2-10-1-15 0-5 1-9 4-13l1 6c1-7 8-15 12-7v1l1 1v26a168 168 0 0 0 5-7l11-13a8 8 0 0 1 4-1l1 1 2 4v1c-2 9-7 12-11 15-4 2-8 4-10 7v9l2 15 8 3v-2 6h-1l-2 1c-2 0-4-2-6-4l-6-4v-1l-2-2-6-11-5-12v-1l-1-3Z" style="fill:#e78540"/><path d="M427 645c-4-8-5-16-4-24l2-15v-4l2-11v-2l-1 1c-1 4-1 9-3 13 0 2-1 3-3 3a84 84 0 0 0-2 25 43 43 0 0 0 5 14v-3l5 5-1-2Z" style="fill:#382f38"/><path d="m418 606-18 1h4l12 1h2v6l2-8h-2Z" style="fill:#de9669"/><path d="M425 602v2l2 5 3-4c2-3 5-6 9-6l1-1 5-3 7 1h7c2 0 3-1 4-3l4-2h2l8 7 1-8v-12a338 338 0 0 1 0-25 132 132 0 0 1-36 23l-13 5-2 10-2 11Z" style="fill:#e47578"/><path d="M394 572c0 2-1 3-3 3h-3l2 4a11 11 0 0 1 1 2v1l-1 3a441 441 0 0 0 32-3l18-5 2-1 19-10 17-13 1-1 1-1 2-1 5 1 3 1 3-1-1-1a23 23 0 0 1-11-12h-1a152 152 0 0 1-19 18l-1 1a72 72 0 0 1-13 7l-7 3a50 50 0 0 1-27 7l-9-2c-4-2-6-5-7-9l-3-6-2 3 1 5 1 7Zm86-21Z" style="fill:#d6773d"/><path d="m465 665 6-1c-7-3-13-3-19-1a84 84 0 0 0 5 1l8 1Z" class="cls-36"/><path d="M315 401c0-1 1-3 3-3 5-10 11-18 19-23 13-9 28-9 41-4 11 4 22 13 28 25 3 6 5 13 6 21l2 1 4 1 1 1 4 1c0-10 0-21-3-31l-6-12a58 58 0 0 0-53-29h-1c-10 2-20 6-29 14v1h-2c-2 2-5 3-7 3l-2 1-4 2-2 2-1 3-1 11c2 5 2 11 2 17l1-2Z" style="fill:#c36b34"/><path d="M392 407c-1-7-4-12-8-17-6-5-13-9-21-11-7-1-14 0-19 3-3 2-5 6-5 12v2c2-11 17-12 20-4 4 11-9 19-18 11-5 4-7 8-7 12 0 5 3 9 6 13 4 6 11 10 17 12l4-4 13-11 19-9-1-3v-6Z" class="cls-149"/><path d="M679 559h-3a16 16 0 0 1-2-1l-2-1c-13 18-35 39-58 25-2-3-5-3-8-2l-2 1-3 5c-2 4-5 7-9 8-2 1-4 1-7-1-6 5-12 7-19 9h-2c-6 0-12 0-18-2 2 9 3 17 2 24a59 59 0 0 1-6 18l-7 12h-1l-9 10a72 72 0 0 1-44 15c-17 1-34-5-48-18v1l-1 1-3-1h-1l-9-6c-7-5-10-11-14-17l-8-14-8-5 1-8 1-8-2-1-4-2-12 3a59 59 0 0 1-29-6l-12-7-9-4-11-5-6-4-6-7-5-2h-3l-4 1h-3l-2-1-3 1a89 89 0 0 0 13 30 147 147 0 0 0 41 40 372 372 0 0 0 15 10 69 69 0 0 0 25 5c2 0 4 1 4 3a78 78 0 0 0 60 29l2 1h1a159 159 0 0 0 38-2l8 1a468 468 0 0 0 30 1 105 105 0 0 0 29-7 105 105 0 0 0 39-22c4-3 6-7 10-9 2-1 4-2 6-1a13 13 0 0 1 4 1l5 1 9-3 9-7 7-7c15-9 27-23 34-38a103 103 0 0 0 10-37Zm-11-110v2l-1 3v1l-3 8 9 13 6 7 2 2 5-16v-2l4-2 7-2c4-1 7-3 9-6l4-7 2-7c3-11 2-24 1-33l8-3 4-4c0-2 0-4-2-6v-1c-3-5-5-9-5-14-1-4-1-9 1-14l-6 2c3 12 0 18-3 21l-9 6c-2 2-3 4-3 7 1 4 0 9-2 13-3 5-8 9-12 11-3 2-7 2-10 1-2 1-4 0-5-2l-1 22Zm-223-30h3a65 65 0 0 1 24 4l-10-7-9-3c11-1 20 2 29 7h3c4-5 10-8 16-9h13c8 0 16 3 24 6l1-9 1-16 1-9v4l2-5 2-3 1-3 2-4-1-6 2-11c1-3 2-6 1-8l-1-1-1-1c-7-8 2-19 2-28v-1l-13 2c-5 0-9 0-14-2-3-1-7-3-11-7l-2-5-3 2h-1v1l-10 2h-4l-3-1-7-3c-7 12-16 15-29 9l-2 5v1l-1 1v1l-1 1v1l-1 1-1 1v1l-1 1h-1l-1 1-1 1h-2v1h-4l-1-1h-1l-1-1-2-1-2-2a34 34 0 0 1-1-1l-1-1a30 30 0 0 1-2-3l-6 4h-7l-4-1-1 1a95 95 0 0 1 8 30 169 169 0 0 1 2 13l1 18 1 4c3 10 3 21 3 31l1 2c7-2 14-4 21-4Z" class="cls-27"/><path d="M397 563c1 4 3 7 7 9l9 2h5c9-1 16-3 22-7 6-3 10-7 15-11 6-7 13-13 21-18a52 52 0 0 1-35-13h-2a86 86 0 0 1 1 14c0 8-2 14-6 17s-9 6-15 6h-7a122 122 0 0 1-16-1l1 2Z" class="cls-27"/><path d="M419 562c6 0 11-3 15-6 4-4 6-10 6-17a48 48 0 0 0-1-14h2l-2-3-9-12-3-3v3l2 7 2 5a30 30 0 0 1 0 15c-1 6-4 12-7 16-5 5-11 8-18 8h-1l7 1h7Z" style="fill:#f4ad6b"/><path d="M377 577c0-2 1-4 3-4 1-1 3-1 5 1h1l1 1h4c2 0 3-1 3-3l-1-4v-3l-1-5c-3 0-5-2-8-4-2-1-4-2-6-1l-2 1-2 1c-5 6 1 14 3 20Z" style="fill:#eb9c5c"/><path d="m269 430-1 2v2c-2 5-2 10 4 15l10-13-4-5-5-6-1-2-3 7Z" class="cls-120"/><path d="m313 414 2 13v-6a67 67 0 0 1 3-23l-3 3-1 2a39 39 0 0 1-3 12l2-1Zm2 13 1 3v-3h-1Z" style="fill:#bf7342"/><path d="m420 390-1-4-1-18a267 267 0 0 0-6-31l-4-12-4-2-1-1 2 7 3 8-11-10a253 253 0 0 0-20-5c-15-2-29 0-43 10-1 2-5 4-5 7l-1 3a46 46 0 0 1 13-11c7-4 14-6 21-6 7-1 13 0 19 2a35 35 0 0 1 19 13l1 1 5 9 5 17 3 11 6 12Z" style="fill:#d97c40"/><path d="m404 323 4 2 1-1 4 1h7l6-4 1 1 1 2a57 57 0 0 0 2 2l2 2a16 16 0 0 0 3 2h2v1h4v-1h3v-1l1-1h1v-1h1v-1l1-1 1-1v-1l1-1v-1l1-1v-1l2-5c13 6 22 2 29-9l7 3 3 1 1-1h1v-1l-13-5-7 6c-4 3-9 5-13 4-4 0-7-1-10-4l-7 13v1h-1v1h-1v1l-1 1h-1c-4 2-8 0-15-10-1 3-2 5-4 6v1c-4 2-8 0-13-3l-12-10 1 3 2 5 3 4 2 2Z" style="fill:#dd8146"/><path d="M379 307h1l5-5 3-9h-1c1-4-1-8-3-11-3-2-6-2-10 0a11 11 0 0 0-4 5 18 18 0 0 0 2 17h1v1l6 2Z" style="fill:#fdcb94"/><path d="M377 326c-5-1-10-2-15-1-7 0-14 2-21 6a56 56 0 0 0-13 11l1-3c0-3 4-5 5-7h-2l-7 8-3 6c-1 4-1 8 2 12a45 45 0 0 1 3-7 41 41 0 0 1 15-16 56 56 0 0 1 35-9Z" style="fill:#e38745"/><path d="M334 332c14-10 28-12 43-10a125 125 0 0 1 20 5l-18-9-16-1-7 2a48 48 0 0 0-24 13h2Z" style="fill:#e9904d"/><path d="m432 266-2 1-3 2a20 20 0 0 1-2 1l-4-2h-7l-2 1-3 2 3 4c3 2 6 2 10 1 5-1 9-3 11-5s2-4-1-5Z" style="fill:#fab26d"/><path d="M425 270a13 13 0 0 0 2-1l3-2 2-1 2-3 4-4v-1a6 6 0 0 0 1-3l-1-1-7 2-5 3c-3 2-5 5-5 9l4 2Z" class="cls-57"/><path d="M492 309h4l10-2v-1h1l3-2 2 5c4 4 8 6 11 7 5 2 9 2 14 2l13-2v1c0 9-9 20-2 28l1 1 1 1c1 2 0 5-1 8l-2 11 1 6 4-7c5-7 11-12 18-17h1v-1c6-3 13-6 21-6h7l-9-1h-2a45 45 0 0 0-19 5l-15 9a47 47 0 0 1 8-15l7-7-1-1-14 7c0-5 1-9 3-13 3-6 6-11 10-13l10-7h-10c-4 0-7 2-11 3l-2 1-14 4c-7 2-12 2-17 0-4-2-7-5-10-9h-6l-8 3h-1l-4 1a10 10 0 0 0-2 1Z" style="fill:#da7e40"/><path d="m619 273-1 4c2 3 4 5 7 6l11 1 6-2 5-2-3-1-5-1-8-3-5-3v-1h-4l-3 2Z" style="fill:#fbc588"/><path d="m601 264-3-2h-8c-7-1-15-3-22-7-3-1-4 1-3 3a8 8 0 0 0 4 5c10 6 21 4 32 1Z" style="fill:#f7ae67"/><path d="M556 308c4-1 7-3 11-3h10l-4 3h5l15-1-10-5c-5-2-11-1-17 0l-15 7-4 2 9-3Z" style="fill:#e48b4a"/><path d="M602 241c-8-4-26-2-30 3 7 2 27 1 30-3Z" style="fill:#f9b069"/><path d="M496 267h2l6-3 6-5v-4l-11 2h-1v1h-1c-3 2-6 4-7 8l3 1h3Z" style="fill:#fcc485"/><path d="M560 182c3-4 2-10 0-14l-3-4c-3-2-7-3-11 0s-5 7-4 11l1 2a20 20 0 0 0 3 5c5 2 9 3 14 0Z" style="fill:#fdc88e"/><path d="m449 122 6-2c1-4 1-8-1-11v-1c-2-3-5-6-9-7l-7 1-4 4 1 10c2 5 7 7 14 6Z" class="cls-66"/><path d="M452 171a360 360 0 0 0 22 8h1l4 1 5-2c4-4-1-10-5-14l-2-4-10-5-2-1-5-1h-4c-5 0-8 0-9 4v10l5 4Z" style="fill:#fdc688"/><path d="M596 89c-5 0-11 2-16 5a25 25 0 0 1-3-4l-2-5-6-7c-4-4-11-5-19-5h-3a41 41 0 0 0-12 3l-5 4c-3 0-4 6-8 4l-1-2-1-1-7-6c-6-3-13-3-19-3-5 0-9 2-12 5l-10 9c-4-6-10-9-17-11-5-1-10-2-15-1-9 2-18 7-24 15-7-8-18-11-28-10a27 27 0 0 0-20 13l-4 10c-7-6-16-9-25-7-8 1-16 6-19 15v2l-1 6c-5-4-11-6-17-6-9-1-19 2-27 8-11 9-17 22-14 36-11 3-20 8-24 15l-1 1a26 26 0 0 0-3 7v1c-2 7 0 15 5 23l3 1 6 4a75 75 0 0 0 9 5l-12 5c-7 4-12 10-14 17l1 10 2 4 1 2 3 5 2 3c-6 2-12 4-16 8a18 18 0 0 0-5 10 18 18 0 0 0 2 15l6 6 3 2v1l-1 6-3 8-5 12-1 3v21l2 16a28 28 0 0 0 11 17l11 4 9-6c3 4 4 8 4 13 0 4-1 9-4 14l-4 6a16 16 0 0 0 1 1l5 5 8 1 7-1a25 25 0 0 1 4 4l5 6 4 5c4 2 10 3 14 1l5-2c2-2 3-4 3-7v-2l1-5a16 16 0 0 1 6-6v-1l3-11-2-17a33 33 0 0 1 2-14l2-2 6-3c2 0 5-1 7-3h2c9-9 19-13 29-15h2c18-1 37 8 50 25a94 94 0 0 0-6-24 52 52 0 0 0-8-13 35 35 0 0 0-21-11h-7a56 56 0 0 0-35 14 41 41 0 0 0-11 18c-3-4-3-8-2-12l3-6c2-4 7-9 12-12 6-5 14-8 19-9a43 43 0 0 1 23-1l18 9 11 10-3-7a1943 1943 0 0 1-3-9l-2-4-3-4-1-4 12 10v1c5 2 9 4 13 2l1-1 4-6c6 10 10 13 14 10h1l1-1v-1h1a13 13 0 0 0 1-1v-1h1l6-13c3 2 7 4 10 4 4 1 9-1 13-4l7-6 13 5v1l4-1 9-3h6c3 4 6 7 10 9 5 2 10 2 17 0l3-1 8-3 15-7a27 27 0 0 1 27 5l-15 1c-4 0-8 2-11 4-4 2-7 7-10 13l-3 13 14-7 1 1a40 40 0 0 0-15 22l15-9a38 38 0 0 1 21-5l10 1c7 1 15 3 22 6l10 8c4 4 7 8 8 13l4 16a75 75 0 0 0 2 9l9 4c-1 10 0 10 8 12-3 7 0 13 6 18 1 2 3 3 5 2h2c14-6 18-18 17-32l7-2 1-1c5-3 7-7 8-13v-14l7-1 5-6c1-3 2-7 1-10a26 26 0 0 0-4-11c8-2 14-5 17-9 5-5 5-13 3-20a35 35 0 0 0-21-21l7-5a33 33 0 0 0 8-8 17 17 0 0 0 3-13l-2-7-3-4-4-2-5-7 7-10h1l13-10v-1c3-6 4-12 3-18-1-9-6-16-13-22a53 53 0 0 0-25-13l-8-1h-4c-2-1-2-2-1-6 3-8 2-16-2-21-4-6-11-10-18-12-7-1-15 0-22 4l-1-5c-2-4-6-6-10-8a31 31 0 0 0-13-1l-6 1a64 64 0 0 1 0-8v-8c-2-5-6-9-10-11-5-3-10-4-16-4Zm-259 80h-1l1-7 6-8 7-8c2-2 4-3 7-2 2 1 2 3 1 5-1 4-6 10-12 14l-9 6Zm0-48 1-1 8-4 1-1c5 2 5 4 2 6-3 3-8 5-10 6l-3-2-1-2 2-2Zm-33 26-2 9-6 8-1 1-4 2-2-1-2-4 2-5a35 35 0 0 1 4-6l5-5 5-3 1 4Zm-27 155v-1l2-11c4-4 9-5 15-4 2 3 2 6 2 9l-5 7-2 1-3 3-2 2a8 8 0 0 1-2 2l-2 3-4-4-2-8 1-7 1 6 1 2Zm-22-76v-1h1l4-1 9 6 5 5v1c1 5-5 7-10 9l-4-3-5-7a11 11 0 0 1 0-9Zm73 6a30 30 0 0 1-14-4 9 9 0 0 1-3-3l-1-2v-1a4 4 0 0 1 2-3h6l5 2 6 1 11 1 7-4 2-1 3-1 5-3 2-1a38 38 0 0 1-31 19Zm28 33c0 4-2 7-4 10l-7 4h-4c-2-1-5-4-6-7 0-6-2-12 3-17l1-1 8-3a9 9 0 0 1 4 1l2 2 3 3v8Zm243-141v1c0 3-1 6-3 8s-4 2-6 2l-3-2c-4-4-5-10-3-15l3-4 3-1h4c4 2 5 7 5 11Zm3 117c-3 4-23 6-30 3 4-5 22-7 30-3ZM541 93l6-3 4-2 1 1h1a168 168 0 0 1 4 1c-1 4-4 7-6 8-3 2-5 3-8 2-1 0-3 0-3-2v-4l1-1Zm-107 13 4-4 7-1h1c4 1 6 4 8 7v1c2 3 2 8 1 11l-6 2c-7 1-12-1-14-6l-1-10Zm-61 199v-1h-1c-3-4-5-11-2-17a11 11 0 0 1 4-5c4-2 7-2 10 0 2 3 4 7 3 11h1l-3 9-5 5h-1l-6-2Zm21-125-7 3c-3 1-6 1-8-2-1-3-2-6-1-9 1-4 3-8 6-11l11-9 8-6c2-2 4-4 6-4s3 1 5 4l2 4 1-2-1 7c-1 6-4 11-8 15-3 4-8 7-14 10Zm3 18 9-8c4-2 8-4 9-6h4l-1 5-7 6-8 8h-1v1l-5-1v-5Zm25 78c-4 1-7 1-10-1l-3-4a9 9 0 0 1 5-3h7c0-4 2-7 5-9l5-3 7-2a7 7 0 0 1 1 1v1l-1 2v1l-2 3-2 1-2 3c3 1 3 3 1 5s-6 4-11 5Zm25-111v-8c1-4 4-4 9-4h6l3 1 2 1 10 5c5 2 9 5 12 9 4 4 6 9 6 14-9 3-18 0-25-5l-2-1-7-2-9-4-5-4v-2Zm46 102-3-1c1-4 4-6 7-8h1v-1h1l11-2v4l-6 5-6 3-2 1-3-1Zm15-44-5 5-3 2-7 4h-12l-6-7-1-1v-5c2-2 4-2 7-2l8 1h1l7-2 6-2v-1l5-3 5-4c1 6-1 11-5 15Zm9-88-4-3v-7l1-1 1-1h1c4-3 9-5 14-5 5-1 10 0 15 2h1c4 0 7 3 10 5l6 5c2 6-2 5-9 3a45 45 0 0 0-19-1l-12 3h-5Zm27 44a19 19 0 0 1-2-4c-1-4 0-8 4-11s8-2 11 1l3 3c2 4 3 10 0 14-5 3-9 2-14 0l-2-3Zm25 84h-1c-2-1-3-3-3-5-1-2 0-4 3-3a51 51 0 0 0 30 7l3 2c-11 3-22 5-32-1Zm130 65 1-1c4-2 8-6 9-11 2 4 2 8 0 11-4 7-14 12-25 14-7 1-14 1-20-1-4-1-7-3-9-5-3-3-4-7-4-10 0-2 1-3 2-3 1-1 3 0 4 1 5 4 12 7 20 8h1c7 1 15 0 21-3Zm-48-167 9 6c-1 5-3 8-5 10h-8c-3-1-5-3-6-6v-8a9 9 0 0 1 2-2c2-2 5-1 8 0Zm-20 41 11 5c5 3 9 6 12 10l5 8 1 2v3l-1 1c0 2-1 4-4 4a20 20 0 0 1-5 1c-3 0-6-1-8-3l-5-5-8-19c-1-2 1-5 2-7Zm-9 69h4v1l5 3 8 3 5 1 3 1-5 2-3 2h-3l-11-1c-2 0-4-1-5-3l-2-3 1-4 1-1 2-1Zm-15-98 6-9h2c0 3-1 7-3 10l-1 3-7 11-5 1h-1v-4l4-6v-1l5-5Z" class="cls-87"/><path d="m637 455-1-1-11-4h-1c-3-1-7-2-10-1l-5-2 7-5c-11-6-22-2-33-1 2-4 3-7 2-9s-3-3-7-5c-14-7-29-6-44-3l2-3 2-3v-1c-8-3-16-6-24-6h-13c-6 1-12 4-16 9h-3c-9-5-18-8-29-7a34 34 0 0 1 19 10 59 59 0 0 0-24-4h-1a86 86 0 0 0-23 4l-1-2-4-1-4-1h3l-4-1-5-1-9-1h-7l-19 9-13 11-4 4-13 2-17 2-9 2a69 69 0 0 0-23 16 78 78 0 0 0-22 39v21c1 6 3 13 6 18 2 3 4 6 7 7a70 70 0 0 1 3-14c2-4 4-8 8-11l-1 5v13l1 1v4l1 2 1 2v2l1 1v2h1v2l1 1v1l1 1 1 1v1l1 1 1 1 1 2 2 2c7 8 17 13 29 15h1l5-2 1-1-6-12c-3-6-5-11-4-17a17 17 0 0 1 4-8l1-1 3-2v3c-4 12 2 20 10 28l2 1 10 6c4 2 8 3 12 0-2-6-8-14-3-20a10 10 0 0 1 4-2c2-1 4 0 6 1 3 2 5 4 8 4l2-3 2 4a33 33 0 0 0 9 0h1c7-1 13-4 18-8 4-4 6-10 7-16l1-6-3-14-2-7-1-1 1-2a130 130 0 0 0-6-8l-2-2 1 1-3-8a46 46 0 0 1-1-8v-7l1-1v-3l1-1v-1l1-1v-1l1-1 1-2 1-1v-1l1-1 1-1v-1l2-1 2-1 1-1 2-1v-1l2-1h1a48 48 0 0 1 2-1h1l1-1h1l2-1h3l2-1h2l7-1 6-1h3a141 141 0 0 1 21-1h1l17 1h1l1 1a60 60 0 0 1 5 0 40 40 0 0 1 24 11l1 1 1 1 3 6h1v2l1 1v3a29 29 0 0 1 1 8l-3 14h1l-2 2-5 9-3 2-6 10c-3 4-4 9-3 14a44 44 0 0 0 4 17v1l1 1 2 4 1 2 1 1 10 12a36 36 0 0 0 9 3h1c9 2 20 1 28-4a24 24 0 0 0 13-21v-8c3 1 5 3 6 5l2 10 1 6-1-3-1 4-3 9h2c6-3 13-8 17-14s7-13 7-20c3 3 5 7 6 11l1 12-6 15c10 3 26-7 31-15l3-7 10-19 2-15-1-12-6-22c-2-6-4-11-8-16-4-6-9-11-16-14Zm-231-36h3-3Zm-65 117 2 3-2-3Z" class="cls-87"/><path d="M677 331c-8-1-15-4-20-8-2-1-3-2-4-1-1 0-2 1-2 3a13 13 0 0 0 6 12l7 3c6 2 13 2 20 1 11-2 21-7 25-14 1-3 2-7 0-11-1 5-5 9-9 11l-1 1c-6 3-14 4-21 3h-1Z" style="fill:#fab671"/><path d="M479 582a1394 1394 0 0 0 0 31h2l1-2v-11l-1-7v-27l-1-15-1 1v30Z" style="fill:#362b31"/><path d="m512 570 19 7 2 1 3-2-7-5-15-6a75 75 0 0 1-16-7l-7-5-4-2-5-1c2 3 5 6 9 8 6 5 14 9 21 12Z" style="fill:#de7e48"/><path d="M481 566v21l1 10v-47l-2 1 1 15Z" style="fill:#502b30"/><path d="M522 520c-8 8-15 12-23 15h-1c-5 2-11 3-17 3l1 2a35 35 0 0 0 11 11 141 141 0 0 0 47 19 89 89 0 0 1-10-12l-1-1-1-2-2-4-1-1v-2a44 44 0 0 1-3-28Z" style="fill:#e89959"/><path d="M518 509h-3c-7-1-16-2-20-7v-1h-1v-1c-1-2-2-4-1-7l-1 2c-2 3-2 6-2 8l4 6 3 1 3 1c3 0 5 1 5 2l1 3 2 2 4 1v4c-1 2-3 3-7 2l-9-1-9 5c-2 1-5 3-9 3h-1c-3-3 1-8 1-11 1-6-1-9-2-11l-6-4-4-5c-11 10-24 8-36 5v4l9 12a49 49 0 0 0 37 16h5c6 0 12-1 17-3h1c10-3 18-9 25-17l6-10h1l-13 1Z" style="fill:#454b59"/><path d="m653 666 1-1-1 1Zm241-200c-6-9 2-19 3-29 3-16-2-29-12-42l-2-6c5-23-3-45-22-60-2-2-3-4-3-7 1-15-6-29-12-43l-21-19c-5-6-20-4-20-15-6-18-18-34-38-39-3-2-2-8-3-12-3-10-8-18-15-26-9-7-18-14-30-17l-3-3c0-12-7-21-14-29-10-7-22-11-34-10l-21-8c-6-2-7-8-10-13-4-5-11-9-16-14l-1-1-3 2-1-1-2-1c-3-3-8-3-13-3l-10-1-14-11c-15-7-33-9-48 0l-5-1c-10-4-19-7-29-7l-2 2c-7 2-15 6-22 6-6-2-11-3-17-3h-15l-6-1c-7 2-16 10-23 8-19-10-41-2-55 12h1l-3 2a46 46 0 0 0-23 1l-2-1c-13 3-17 16-27 16-26-2-50 14-58 39-9 24-31 20-32 55l-26 12c-12 9-23 18-29 32-2 3-2 8-7 10-25 8-42 35-36 61l-2 5c-9 8-15 18-18 29-2 5 0 13-3 18a47 47 0 0 0-14 57c2 8-7 18-9 26 3 15 6 30-1 44-2 20 1 41 15 56 4 6 4 13 5 19 3 19 14 34 32 43 4 2 8 5 13 6 8 2 16 1 20 10 1 3 4 5 6 6 39 34 83 15 113-19 7 15 20 27 32 39 3 3 4 6 1 9l-3 20c1 5 0 8-3 10l-2 2a51 51 0 0 0-20 40c0 4-1 5-4 7a49 49 0 0 0-22 52c1 5 1 9-4 13-8 5-11 14-14 23-1 5 16 14 20 18-1-13 2-23 13-31l13-7c-4-7-8-16-8-24v-8c1-6 4-11 9-15v-1l2-1 2-1 8-4 8-5-2-8-1-12 3-6v-1c5-11 15-22 28-24l-4-16c-1-5-1-9 1-14l2-2 9-14-11-8a130 130 0 0 1-43-59l-2-5-7-8-6-6v1l-1 1-2 7-7 20c3 2 5-1 6-3v-1 1c-1 2-3 5-6 3a80 80 0 0 1-28 28l-7 3c-7 2-14 5-21 4l-7-1-9-4a45 45 0 0 1-25-26c-11 0-22-2-31-7l-7-5-1-1-1-1a43 43 0 0 1-9-12c-2-4-3-9-3-13l1-13c-8-7-14-16-17-25l-1-1v-2l-1-2c-3-11-3-24 4-35v-1l1-1 1-2 1-1 1-2c-5-7-8-14-8-21v-4h1v-3c2-7 8-13 17-17-5-5-9-11-11-17-2-5-3-11-2-17l3-8c4-6 11-12 21-14-3-5-4-10-4-15v-1c0-9 3-16 9-21 5-5 11-9 18-12l-5 1 5-1c1-2-1-6-3-9l-4-8a34 34 0 0 1 15-33c6-3 12-6 19-7l3-2 1-1c2-12 7-22 15-29l8-7c13-8 29-13 44-14-5-8-7-16-5-23v-1a25 25 0 0 1 3-7l1-1c4-7 13-12 24-15-3-14 3-27 14-36 8-6 18-9 27-8 6 0 12 2 17 6l1-6v-2c3-9 11-14 19-15 9-2 18 1 25 7a28 28 0 0 1 6-13c4-6 11-9 18-10 10-1 21 2 28 10a37 37 0 0 1 39-14c7 2 13 5 17 11l10-9c3-3 7-5 12-5l14 1 5 2a20 20 0 0 1 8 7l1 2c4 2 5-4 8-4a23 23 0 0 1 8-5 34 34 0 0 1 9-2h3c8 0 15 1 19 5l6 7 2 5a45 45 0 0 0 3 4c5-3 11-5 16-5h17-10l9 3c4 3 8 7 10 12l2 3 1 6v3c1 2 3 2 5 3l11 1c4 1 7 3 10 8l1 5c7-4 15-5 22-4 7 2 14 6 18 12 4 5 5 13 2 21v6h5l8 1h2l-4-2a115 115 0 0 0 15 6c5 2 9 5 12 9 7 6 11 13 13 21 1 7 0 13-3 19v1c8 0 16 1 22 4h1c8 4 14 10 18 18v1l1 1 2 19 28 10c12 8 18 20 21 33 2 8 2 18 1 27 7 4 13 9 18 14 6 8 10 17 10 27 0 6-2 13-7 19a44 44 0 0 1 19 28c2 8 1 17-4 24l-5 8a56 56 0 0 1 5 55c-2 5-5 9-9 13l-7 7c2 6 2 11 2 17l-2 11-2 6a53 53 0 0 1-49 33h-3l-4 1-2 3-1 3h-1v1c-4 9-9 15-14 18-5 4-11 7-17 8-8 2-16 3-24 0h-1a65 65 0 0 1-33-20c-8-8-12-19-16-30l-5-26-2 1-3 2a113 113 0 0 1-10 36c-7 16-19 30-34 39a108 108 0 0 1 12 15l7 16 1 12c0 9-2 17-9 25a81 81 0 0 1 24 12h1v1h1l1 1c7 6 11 14 11 23v1l1 2v2l-3 17 11 8a49 49 0 0 1 20 36c2 0 2 3 2 6l-1 9v2l1 4h1l4-1c6-6 16-11 14-21-2-12-4-22-11-32-5-7-14-13-17-22 2-20-6-40-23-52-19-7 6-27-19-59l18-22c34 43 97 54 129 3 4-5 12-4 18-6 20-7 36-22 45-42 3-7 4-14 4-22v-10l3-4 1-1-1 1c15-20 22-46 13-70ZM323 656Z" class="cls-151"/><path d="m584 580-3-1c-3 2-7 3-10 3h-2l-1 1h-8l-1-1-18-3h-1l-6-1 3 9 3 10 1 1v1l3 12v-1 5l-1 10c-1 4-2 8-5 11a72 72 0 0 1-39 28 4 4 0 0 1 0 1 78 78 0 0 1-37 1 103 103 0 0 1-14-4c-7-3-13-7-17-11l-8-9v3l8 13c13 14 31 21 50 21 16 0 32-6 44-15l9-10h1l7-12 1-1a60 60 0 0 0 5-26l-2-15a44 44 0 0 0 20 2c8-2 15-5 20-11l6-7a66 66 0 0 0-8-4Zm-158 10 3-9a156 156 0 0 1-39 4h-8a27 27 0 0 0-5 2l-2 1 10 13 4 2a59 59 0 0 0 11 4l18-1c3 0 5-1 5-3 2-4 2-9 3-13Zm215-146a45 45 0 0 0 9-26 68 68 0 0 0-4-25l-1-4-1-3a169 169 0 0 0-10-12l-1-1c-10-8-22-12-33-11-16 1-31 9-40 22l-1 1v1c-6 8-10 18-9 30l21-1c-4-13 2-26 11-34l13-7h2c6-2 12-2 18 0 8 3 16 12 11 21l-1 6 5 5v1c2 3 3 6 2 9 0 4-3 8-6 12l-6 6 6 3 10 5 5 2Zm-211 65v-3c12 3 25 5 36-5l1-3-1-8c-1-3-3-5-6-7l-10-1-4 2c-3 4-3 7-3 9l3 7c-4 2-9 1-12-1l-7-4-1-1v3l2 3c0 2 0 3-2 5l4 4Zm-86-127c5-3 12-4 19-3 8 2 15 5 21 11 4 5 7 10 8 17l1 9h7l9 1h3c-1-8-3-15-6-21-6-11-16-20-28-25-13-5-28-5-41 4l-1 1c-9 6-16 16-19 27-2 6-2 12-2 18a48 48 0 0 0 4 16v1l4 6h4l17-2 13-2c-6-2-13-6-17-12-3-4-6-8-6-13 0-4 2-8 7-12a29 29 0 0 1-2-9c-1-6 2-10 5-12Zm165 101a13 13 0 0 0-14 5c-3 5-3 9-1 12v1h1v1c5 5 14 7 23 7l13-1 7-11 1-2-6-5v1l-2 3a13 13 0 0 1-6 6l-5 1h-1l-5-2 1-3c3-6-1-11-6-13Z" class="cls-151"/><path d="M499 460c-2 1-4 0-6-1-1-1-3-2-5-1l-2 1 2 1 2 1v2c0 2-2 3-3 5l-6 7-8 1c-6 1-11 0-17-1-5-1-10-1-15 1-3 1-6 2-9 5l2 1h1l6-3c2-1 3-3 5-2 1 0 3 2 4 5l10 1h6l11 2c3 0 6-1 8-3h1v-1l2-2c5-5 11-6 18-7h2l6 3 4 7c3 7 5 9 9 8h1l6-4c2-6 1-11-1-15l-5-8-5-4a34 34 0 0 0-18-6l-6 7Z" style="fill:#474d5c"/><path d="M446 460h-3c-2 1-4 2-5 5l-6 5-4 6a13 13 0 0 0 2 8v1c1 2 2 2 4 1l6-3 6 1 4-2c-1-3-3-5-4-5-2-1-3 1-5 2l-6 3h-1l-2-1c-1-4 0-8 2-10 3-4 7-6 13-7a79 79 0 0 1 22-4h1a298 298 0 0 1 12-1h4l2-1c2-1 4 0 5 1 2 1 4 2 6 1l6-7-26-2-27 3h-2c1 4-1 5-5 6Z" class="cls-147"/><path d="M434 499c3 2 7 2 12 1l-3-7c0-2 0-5 3-9l-6-1-6 3c-2 1-3 1-4-1v-1l-1-1-1-7 4-6 6-5c1-3 3-4 5-5h2c4-1 6-2 5-6a36 36 0 0 0-5 1h-1c-5 2-10 4-14 8-5 5-7 12-8 18a20 20 0 0 0 5 14l7 4Z" class="cls-148"/><path d="M528 490h-1c-4 1-6-1-9-8l-4-7a8 8 0 0 0-8-3c-7 1-13 2-18 7l-2 2v1h-1c-2 2-5 3-8 3l-11-2h-3l3 1c2 1 3 3 3 5l2 4 2 1 7-1 5-4 2-3c5-6 12-7 18-8 7-1 12 6 12 15l16-2v-1l1-4-6 4Z" class="cls-147"/><path d="M478 564v14l1 4v-30l-1 1v11Z" style="fill:#c37471"/><path d="M480 538h-4c-8 5-15 11-21 18l-8 8a68 68 0 0 0 13-7l1-1a98 98 0 0 0 19-18Z" style="fill:#e69051"/><path d="M517 493c0-9-5-16-12-15-6 1-13 2-18 8l-2 3-5 4a13 13 0 0 1-9 1v-1l-2-4c0-2-1-4-3-5l-3-1h-3c3 2 5 4 6 7l1 8-1 3 4 5 6 4c1 2 3 5 2 11 0 3-4 8-1 11h1c4 0 7-2 9-3l9-5 9 1c4 1 6 0 7-2v-4l-4-1-2-2-1-3c0-1-2-2-5-2l-1-1a20 20 0 0 1-5-1c-2-2-4-4-4-6-1-2 0-5 2-8l3-7c3-5 9-6 14-5 5 2 9 7 6 13l-1 3 5 2h1a10 10 0 0 0 6-1v-1l5-5 2-3-16 2Z" class="cls-148"/><path d="M513 208a333 333 0 0 1-10 7v1l-6 2a76 76 0 0 1-9 2l-6 2-6 4 1 1c2 2 2 4 4 3l2-2 6-3 3 1 11 2 5-5c4-4 6-9 5-15Z" style="fill:#ef9f5b"/><path d="m492 226-3-1c-3 0-4 1-6 3l-2 2c-2 1-2-1-4-3l-1-1-1 1 6 7c0-4 2-5 5-3l7 3 7-4 3-2-11-2Z" style="fill:#eea05b"/><path d="M476 226c1-2 4-3 6-4l6-2h1l-8-1c-3 0-5 0-7 2v5l1 1 1-1Z" style="fill:#efa05c"/><path d="M486 231c-3-2-5-1-5 3h12l-7-3Z" style="fill:#efa15c"/><path d="M479 164c4 4 9 10 5 14l-5 2-4-1a22 22 0 0 0-3-1h-2c7 5 16 8 25 5 0-4-2-9-6-14-3-4-7-7-12-9l2 4Z" class="cls-57"/><path d="M432 481c3-3 6-4 9-5 5-2 10-2 15-1 6 1 11 2 17 1l8-1c-4-4-3-9-1-14l-8-1a98 98 0 0 0-25 4c-5 1-10 4-13 7-2 2-3 6-2 10Z" style="fill:#707989"/><path d="M480 461c-2 5-3 10 1 14l6-7 3-5v-2l-2-1-6-1h-4l-8 1h-1 3l8 1Z" style="fill:#6f7786"/></svg>