<?xml version="1.0" standalone="no"?>
<!DOCTYPE svg PUBLIC "-//W3C//DTD SVG 20010904//EN"
 "http://www.w3.org/TR/2001/REC-SVG-20010904/DTD/svg10.dtd">
<svg version="1.0" xmlns="http://www.w3.org/2000/svg"
 width="964.000000pt" height="964.000000pt" viewBox="0 0 964.000000 964.000000"
 preserveAspectRatio="xMidYMid meet">
<metadata>
Created by potrace 1.14, written by Peter Selinger 2001-2017
</metadata>
<g transform="translate(0.000000,964.000000) scale(0.100000,-0.100000)"
fill="#000000" stroke="none">
<path d="M4833 9633 c15 -2 37 -2 50 0 12 2 0 4 -28 4 -27 0 -38 -2 -22 -4z"/>
<path d="M4686 9573 c-1 -1 -47 -5 -102 -7 -125 -6 -240 -15 -279 -20 -16 -3
-57 -8 -89 -12 -33 -3 -64 -7 -70 -9 -6 -1 -33 -5 -61 -9 -68 -10 -129 -22
-270 -51 -102 -22 -100 -21 -167 -39 -31 -8 -67 -17 -80 -20 -20 -4 -97 -27
-268 -81 -30 -10 -69 -24 -87 -31 -17 -8 -34 -14 -38 -14 -7 0 -123 -44 -160
-60 -11 -5 -47 -21 -80 -35 -127 -54 -164 -72 -285 -134 -69 -35 -140 -71
-157 -80 -18 -8 -33 -19 -33 -23 0 -4 -4 -8 -9 -8 -19 0 -373 -222 -436 -272
-5 -5 -48 -38 -95 -74 -256 -196 -449 -373 -649 -593 -42 -47 -88 -97 -104
-112 -15 -16 -27 -31 -27 -34 0 -3 -25 -36 -55 -73 -31 -37 -61 -74 -68 -82
-7 -8 -33 -44 -59 -80 -26 -36 -55 -74 -63 -85 -9 -11 -28 -39 -42 -62 -14
-24 -29 -43 -35 -43 -5 0 -7 -4 -4 -9 4 -5 3 -11 -2 -13 -10 -4 -92 -137 -92
-149 0 -5 -4 -9 -8 -9 -5 0 -19 -22 -32 -50 -13 -27 -27 -50 -32 -50 -4 0 -8
-5 -8 -11 0 -7 -13 -34 -30 -60 -16 -27 -27 -49 -24 -49 3 0 -3 -12 -14 -27
-24 -36 -172 -344 -172 -359 0 -3 -7 -20 -15 -37 -32 -69 -105 -269 -144 -397
-49 -155 -54 -174 -53 -177 1 -2 -5 -21 -13 -43 -8 -22 -14 -44 -14 -48 0 -4
-5 -28 -11 -53 -6 -26 -13 -55 -15 -65 -2 -11 -4 -19 -5 -19 -2 0 -6 -19 -14
-65 -3 -19 -8 -46 -11 -60 -3 -14 -7 -38 -10 -55 -5 -32 -14 -78 -20 -110 -2
-11 -6 -42 -10 -70 -3 -27 -8 -63 -10 -80 -23 -158 -29 -269 -29 -550 -1 -296
5 -465 16 -465 4 0 7 -8 6 -18 0 -22 10 -121 15 -147 3 -11 8 -45 12 -75 4
-30 9 -64 12 -75 2 -11 6 -33 9 -50 9 -49 12 -67 28 -140 23 -107 74 -303 81
-315 3 -6 8 -23 11 -38 3 -15 12 -49 21 -77 10 -27 18 -52 18 -55 1 -3 4 -12
8 -20 3 -8 11 -33 18 -55 13 -45 91 -248 119 -310 9 -22 30 -69 46 -105 16
-36 41 -89 56 -119 15 -29 28 -59 28 -66 0 -7 3 -15 8 -17 4 -1 18 -25 32 -53
107 -213 334 -563 497 -765 147 -182 278 -326 437 -479 44 -42 91 -87 105
-101 29 -28 199 -172 250 -210 18 -14 47 -37 64 -52 18 -15 35 -28 38 -28 3 0
16 -8 27 -19 43 -36 394 -271 406 -271 2 0 39 -20 81 -45 75 -45 368 -195 379
-195 3 0 33 -13 66 -29 33 -16 60 -27 60 -25 0 3 12 -1 28 -9 36 -19 64 -31
147 -62 39 -15 88 -33 110 -42 22 -8 48 -16 57 -18 9 -2 27 -9 40 -16 13 -7
23 -11 23 -10 0 2 18 -2 40 -8 22 -6 42 -10 45 -10 3 0 21 -7 40 -15 19 -8 40
-15 45 -15 6 -1 28 -6 50 -12 22 -6 47 -13 55 -15 8 -2 35 -8 60 -15 25 -6 52
-12 60 -14 8 -2 35 -8 60 -14 64 -14 101 -22 130 -26 14 -2 36 -6 50 -10 14
-3 48 -8 75 -11 67 -8 90 -12 90 -14 0 -1 14 -4 30 -5 17 -2 48 -6 70 -8 94
-13 144 -18 201 -20 34 -1 60 -5 57 -9 -2 -5 38 -9 89 -10 184 -3 388 3 388
12 0 3 26 5 58 6 57 1 227 12 227 15 0 0 11 2 25 4 14 2 45 6 70 9 25 3 61 8
80 10 19 3 49 7 65 11 42 8 85 16 115 19 14 2 43 8 65 14 22 6 56 13 75 16 56
8 438 112 495 135 11 5 79 30 150 56 72 26 148 56 169 66 22 11 45 19 50 19 6
0 63 25 126 56 63 31 120 57 125 58 6 1 17 6 25 11 19 12 165 90 210 113 19 9
40 21 45 25 23 18 237 147 245 147 4 0 10 7 14 15 3 8 12 15 20 15 8 0 16 3
18 8 2 4 26 23 53 41 60 42 232 169 260 192 11 10 52 43 90 76 174 145 417
386 566 563 124 147 269 335 269 350 0 5 4 10 8 10 4 0 16 15 27 33 10 17 23
37 28 42 18 22 117 177 117 185 0 5 6 15 13 22 34 35 229 410 305 588 62 144
165 421 177 475 1 5 5 17 8 25 10 25 94 342 102 385 2 11 6 31 9 45 9 45 17
84 22 115 3 17 8 41 10 55 3 14 7 36 9 50 2 14 4 25 5 25 1 0 3 11 4 25 12
107 18 159 22 185 6 32 8 61 21 225 10 134 9 565 -1 650 -5 36 -9 79 -11 95
-3 35 -14 119 -21 155 -2 14 -7 44 -10 66 -2 23 -7 53 -10 65 -2 13 -7 40 -10
59 -3 19 -7 43 -10 52 -3 10 -7 30 -10 44 -3 14 -12 56 -20 93 -9 36 -17 73
-19 81 -10 47 -26 107 -55 200 -17 58 -32 110 -34 115 -2 6 -8 23 -14 38 -7
16 -12 34 -12 41 0 7 -3 16 -7 20 -4 3 -8 13 -9 22 -2 16 -65 181 -93 244 -8
19 -15 37 -16 40 -6 27 -184 390 -238 485 -79 140 -276 443 -302 465 -8 7 -15
17 -15 22 0 5 -6 15 -12 22 -7 8 -20 24 -28 36 -8 12 -20 28 -25 34 -6 6 -28
34 -50 61 -22 28 -42 52 -45 55 -3 3 -16 18 -29 35 -74 97 -328 358 -470 485
-47 41 -92 82 -101 90 -76 70 -382 300 -400 300 -4 0 -10 4 -12 8 -4 10 -201
137 -268 173 -25 13 -47 27 -50 30 -3 4 -23 15 -45 26 -80 40 -130 68 -133 76
-2 4 -8 7 -14 7 -5 0 -60 24 -121 54 -62 29 -152 70 -202 91 -49 20 -99 41
-110 46 -11 4 -47 18 -80 29 -33 12 -69 25 -80 30 -11 5 -65 23 -120 40 -55
17 -111 35 -125 40 -24 8 -150 41 -215 56 -16 4 -34 8 -40 10 -22 6 -162 36
-185 39 -14 2 -61 10 -105 19 -44 8 -102 18 -130 22 -27 4 -57 8 -65 9 -45 7
-217 22 -355 31 -90 6 -395 11 -399 7z m367 -265 c70 -2 127 -6 127 -9 0 -3
26 -6 58 -8 31 -1 71 -4 87 -6 17 -2 50 -6 75 -9 41 -5 73 -10 140 -21 14 -2
39 -7 55 -9 64 -11 100 -18 164 -32 36 -8 77 -17 91 -20 14 -3 33 -7 42 -10 9
-3 26 -7 38 -9 22 -4 65 -17 265 -78 125 -38 304 -105 425 -160 25 -11 46 -19
47 -19 5 3 330 -166 371 -192 24 -15 53 -31 65 -37 12 -5 34 -17 49 -27 15 -9
55 -35 90 -56 35 -22 65 -42 68 -46 3 -3 23 -17 44 -30 38 -23 286 -207 296
-219 3 -4 18 -17 34 -29 69 -53 171 -147 306 -282 148 -148 177 -179 265 -285
28 -33 52 -62 55 -65 5 -4 73 -92 113 -145 4 -5 16 -21 28 -35 11 -13 30 -40
41 -60 12 -19 24 -37 28 -40 18 -17 189 -293 222 -360 7 -14 15 -27 19 -30 8
-6 179 -354 179 -364 0 -4 11 -31 24 -59 22 -50 116 -301 120 -322 1 -5 5 -15
8 -21 4 -6 9 -22 12 -36 2 -13 12 -47 21 -74 9 -27 19 -60 21 -74 3 -14 7 -32
10 -40 9 -22 24 -81 30 -115 3 -16 9 -41 14 -55 5 -14 11 -41 14 -60 5 -33 8
-47 22 -110 9 -43 16 -94 17 -117 1 -13 3 -23 7 -23 3 0 6 -21 8 -48 1 -26 4
-62 7 -81 6 -38 -3 -38 -10 0 -4 23 -13 92 -20 149 -2 14 -4 25 -5 25 -1 0 -3
13 -5 29 -2 16 -9 52 -15 80 -6 28 -13 65 -16 81 -2 17 -18 82 -34 145 -17 63
-33 125 -35 137 -7 31 -64 213 -75 238 -15 35 -60 160 -60 166 0 4 -12 33 -27
65 -14 33 -27 64 -29 71 -6 33 -151 325 -216 436 -32 54 -58 101 -58 103 0 3
-18 32 -40 64 -22 32 -40 64 -40 69 0 6 -4 11 -10 11 -5 0 -10 7 -10 15 0 8
-3 15 -8 15 -4 0 -12 8 -17 19 -27 50 -165 243 -201 278 -8 8 -14 17 -14 21 0
4 -17 26 -37 48 -21 23 -56 63 -78 89 -172 203 -471 488 -640 610 -16 11 -34
26 -41 33 -8 7 -62 46 -121 87 -60 41 -112 78 -118 82 -99 76 -545 323 -582
323 -7 0 -13 5 -13 10 0 6 -7 10 -15 10 -8 0 -23 5 -33 10 -35 20 -154 70
-168 70 -8 0 -14 5 -14 12 0 6 -3 9 -6 5 -4 -3 -18 0 -33 7 -14 7 -69 27 -121
45 -52 18 -102 35 -110 38 -8 3 -20 7 -27 9 -7 1 -59 16 -115 32 -114 33 -155
44 -178 48 -8 2 -55 12 -105 24 -80 19 -109 25 -180 35 -11 2 -20 4 -20 5 0 5
-224 35 -335 45 -204 18 -534 23 -715 10 -44 -3 -105 -8 -135 -10 -30 -2 -55
-4 -55 -5 0 -1 -18 -4 -40 -5 -22 -2 -56 -6 -75 -9 -19 -3 -53 -8 -75 -11 -70
-11 -79 -13 -115 -19 -101 -18 -202 -40 -307 -67 -65 -16 -129 -32 -142 -35
-14 -3 -28 -7 -33 -10 -4 -3 -16 -7 -25 -9 -10 -2 -72 -22 -138 -44 -66 -23
-127 -43 -135 -45 -8 -3 -35 -13 -60 -24 -24 -12 -48 -18 -52 -16 -4 3 -8 1
-8 -3 0 -5 -17 -15 -37 -22 -111 -39 -440 -203 -551 -274 -64 -41 -85 -45 -26
-5 96 66 309 179 318 170 3 -3 6 1 6 8 0 7 3 11 6 7 3 -3 24 5 45 19 21 13 42
24 46 24 4 0 25 9 47 19 37 18 114 52 126 56 18 6 49 18 70 27 48 19 185 70
200 73 8 2 58 18 110 35 78 25 270 77 355 95 83 18 117 25 145 30 14 2 34 6
45 8 11 3 56 10 100 17 44 6 90 13 103 15 13 2 53 7 90 10 37 4 83 8 102 11
19 2 123 7 230 10 107 4 196 7 197 8 2 2 18 1 36 0 19 -2 91 -4 160 -6z m148
-455 c13 -16 12 -17 -3 -4 -10 7 -18 15 -18 17 0 8 8 3 21 -13z m940 -140 c13
-16 12 -17 -3 -4 -10 7 -18 15 -18 17 0 8 8 3 21 -13z m-3687 -86 c-2 -7 -21
-20 -42 -30 -20 -9 -68 -40 -107 -68 -76 -54 -128 -85 -85 -49 58 48 76 60 87
60 6 0 13 3 15 8 5 11 66 52 78 52 5 0 10 5 10 10 0 6 7 10 15 10 8 0 15 5 15
10 0 6 4 10 10 10 5 0 7 -6 4 -13z m-272 -184 c-7 -3 -18 -10 -25 -16 -7 -7
-21 -18 -32 -26 -11 -7 -2 3 19 23 22 20 42 33 45 30 3 -4 0 -9 -7 -11z m-82
-63 c0 -5 -4 -10 -10 -10 -5 0 -10 5 -10 10 0 6 5 10 10 10 6 0 10 -4 10 -10z
m-35 -29 c-3 -6 -11 -11 -16 -11 -5 0 -4 6 3 14 14 16 24 13 13 -3z m-36 -24
c-2 -1 -29 -22 -59 -45 l-55 -44 54 51 c30 28 57 49 59 46 3 -3 3 -6 1 -8z
m-144 -122 c-15 -14 -29 -24 -32 -21 -3 3 8 16 23 30 37 32 43 26 9 -9z m-134
-119 c-41 -41 -77 -73 -79 -72 -4 4 141 146 149 146 4 0 -28 -33 -70 -74z
m1829 20 c0 -2 -14 -19 -31 -37 -17 -19 -28 -27 -24 -19 13 26 55 69 55 56z
m-2000 -190 c-34 -35 -66 -70 -71 -77 -4 -7 -10 -11 -13 -9 -5 6 130 150 140
150 4 0 -21 -29 -56 -64z m2480 -16 c-19 -16 -39 -30 -44 -30 -12 0 -5 7 36
36 46 32 50 29 8 -6z m3180 0 c8 -5 11 -10 5 -10 -5 0 -17 5 -25 10 -8 5 -10
10 -5 10 6 0 17 -5 25 -10z m-5835 -176 c-14 -15 -25 -32 -25 -37 0 -6 -3 -8
-6 -4 -7 7 34 67 46 67 5 0 -2 -12 -15 -26z m-82 -99 c-3 -9 -8 -14 -10 -11
-3 3 -2 9 2 15 9 16 15 13 8 -4z m-74 -95 c-18 -22 -34 -40 -37 -40 -5 0 12
24 42 58 33 37 29 25 -5 -18z m781 -30 c-14 -11 -29 -20 -35 -20 -5 0 4 9 20
20 38 25 48 25 15 0z m-60 -35 c-7 -8 -17 -15 -22 -15 -11 0 14 29 26 30 5 0
3 -7 -4 -15z m-800 -45 c0 -5 -5 -10 -11 -10 -5 0 -7 5 -4 10 3 6 8 10 11 10
2 0 4 -4 4 -10z m-92 -130 c-7 -10 -14 -17 -17 -15 -4 4 18 35 25 35 2 0 -1
-9 -8 -20z m-88 -144 c0 -3 -4 -8 -10 -11 -5 -3 -10 -1 -10 4 0 6 5 11 10 11
6 0 10 -2 10 -4z m451 -199 c-10 -9 -11 -8 -5 6 3 10 9 15 12 12 3 -3 0 -11
-7 -18z m4329 -313 c0 -8 -19 -13 -24 -6 -3 5 1 9 9 9 8 0 15 -2 15 -3z m150
-44 c8 -5 10 -10 4 -10 -7 0 -22 9 -35 21 -19 16 -20 18 -4 10 11 -6 27 -15
35 -21z m-4140 6 c0 -2 -8 -10 -17 -17 -16 -13 -17 -12 -4 4 13 16 21 21 21
13z m6238 -441 c-3 -3 -9 2 -12 12 -6 14 -5 15 5 6 7 -7 10 -15 7 -18z m-5811
-47 c-3 -8 -6 -5 -6 6 -1 11 2 17 5 13 3 -3 4 -12 1 -19z m10 -50 c-3 -7 -5
-2 -5 12 0 14 2 19 5 13 2 -7 2 -19 0 -25z m3353 -42 c0 -2 -8 -10 -17 -17
-16 -13 -17 -12 -4 4 13 16 21 21 21 13z m-2425 -485 c3 -5 2 -12 -3 -15 -5
-3 -9 1 -9 9 0 17 3 19 12 6z m-617 -76 c-3 -3 -9 2 -12 12 -6 14 -5 15 5 6 7
-7 10 -15 7 -18z m2157 -3 c-3 -3 -11 0 -18 7 -9 10 -8 11 6 5 10 -3 15 -9 12
-12z m4601 -142 c1 -16 -1 -30 -5 -30 -4 0 -8 14 -9 30 -1 17 1 30 5 30 5 0 9
-13 9 -30z m7 -60 c3 -11 1 -20 -4 -20 -5 0 -9 9 -9 20 0 11 2 20 4 20 2 0 6
-9 9 -20z m-738 0 c3 -6 -1 -7 -9 -4 -18 7 -21 14 -7 14 6 0 13 -4 16 -10z
m36 -37 c13 -17 13 -17 -6 -3 -11 8 -22 16 -24 17 -2 2 0 3 6 3 6 0 17 -8 24
-17z m708 -60 c1 -31 0 -55 -3 -52 -7 7 -13 118 -6 114 4 -2 8 -30 9 -62z
m-2856 38 c15 -8 27 -18 27 -23 0 -5 -15 1 -32 13 -53 36 -52 38 5 10z m-1753
-69 c0 -5 -7 -9 -15 -9 -8 0 -15 4 -15 9 0 4 7 8 15 8 8 0 15 -4 15 -8z m320
-3 c0 -7 -61 -1 -69 7 -2 2 13 3 33 2 20 -1 36 -5 36 -9z m-435 -11 c3 -3 -5
-5 -17 -4 -13 1 -30 -3 -38 -8 -13 -9 -13 -8 -3 5 12 15 46 19 58 7z m55 8 c0
-2 -9 -6 -20 -9 -11 -3 -20 -1 -20 4 0 5 9 9 20 9 11 0 20 -2 20 -4z m-2613
-58 c-3 -7 -5 -2 -5 12 0 14 2 19 5 13 2 -7 2 -19 0 -25z m7293 22 c0 -5 -4
-10 -10 -10 -5 0 -10 5 -10 10 0 6 5 10 10 10 6 0 10 -4 10 -10z m-6329 -53
c-10 -9 -11 -8 -5 6 3 10 9 15 12 12 3 -3 0 -11 -7 -18z m6329 8 c0 -8 -2 -15
-4 -15 -2 0 -6 7 -10 15 -3 8 -1 15 4 15 6 0 10 -7 10 -15z m-582 -20 c-3 -3
-9 2 -12 12 -6 14 -5 15 5 6 7 -7 10 -15 7 -18z m580 -72 l-1 -68 -6 55 c-6
52 -4 80 5 80 2 0 3 -30 2 -67z m-559 27 c11 -24 11 -24 -3 -6 -9 11 -16 24
-16 30 0 12 5 7 19 -24z m-5809 16 c0 -2 -8 -10 -17 -17 -16 -13 -17 -12 -4 4
13 16 21 21 21 13z m1477 -22 c-3 -3 -12 -4 -19 -1 -8 3 -5 6 6 6 11 1 17 -2
13 -5z m-1507 -18 c0 -2 -7 -7 -16 -10 -8 -3 -12 -2 -9 4 6 10 25 14 25 6z
m-40 -46 c0 -5 -5 -10 -11 -10 -5 0 -7 5 -4 10 3 6 8 10 11 10 2 0 4 -4 4 -10z
m6450 -34 c0 -3 -4 -8 -10 -11 -5 -3 -10 -1 -10 4 0 6 5 11 10 11 6 0 10 -2
10 -4z m-6547 -39 c-3 -5 -9 -3 -14 4 -4 7 -5 17 -2 22 3 5 9 3 14 -4 4 -7 5
-17 2 -22z m6534 -34 c-3 -10 -5 -2 -5 17 0 19 2 27 5 18 2 -10 2 -26 0 -35z
m0 -105 c-2 -18 -4 -6 -4 27 0 33 2 48 4 33 2 -15 2 -42 0 -60z m-4542 4 c-3
-3 -11 0 -18 7 -9 10 -8 11 6 5 10 -3 15 -9 12 -12z m4542 -84 c-3 -8 -6 -5
-6 6 -1 11 2 17 5 13 3 -3 4 -12 1 -19z m3 -28 c0 -5 -5 -10 -11 -10 -5 0 -7
5 -4 10 3 6 8 10 11 10 2 0 4 -4 4 -10z m0 -54 c0 -3 -4 -8 -10 -11 -5 -3 -10
-1 -10 4 0 6 5 11 10 11 6 0 10 -2 10 -4z m-6745 -46 c3 -5 1 -10 -4 -10 -6 0
-11 5 -11 10 0 6 2 10 4 10 3 0 8 -4 11 -10z m6726 -33 c-10 -9 -11 -8 -5 6 3
10 9 15 12 12 3 -3 0 -11 -7 -18z m2 -32 c-3 -9 -8 -14 -10 -11 -3 3 -2 9 2
15 9 16 15 13 8 -4z m-4954 -35 c0 -10 -3 -8 -9 5 -12 27 -12 43 0 25 5 -8 9
-22 9 -30z m4942 -33 c-10 -9 -11 -8 -5 6 3 10 9 15 12 12 3 -3 0 -11 -7 -18z
m-7896 -267 c3 -5 1 -10 -4 -10 -6 0 -11 5 -11 10 0 6 2 10 4 10 3 0 8 -4 11
-10z m6957 -52 c-8 -8 -9 -4 -5 13 4 13 8 18 11 10 2 -7 -1 -18 -6 -23z
m-7204 -43 c-3 -3 -9 2 -12 12 -6 14 -5 15 5 6 7 -7 10 -15 7 -18z m3709 10
c0 -8 -4 -12 -9 -9 -4 3 -8 9 -8 15 0 5 4 9 8 9 5 0 9 -7 9 -15z m-3683 -31
c3 -8 2 -12 -4 -9 -6 3 -10 10 -10 16 0 14 7 11 14 -7z m3146 -132 c0 -4 -10
-9 -22 -9 -18 -2 -20 0 -8 7 18 12 30 13 30 2z m500 -22 c0 -5 -5 -10 -11 -10
-5 0 -7 5 -4 10 3 6 8 10 11 10 2 0 4 -4 4 -10z m-637 -7 c-7 -2 -19 -2 -25 0
-7 3 -2 5 12 5 14 0 19 -2 13 -5z m641 -45 c-9 -14 -23 2 -17 18 4 12 8 13 14
3 4 -7 5 -17 3 -21z m-7 -40 c-3 -8 -6 -5 -6 6 -1 11 2 17 5 13 3 -3 4 -12 1
-19z m38 -18 c3 -5 1 -10 -4 -10 -6 0 -11 5 -11 10 0 6 2 10 4 10 3 0 8 -4 11
-10z m612 -207 c-4 -3 -1 -13 6 -22 11 -14 10 -14 -5 -2 -16 12 -16 31 -1 31
4 0 3 -3 0 -7z m1848 -133 c3 -5 1 -10 -4 -10 -6 0 -11 5 -11 10 0 6 2 10 4
10 3 0 8 -4 11 -10z m-2678 -362 c7 -1 10 -5 7 -10 -3 -4 -13 -4 -22 1 -9 4
-23 6 -29 4 -7 -3 -13 0 -13 6 0 5 10 7 23 5 12 -3 27 -6 34 -6z m1894 -331
c-10 -9 -11 -8 -5 6 3 10 9 15 12 12 3 -3 0 -11 -7 -18z m-1007 -55 c3 -5 -1
-9 -9 -9 -8 0 -12 4 -9 9 3 4 7 8 9 8 2 0 6 -4 9 -8z m1256 -152 c6 -11 8 -20
6 -20 -3 0 -10 9 -16 20 -6 11 -8 20 -6 20 3 0 10 -9 16 -20z m-492 -265 c-3
-3 -9 2 -12 12 -6 14 -5 15 5 6 7 -7 10 -15 7 -18z m-2268 -115 c0 -5 -2 -10
-4 -10 -3 0 -8 5 -11 10 -3 6 -1 10 4 10 6 0 11 -4 11 -10z m-891 -594 c-2 -2
-13 8 -23 22 l-19 27 24 -22 c12 -12 21 -24 18 -27z m2486 -64 c-3 -3 -11 0
-18 7 -9 10 -8 11 6 5 10 -3 15 -9 12 -12z"/>
</g>
</svg>
